G04 #@! TF.GenerationSoftware,KiCad,Pcbnew,6.0.1-79c1e3a40b~116~ubuntu20.04.1*
G04 #@! TF.CreationDate,2022-01-29T19:42:55-05:00*
G04 #@! TF.ProjectId,attenuverters_back,61747465-6e75-4766-9572-746572735f62,rev?*
G04 #@! TF.SameCoordinates,Original*
G04 #@! TF.FileFunction,Soldermask,Bot*
G04 #@! TF.FilePolarity,Negative*
%FSLAX46Y46*%
G04 Gerber Fmt 4.6, Leading zero omitted, Abs format (unit mm)*
G04 Created by KiCad (PCBNEW 6.0.1-79c1e3a40b~116~ubuntu20.04.1) date 2022-01-29 19:42:55*
%MOMM*%
%LPD*%
G01*
G04 APERTURE LIST*
%ADD10C,3.200000*%
%ADD11R,1.700000X1.700000*%
%ADD12O,1.700000X1.700000*%
%ADD13C,1.600000*%
%ADD14O,1.600000X1.600000*%
%ADD15R,1.600000X1.600000*%
%ADD16C,1.500000*%
%ADD17R,1.727200X1.727200*%
%ADD18O,1.727200X1.727200*%
%ADD19R,2.200000X2.200000*%
%ADD20O,2.200000X2.200000*%
%ADD21R,2.400000X1.600000*%
%ADD22O,2.400000X1.600000*%
%ADD23R,1.500000X1.500000*%
G04 APERTURE END LIST*
D10*
G04 #@! TO.C,H1*
X138499999Y-113999999D03*
G04 #@! TD*
D11*
G04 #@! TO.C,J1*
X131499999Y-145999999D03*
D12*
X134039999Y-145999999D03*
X136579999Y-145999999D03*
X139119999Y-145999999D03*
X141659999Y-145999999D03*
X144199999Y-145999999D03*
X146739999Y-145999999D03*
X149279999Y-145999999D03*
X151819999Y-145999999D03*
X154359999Y-145999999D03*
X156899999Y-145999999D03*
X159439999Y-145999999D03*
X161979999Y-145999999D03*
X164519999Y-145999999D03*
X167059999Y-145999999D03*
X169599999Y-145999999D03*
G04 #@! TD*
D10*
G04 #@! TO.C,H4*
X164499999Y-52999999D03*
G04 #@! TD*
D13*
G04 #@! TO.C,R20*
X140999999Y-97769999D03*
D14*
X130839999Y-97769999D03*
G04 #@! TD*
D13*
G04 #@! TO.C,R4*
X140999999Y-139679999D03*
D14*
X130839999Y-139679999D03*
G04 #@! TD*
D13*
G04 #@! TO.C,R11*
X158779999Y-110469999D03*
D14*
X168939999Y-110469999D03*
G04 #@! TD*
D13*
G04 #@! TO.C,R1*
X158779999Y-135869999D03*
D14*
X168939999Y-135869999D03*
G04 #@! TD*
D13*
G04 #@! TO.C,R10*
X158779999Y-105389999D03*
D14*
X168939999Y-105389999D03*
G04 #@! TD*
D13*
G04 #@! TO.C,R19*
X158779999Y-100309999D03*
D14*
X168939999Y-100309999D03*
G04 #@! TD*
D13*
G04 #@! TO.C,R23*
X168939999Y-95229999D03*
D14*
X158779999Y-95229999D03*
G04 #@! TD*
D15*
G04 #@! TO.C,C1*
X153699999Y-55859999D03*
D13*
X153699999Y-53359999D03*
G04 #@! TD*
G04 #@! TO.C,R24*
X153699999Y-71099999D03*
D14*
X143539999Y-71099999D03*
G04 #@! TD*
D13*
G04 #@! TO.C,R6*
X140999999Y-87609999D03*
D14*
X130839999Y-87609999D03*
G04 #@! TD*
D16*
G04 #@! TO.C,TP2*
X171479999Y-55859999D03*
G04 #@! TD*
D13*
G04 #@! TO.C,R2*
X158779999Y-140949999D03*
D14*
X168939999Y-140949999D03*
G04 #@! TD*
D13*
G04 #@! TO.C,R14*
X140999999Y-124439999D03*
D14*
X130839999Y-124439999D03*
G04 #@! TD*
D17*
G04 #@! TO.C,J7*
X133379999Y-66019999D03*
D18*
X135919999Y-66019999D03*
X133379999Y-63479999D03*
X135919999Y-63479999D03*
X133379999Y-60939999D03*
X135919999Y-60939999D03*
X133379999Y-58399999D03*
X135919999Y-58399999D03*
X133379999Y-55859999D03*
X135919999Y-55859999D03*
G04 #@! TD*
D13*
G04 #@! TO.C,C6*
X148619999Y-76179999D03*
X146119999Y-76179999D03*
G04 #@! TD*
D19*
G04 #@! TO.C,D1*
X153699999Y-60939999D03*
D20*
X143539999Y-60939999D03*
G04 #@! TD*
D13*
G04 #@! TO.C,R9*
X140999999Y-92689999D03*
D14*
X130839999Y-92689999D03*
G04 #@! TD*
D13*
G04 #@! TO.C,R5*
X130839999Y-82529999D03*
D14*
X140999999Y-82529999D03*
G04 #@! TD*
D13*
G04 #@! TO.C,R3*
X140999999Y-134599999D03*
D14*
X130839999Y-134599999D03*
G04 #@! TD*
D21*
G04 #@! TO.C,U2*
X146079999Y-87609999D03*
D22*
X146079999Y-85069999D03*
X146079999Y-82529999D03*
X146079999Y-79989999D03*
X153699999Y-79989999D03*
X153699999Y-82529999D03*
X153699999Y-85069999D03*
X153699999Y-87609999D03*
G04 #@! TD*
D13*
G04 #@! TO.C,R7*
X158779999Y-130789999D03*
D14*
X168939999Y-130789999D03*
G04 #@! TD*
D15*
G04 #@! TO.C,C2*
X144809999Y-53319999D03*
D13*
X144809999Y-55819999D03*
G04 #@! TD*
G04 #@! TO.C,C4*
X148619999Y-104119999D03*
X146119999Y-104119999D03*
G04 #@! TD*
D19*
G04 #@! TO.C,D2*
X143539999Y-66019999D03*
D20*
X153699999Y-66019999D03*
G04 #@! TD*
D13*
G04 #@! TO.C,R17*
X130839999Y-119359999D03*
D14*
X140999999Y-119359999D03*
G04 #@! TD*
D13*
G04 #@! TO.C,R12*
X158779999Y-115549999D03*
D14*
X168939999Y-115549999D03*
G04 #@! TD*
D13*
G04 #@! TO.C,R22*
X140999999Y-107929999D03*
D14*
X130839999Y-107929999D03*
G04 #@! TD*
D23*
G04 #@! TO.C,TP1*
X171479999Y-52049999D03*
G04 #@! TD*
D13*
G04 #@! TO.C,R8*
X140999999Y-129519999D03*
D14*
X130839999Y-129519999D03*
G04 #@! TD*
D13*
G04 #@! TO.C,R15*
X169066999Y-82529999D03*
D14*
X158906999Y-82529999D03*
G04 #@! TD*
D13*
G04 #@! TO.C,C3*
X153699999Y-104119999D03*
X151199999Y-104119999D03*
G04 #@! TD*
G04 #@! TO.C,R13*
X158779999Y-125709999D03*
D14*
X168939999Y-125709999D03*
G04 #@! TD*
D13*
G04 #@! TO.C,R16*
X168939999Y-120629999D03*
D14*
X158779999Y-120629999D03*
G04 #@! TD*
D23*
G04 #@! TO.C,U3*
X133379999Y-77449999D03*
D16*
X135919999Y-77449999D03*
X138459999Y-77449999D03*
G04 #@! TD*
G04 #@! TO.C,TP3*
X171479999Y-59669999D03*
G04 #@! TD*
D21*
G04 #@! TO.C,U1*
X153699999Y-107929999D03*
D22*
X153699999Y-110469999D03*
X153699999Y-113009999D03*
X153699999Y-115549999D03*
X153699999Y-118089999D03*
X153699999Y-120629999D03*
X153699999Y-123169999D03*
X146079999Y-123169999D03*
X146079999Y-120629999D03*
X146079999Y-118089999D03*
X146079999Y-115549999D03*
X146079999Y-113009999D03*
X146079999Y-110469999D03*
X146079999Y-107929999D03*
G04 #@! TD*
D13*
G04 #@! TO.C,R21*
X130839999Y-102849999D03*
D14*
X140999999Y-102849999D03*
G04 #@! TD*
D13*
G04 #@! TO.C,R18*
X158906999Y-87101999D03*
D14*
X169066999Y-87101999D03*
G04 #@! TD*
D13*
G04 #@! TO.C,C5*
X153699999Y-91419999D03*
X151199999Y-91419999D03*
G04 #@! TD*
M02*
