M48
; DRILL file {KiCad 6.0.1-79c1e3a40b~116~ubuntu20.04.1} date Sat Jan 29 19:42:52 2022
; FORMAT={-:-/ absolute / metric / decimal}
; #@! TF.CreationDate,2022-01-29T19:42:52-05:00
; #@! TF.GenerationSoftware,Kicad,Pcbnew,6.0.1-79c1e3a40b~116~ubuntu20.04.1
; #@! TF.FileFunction,MixedPlating,1,2
FMAT,2
METRIC
; #@! TA.AperFunction,Plated,PTH,ComponentDrill
T1C0.700
; #@! TA.AperFunction,Plated,PTH,ComponentDrill
T2C1.000
; #@! TA.AperFunction,Plated,PTH,ComponentDrill
T3C1.200
; #@! TA.AperFunction,Plated,PTH,ComponentDrill
T4C1.750
; #@! TA.AperFunction,Plated,PTH,ComponentDrill
T5C2.700
; #@! TA.AperFunction,NonPlated,NPTH,ComponentDrill
T6C3.200
%
G90
G05
T1
X182.08Y-110.13
T2
X131.0Y-135.5
X133.54Y-135.5
X136.08Y-135.5
X138.62Y-135.5
X141.16Y-135.5
X143.7Y-135.5
X146.24Y-135.5
X148.78Y-135.5
X151.32Y-135.5
X153.86Y-135.5
X156.4Y-135.5
X158.94Y-135.5
X161.48Y-135.5
X164.02Y-135.5
X166.56Y-135.5
X169.1Y-135.5
T3
X132.0Y-145.42
X132.0Y-147.96
X132.0Y-150.5
T4
X123.0Y-27.5
X123.0Y-97.5
X128.0Y-102.5
X148.0Y-27.5
X148.0Y-97.5
X153.0Y-102.5
X173.0Y-27.5
X173.0Y-97.5
X178.0Y-102.5
T5
X118.6Y-120.0
X118.6Y-170.0
X120.26Y-127.24
X120.26Y-177.24
X124.5Y-116.1
X124.5Y-166.1
X127.5Y-128.9
X127.5Y-178.9
X131.4Y-123.0
X131.4Y-173.0
X143.6Y-120.0
X143.6Y-145.0
X143.6Y-170.0
X145.26Y-127.24
X145.26Y-152.24
X145.26Y-177.24
X149.5Y-116.1
X149.5Y-141.1
X149.5Y-166.1
X152.5Y-128.9
X152.5Y-153.9
X152.5Y-178.9
X156.4Y-123.0
X156.4Y-148.0
X156.4Y-173.0
X168.6Y-120.0
X168.6Y-145.0
X168.6Y-170.0
X170.26Y-127.24
X170.26Y-152.24
X170.26Y-177.24
X174.5Y-116.1
X174.5Y-141.1
X174.5Y-166.1
X177.5Y-128.9
X177.5Y-153.9
X177.5Y-178.9
X181.4Y-123.0
X181.4Y-148.0
X181.4Y-173.0
T6
X138.0Y-103.5
X164.0Y-42.5
T0
M30
