G04 #@! TF.GenerationSoftware,KiCad,Pcbnew,6.0.1-79c1e3a40b~116~ubuntu20.04.1*
G04 #@! TF.CreationDate,2022-01-29T19:42:52-05:00*
G04 #@! TF.ProjectId,attenuverters_front,61747465-6e75-4766-9572-746572735f66,rev?*
G04 #@! TF.SameCoordinates,Original*
G04 #@! TF.FileFunction,Copper,L1,Top*
G04 #@! TF.FilePolarity,Positive*
%FSLAX46Y46*%
G04 Gerber Fmt 4.6, Leading zero omitted, Abs format (unit mm)*
G04 Created by KiCad (PCBNEW 6.0.1-79c1e3a40b~116~ubuntu20.04.1) date 2022-01-29 19:42:52*
%MOMM*%
%LPD*%
G01*
G04 APERTURE LIST*
G04 Aperture macros list*
%AMRoundRect*
0 Rectangle with rounded corners*
0 $1 Rounding radius*
0 $2 $3 $4 $5 $6 $7 $8 $9 X,Y pos of 4 corners*
0 Add a 4 corners polygon primitive as box body*
4,1,4,$2,$3,$4,$5,$6,$7,$8,$9,$2,$3,0*
0 Add four circle primitives for the rounded corners*
1,1,$1+$1,$2,$3*
1,1,$1+$1,$4,$5*
1,1,$1+$1,$6,$7*
1,1,$1+$1,$8,$9*
0 Add four rect primitives between the rounded corners*
20,1,$1+$1,$2,$3,$4,$5,0*
20,1,$1+$1,$4,$5,$6,$7,0*
20,1,$1+$1,$6,$7,$8,$9,0*
20,1,$1+$1,$8,$9,$2,$3,0*%
G04 Aperture macros list end*
G04 #@! TA.AperFunction,ComponentPad*
%ADD10R,1.500000X1.500000*%
G04 #@! TD*
G04 #@! TA.AperFunction,ComponentPad*
%ADD11R,2.500000X2.500000*%
G04 #@! TD*
G04 #@! TA.AperFunction,ComponentPad*
%ADD12C,2.500000*%
G04 #@! TD*
G04 #@! TA.AperFunction,ComponentPad*
%ADD13C,4.500001*%
G04 #@! TD*
G04 #@! TA.AperFunction,ComponentPad*
%ADD14R,4.500001X4.500001*%
G04 #@! TD*
G04 #@! TA.AperFunction,ComponentPad*
%ADD15C,4.500000*%
G04 #@! TD*
G04 #@! TA.AperFunction,ComponentPad*
%ADD16R,1.700000X1.700000*%
G04 #@! TD*
G04 #@! TA.AperFunction,ComponentPad*
%ADD17O,1.700000X1.700000*%
G04 #@! TD*
G04 #@! TA.AperFunction,ComponentPad*
%ADD18RoundRect,0.250000X0.850000X-0.620000X0.850000X0.620000X-0.850000X0.620000X-0.850000X-0.620000X0*%
G04 #@! TD*
G04 #@! TA.AperFunction,ComponentPad*
%ADD19O,2.200000X1.740000*%
G04 #@! TD*
G04 #@! TA.AperFunction,Conductor*
%ADD20C,0.250000*%
G04 #@! TD*
G04 APERTURE END LIST*
D10*
G04 #@! TO.P,TP4,1,1*
G04 #@! TO.N,Board_0-GND1*
X182079999Y-110129997D03*
G04 #@! TD*
D11*
G04 #@! TO.P,RV2,1,1*
G04 #@! TO.N,Board_0-GND1*
X147999999Y-97499997D03*
D12*
G04 #@! TO.P,RV2,2,2*
G04 #@! TO.N,Board_0-NONINV2_P*
X152999999Y-102499997D03*
G04 #@! TO.P,RV2,3,3*
G04 #@! TO.N,Board_0-INV2_P*
X147999999Y-27499997D03*
G04 #@! TD*
D13*
G04 #@! TO.P,J13,R*
G04 #@! TO.N,N/C*
X181399999Y-147999997D03*
G04 #@! TO.P,J13,RN*
X177499999Y-153899997D03*
D14*
G04 #@! TO.P,J13,S*
G04 #@! TO.N,Board_0-GND1*
X170259999Y-152239997D03*
D15*
G04 #@! TO.P,J13,T*
G04 #@! TO.N,Board_0-OUT~{SUM}_P*
X174499999Y-141099997D03*
G04 #@! TO.P,J13,TN*
G04 #@! TO.N,N/C*
X168599999Y-144999997D03*
G04 #@! TD*
D13*
G04 #@! TO.P,J4,R*
G04 #@! TO.N,N/C*
X156399999Y-122999997D03*
G04 #@! TO.P,J4,RN*
X152499999Y-128899997D03*
D14*
G04 #@! TO.P,J4,S*
G04 #@! TO.N,Board_0-GND1*
X145259999Y-127239997D03*
D15*
G04 #@! TO.P,J4,T*
G04 #@! TO.N,Board_0-INV2_P*
X149499999Y-116099997D03*
G04 #@! TO.P,J4,TN*
G04 #@! TO.N,N/C*
X143599999Y-119999997D03*
G04 #@! TD*
D13*
G04 #@! TO.P,J5,R*
G04 #@! TO.N,N/C*
X181399999Y-122999997D03*
G04 #@! TO.P,J5,RN*
X177499999Y-128899997D03*
D14*
G04 #@! TO.P,J5,S*
G04 #@! TO.N,Board_0-GND1*
X170259999Y-127239997D03*
D15*
G04 #@! TO.P,J5,T*
G04 #@! TO.N,Board_0-INV3_P*
X174499999Y-116099997D03*
G04 #@! TO.P,J5,TN*
G04 #@! TO.N,N/C*
X168599999Y-119999997D03*
G04 #@! TD*
D13*
G04 #@! TO.P,J11,R*
G04 #@! TO.N,N/C*
X181399999Y-172999997D03*
G04 #@! TO.P,J11,RN*
X177499999Y-178899997D03*
D14*
G04 #@! TO.P,J11,S*
G04 #@! TO.N,Board_0-GND1*
X170259999Y-177239997D03*
D15*
G04 #@! TO.P,J11,T*
G04 #@! TO.N,Board_0-OUT3_P*
X174499999Y-166099997D03*
G04 #@! TO.P,J11,TN*
G04 #@! TO.N,Board_0-SUM3_P*
X168599999Y-169999997D03*
G04 #@! TD*
D13*
G04 #@! TO.P,J3,R*
G04 #@! TO.N,N/C*
X131399999Y-122999997D03*
G04 #@! TO.P,J3,RN*
X127499999Y-128899997D03*
D14*
G04 #@! TO.P,J3,S*
G04 #@! TO.N,Board_0-GND1*
X120259999Y-127239997D03*
D15*
G04 #@! TO.P,J3,T*
G04 #@! TO.N,Board_0-Net-(J3-PadT)*
X124499999Y-116099997D03*
G04 #@! TO.P,J3,TN*
G04 #@! TO.N,N/C*
X118599999Y-119999997D03*
G04 #@! TD*
D13*
G04 #@! TO.P,J9,R*
G04 #@! TO.N,N/C*
X131399999Y-172999997D03*
G04 #@! TO.P,J9,RN*
X127499999Y-178899997D03*
D14*
G04 #@! TO.P,J9,S*
G04 #@! TO.N,Board_0-GND1*
X120259999Y-177239997D03*
D15*
G04 #@! TO.P,J9,T*
G04 #@! TO.N,Board_0-OUT1_P*
X124499999Y-166099997D03*
G04 #@! TO.P,J9,TN*
G04 #@! TO.N,Board_0-SUM1_P*
X118599999Y-169999997D03*
G04 #@! TD*
D11*
G04 #@! TO.P,RV3,1,1*
G04 #@! TO.N,Board_0-GND1*
X172999999Y-97499997D03*
D12*
G04 #@! TO.P,RV3,2,2*
G04 #@! TO.N,Board_0-NONINV3_P*
X177999999Y-102499997D03*
G04 #@! TO.P,RV3,3,3*
G04 #@! TO.N,Board_0-INV3_P*
X172999999Y-27499997D03*
G04 #@! TD*
D11*
G04 #@! TO.P,RV1,1,1*
G04 #@! TO.N,Board_0-GND1*
X122999999Y-97499997D03*
D12*
G04 #@! TO.P,RV1,2,2*
G04 #@! TO.N,Board_0-NONINV1_P*
X127999999Y-102499997D03*
G04 #@! TO.P,RV1,3,3*
G04 #@! TO.N,Board_0-INV1_P*
X122999999Y-27499997D03*
G04 #@! TD*
D13*
G04 #@! TO.P,J12,R*
G04 #@! TO.N,N/C*
X156399999Y-147999997D03*
G04 #@! TO.P,J12,RN*
X152499999Y-153899997D03*
D14*
G04 #@! TO.P,J12,S*
G04 #@! TO.N,Board_0-GND1*
X145259999Y-152239997D03*
D15*
G04 #@! TO.P,J12,T*
G04 #@! TO.N,Board_0-OUTSUM_P*
X149499999Y-141099997D03*
G04 #@! TO.P,J12,TN*
G04 #@! TO.N,N/C*
X143599999Y-144999997D03*
G04 #@! TD*
D13*
G04 #@! TO.P,J10,R*
G04 #@! TO.N,N/C*
X156399999Y-172999997D03*
G04 #@! TO.P,J10,RN*
X152499999Y-178899997D03*
D14*
G04 #@! TO.P,J10,S*
G04 #@! TO.N,Board_0-GND1*
X145259999Y-177239997D03*
D15*
G04 #@! TO.P,J10,T*
G04 #@! TO.N,Board_0-OUT2_P*
X149499999Y-166099997D03*
G04 #@! TO.P,J10,TN*
G04 #@! TO.N,Board_0-SUM2_P*
X143599999Y-169999997D03*
G04 #@! TD*
D16*
G04 #@! TO.P,J2,1,Pin_1*
G04 #@! TO.N,Board_0-GND1*
X130999999Y-135499997D03*
D17*
G04 #@! TO.P,J2,2,Pin_2*
G04 #@! TO.N,Board_0-10V_REF_P*
X133539999Y-135499997D03*
G04 #@! TO.P,J2,3,Pin_3*
G04 #@! TO.N,Board_0-NONINV1_P*
X136079999Y-135499997D03*
G04 #@! TO.P,J2,4,Pin_4*
G04 #@! TO.N,Board_0-INV1_P*
X138619999Y-135499997D03*
G04 #@! TO.P,J2,5,Pin_5*
G04 #@! TO.N,Board_0-SUM1_P*
X141159999Y-135499997D03*
G04 #@! TO.P,J2,6,Pin_6*
G04 #@! TO.N,Board_0-OUT1_P*
X143699999Y-135499997D03*
G04 #@! TO.P,J2,7,Pin_7*
G04 #@! TO.N,Board_0-NONINV2_P*
X146239999Y-135499997D03*
G04 #@! TO.P,J2,8,Pin_8*
G04 #@! TO.N,Board_0-INV2_P*
X148779999Y-135499997D03*
G04 #@! TO.P,J2,9,Pin_9*
G04 #@! TO.N,Board_0-OUTSUM_P*
X151319999Y-135499997D03*
G04 #@! TO.P,J2,10,Pin_10*
G04 #@! TO.N,Board_0-SUM2_P*
X153859999Y-135499997D03*
G04 #@! TO.P,J2,11,Pin_11*
G04 #@! TO.N,Board_0-OUT2_P*
X156399999Y-135499997D03*
G04 #@! TO.P,J2,12,Pin_12*
G04 #@! TO.N,Board_0-SUM3_P*
X158939999Y-135499997D03*
G04 #@! TO.P,J2,13,Pin_13*
G04 #@! TO.N,Board_0-OUT3_P*
X161479999Y-135499997D03*
G04 #@! TO.P,J2,14,Pin_14*
G04 #@! TO.N,Board_0-OUT~{SUM}_P*
X164019999Y-135499997D03*
G04 #@! TO.P,J2,15,Pin_15*
G04 #@! TO.N,Board_0-NONINV3_P*
X166559999Y-135499997D03*
G04 #@! TO.P,J2,16,Pin_16*
G04 #@! TO.N,Board_0-INV3_P*
X169099999Y-135499997D03*
G04 #@! TD*
D18*
G04 #@! TO.P,J6,1,Pin_1*
G04 #@! TO.N,Board_0-Net-(J3-PadT)*
X131999999Y-150499997D03*
D19*
G04 #@! TO.P,J6,2,Pin_2*
G04 #@! TO.N,Board_0-INV1_P*
X131999999Y-147959997D03*
G04 #@! TO.P,J6,3,Pin_3*
G04 #@! TO.N,Board_0-10V_REF_P*
X131999999Y-145419997D03*
G04 #@! TD*
D20*
G04 #@! TO.N,Board_0-10V_REF_P*
X131999999Y-145419997D02*
X133539999Y-143879997D01*
X133539999Y-143879997D02*
X133539999Y-135499997D01*
G04 #@! TO.N,Board_0-INV1_P*
X130985998Y-131226996D02*
X134083998Y-134324996D01*
X134174999Y-138015997D02*
X134174999Y-145784997D01*
X126046999Y-123635995D02*
X130985998Y-128574994D01*
X135515998Y-136674998D02*
X137444998Y-136674998D01*
X135515998Y-136674998D02*
X134174999Y-138015997D01*
X124903999Y-29403997D02*
X124903999Y-112692995D01*
X134715000Y-134935996D02*
X134715000Y-135874000D01*
X134104000Y-134324996D02*
X134715000Y-134935996D01*
X134715000Y-135874000D02*
X135515998Y-136674998D01*
X127075000Y-114863996D02*
X127075000Y-117335998D01*
X134174999Y-145784997D02*
X131999999Y-147959997D01*
X134083998Y-134324996D02*
X134104000Y-134324996D01*
X137444998Y-136674998D02*
X138619999Y-135499997D01*
X126046999Y-118363999D02*
X126046999Y-123635995D01*
X127075000Y-117335998D02*
X126046999Y-118363999D01*
X124903999Y-112692995D02*
X127075000Y-114863996D01*
X130985998Y-128574994D02*
X130985998Y-131226996D01*
X122999999Y-27499997D02*
X124903999Y-29403997D01*
G04 #@! TO.N,Board_0-INV2_P*
X155764999Y-109834997D02*
X155764999Y-35264997D01*
X155764999Y-35264997D02*
X147999999Y-27499997D01*
X149499999Y-116099997D02*
X155764999Y-109834997D01*
X148779999Y-116819997D02*
X149499999Y-116099997D01*
X148779999Y-135499997D02*
X148779999Y-116819997D01*
G04 #@! TO.N,Board_0-INV3_P*
X179640999Y-110958997D02*
X179640999Y-34140997D01*
X174499999Y-130099997D02*
X169099999Y-135499997D01*
X179640999Y-34140997D02*
X172999999Y-27499997D01*
X174499999Y-116099997D02*
X174499999Y-130099997D01*
X174499999Y-116099997D02*
X179640999Y-110958997D01*
G04 #@! TO.N,Board_0-NONINV1_P*
X136079999Y-110579997D02*
X127999999Y-102499997D01*
X136079999Y-135499997D02*
X136079999Y-110579997D01*
G04 #@! TO.N,Board_0-NONINV2_P*
X147885001Y-118296001D02*
X146874999Y-117285999D01*
X147885001Y-133854995D02*
X147885001Y-118296001D01*
X146874999Y-108624997D02*
X152999999Y-102499997D01*
X146239999Y-135499997D02*
X147885001Y-133854995D01*
X146874999Y-117285999D02*
X146874999Y-108624997D01*
G04 #@! TO.N,Board_0-NONINV3_P*
X177999999Y-102499997D02*
X166055999Y-114443997D01*
X166055999Y-121266999D02*
X166055999Y-125260995D01*
X166055999Y-114443997D02*
X166055999Y-118732995D01*
X166055999Y-118732995D02*
X166024998Y-118763996D01*
X166559999Y-125764995D02*
X166559999Y-135499997D01*
X166055999Y-125260995D02*
X166559999Y-125764995D01*
X166024998Y-121235998D02*
X166055999Y-121266999D01*
X166024998Y-118763996D02*
X166024998Y-121235998D01*
G04 #@! TO.N,Board_0-Net-(J3-PadT)*
X122885001Y-131534995D02*
X122885001Y-117714995D01*
X129856999Y-148356997D02*
X129856999Y-138506993D01*
X122885001Y-117714995D02*
X124499999Y-116099997D01*
X131999999Y-150499997D02*
X129856999Y-148356997D01*
X129856999Y-138506993D02*
X122885001Y-131534995D01*
G04 #@! TO.N,Board_0-OUT1_P*
X143699999Y-141088995D02*
X141024998Y-143763996D01*
X141024998Y-149574998D02*
X124499999Y-166099997D01*
X141024998Y-143763996D02*
X141024998Y-149574998D01*
X143699999Y-135499997D02*
X143699999Y-141088995D01*
G04 #@! TO.N,Board_0-OUT2_P*
X156399999Y-142297997D02*
X156399999Y-135499997D01*
X149924998Y-155135998D02*
X149924998Y-152663996D01*
X149926999Y-165672997D02*
X149926999Y-155137999D01*
X149926999Y-155137999D02*
X149924998Y-155135998D01*
X149499999Y-166099997D02*
X149926999Y-165672997D01*
X149926999Y-152661995D02*
X149926999Y-148770997D01*
X149924998Y-152663996D02*
X149926999Y-152661995D01*
X149926999Y-148770997D02*
X156399999Y-142297997D01*
G04 #@! TO.N,Board_0-OUT3_P*
X162245999Y-136265997D02*
X161479999Y-135499997D01*
X174499999Y-166099997D02*
X174499999Y-161655000D01*
X162245999Y-149401000D02*
X162245999Y-136265997D01*
X174499999Y-161655000D02*
X162245999Y-149401000D01*
G04 #@! TO.N,Board_0-OUTSUM_P*
X149499999Y-141099997D02*
X151319999Y-139279997D01*
X151319999Y-139279997D02*
X151319999Y-135499997D01*
G04 #@! TO.N,Board_0-OUT~{SUM}_P*
X174499999Y-141099997D02*
X169619999Y-141099997D01*
X169619999Y-141099997D02*
X164019999Y-135499997D01*
G04 #@! TO.N,Board_0-SUM1_P*
X125169999Y-161343997D02*
X122494999Y-161343997D01*
X122494999Y-161343997D02*
X118599999Y-165238997D01*
X138623999Y-142674997D02*
X138623999Y-147889997D01*
X141159999Y-140138997D02*
X138623999Y-142674997D01*
X141159999Y-135499997D02*
X141159999Y-140138997D01*
X138623999Y-147889997D02*
X125169999Y-161343997D01*
X118599999Y-165238997D02*
X118599999Y-169999997D01*
G04 #@! TO.N,Board_0-SUM2_P*
X148021999Y-148135997D02*
X153859999Y-142297997D01*
X148021999Y-154619587D02*
X148021999Y-148135997D01*
X143599999Y-169999997D02*
X143599999Y-159041587D01*
X143599999Y-159041587D02*
X148021999Y-154619587D01*
X153859999Y-142297997D02*
X153859999Y-135499997D01*
G04 #@! TO.N,Board_0-SUM3_P*
X168599999Y-169999997D02*
X159789998Y-161189996D01*
X159789998Y-136349996D02*
X158939999Y-135499997D01*
X159789998Y-161189996D02*
X159789998Y-136349996D01*
G04 #@! TD*
M02*
