G04 #@! TF.GenerationSoftware,KiCad,Pcbnew,6.0.1-79c1e3a40b~116~ubuntu20.04.1*
G04 #@! TF.CreationDate,2022-01-29T19:42:52-05:00*
G04 #@! TF.ProjectId,attenuverters_front,61747465-6e75-4766-9572-746572735f66,rev?*
G04 #@! TF.SameCoordinates,Original*
G04 #@! TF.FileFunction,Legend,Top*
G04 #@! TF.FilePolarity,Positive*
%FSLAX46Y46*%
G04 Gerber Fmt 4.6, Leading zero omitted, Abs format (unit mm)*
G04 Created by KiCad (PCBNEW 6.0.1-79c1e3a40b~116~ubuntu20.04.1) date 2022-01-29 19:42:52*
%MOMM*%
%LPD*%
G01*
G04 APERTURE LIST*
%ADD10C,0.150000*%
%ADD11C,0.300000*%
%ADD12C,0.120000*%
G04 APERTURE END LIST*
D10*
X169552379Y-138692973D02*
X168552379Y-138692973D01*
X168552379Y-138312020D02*
X168552379Y-137692973D01*
X168933332Y-138026306D01*
X168933332Y-137883449D01*
X168980951Y-137788211D01*
X169028570Y-137740592D01*
X169123808Y-137692973D01*
X169361903Y-137692973D01*
X169457141Y-137740592D01*
X169504760Y-137788211D01*
X169552379Y-137883449D01*
X169552379Y-138169163D01*
X169504760Y-138264401D01*
X169457141Y-138312020D01*
X141564760Y-139216782D02*
X141612379Y-139073925D01*
X141612379Y-138835830D01*
X141564760Y-138740592D01*
X141517141Y-138692973D01*
X141421903Y-138645354D01*
X141326665Y-138645354D01*
X141231427Y-138692973D01*
X141183808Y-138740592D01*
X141136189Y-138835830D01*
X141088570Y-139026306D01*
X141040951Y-139121544D01*
X140993332Y-139169163D01*
X140898094Y-139216782D01*
X140802856Y-139216782D01*
X140707618Y-139169163D01*
X140659999Y-139121544D01*
X140612379Y-139026306D01*
X140612379Y-138788211D01*
X140659999Y-138645354D01*
X141612379Y-137692973D02*
X141612379Y-138264401D01*
X141612379Y-137978687D02*
X140612379Y-137978687D01*
X140755237Y-138073925D01*
X140850475Y-138169163D01*
X140898094Y-138264401D01*
X136532379Y-139264401D02*
X135532379Y-139264401D01*
X136532379Y-138692973D01*
X135532379Y-138692973D01*
X136532379Y-137692973D02*
X136532379Y-138264401D01*
X136532379Y-137978687D02*
X135532379Y-137978687D01*
X135675237Y-138073925D01*
X135770475Y-138169163D01*
X135818094Y-138264401D01*
D11*
X133771427Y-110689997D02*
X134485713Y-110689997D01*
X133628570Y-111118568D02*
X134128570Y-109618568D01*
X134628570Y-111118568D01*
X134914284Y-110118568D02*
X135485713Y-110118568D01*
X135128570Y-109618568D02*
X135128570Y-110904282D01*
X135199999Y-111047139D01*
X135342856Y-111118568D01*
X135485713Y-111118568D01*
X135771427Y-110118568D02*
X136342856Y-110118568D01*
X135985713Y-109618568D02*
X135985713Y-110904282D01*
X136057141Y-111047139D01*
X136199999Y-111118568D01*
X136342856Y-111118568D01*
X137414284Y-111047139D02*
X137271427Y-111118568D01*
X136985713Y-111118568D01*
X136842856Y-111047139D01*
X136771427Y-110904282D01*
X136771427Y-110332854D01*
X136842856Y-110189997D01*
X136985713Y-110118568D01*
X137271427Y-110118568D01*
X137414284Y-110189997D01*
X137485713Y-110332854D01*
X137485713Y-110475711D01*
X136771427Y-110618568D01*
X138128570Y-110118568D02*
X138128570Y-111118568D01*
X138128570Y-110261425D02*
X138199999Y-110189997D01*
X138342856Y-110118568D01*
X138557141Y-110118568D01*
X138699999Y-110189997D01*
X138771427Y-110332854D01*
X138771427Y-111118568D01*
X140128570Y-110118568D02*
X140128570Y-111118568D01*
X139485713Y-110118568D02*
X139485713Y-110904282D01*
X139557141Y-111047139D01*
X139699999Y-111118568D01*
X139914284Y-111118568D01*
X140057141Y-111047139D01*
X140128570Y-110975711D01*
X140699999Y-110118568D02*
X141057141Y-111118568D01*
X141414284Y-110118568D01*
X142557141Y-111047139D02*
X142414284Y-111118568D01*
X142128570Y-111118568D01*
X141985713Y-111047139D01*
X141914284Y-110904282D01*
X141914284Y-110332854D01*
X141985713Y-110189997D01*
X142128570Y-110118568D01*
X142414284Y-110118568D01*
X142557141Y-110189997D01*
X142628570Y-110332854D01*
X142628570Y-110475711D01*
X141914284Y-110618568D01*
X143271427Y-111118568D02*
X143271427Y-110118568D01*
X143271427Y-110404282D02*
X143342856Y-110261425D01*
X143414284Y-110189997D01*
X143557141Y-110118568D01*
X143699999Y-110118568D01*
X143985713Y-110118568D02*
X144557141Y-110118568D01*
X144199999Y-109618568D02*
X144199999Y-110904282D01*
X144271427Y-111047139D01*
X144414284Y-111118568D01*
X144557141Y-111118568D01*
X145628570Y-111047139D02*
X145485713Y-111118568D01*
X145199999Y-111118568D01*
X145057141Y-111047139D01*
X144985713Y-110904282D01*
X144985713Y-110332854D01*
X145057141Y-110189997D01*
X145199999Y-110118568D01*
X145485713Y-110118568D01*
X145628570Y-110189997D01*
X145699999Y-110332854D01*
X145699999Y-110475711D01*
X144985713Y-110618568D01*
X146342856Y-111118568D02*
X146342856Y-110118568D01*
X146342856Y-110404282D02*
X146414284Y-110261425D01*
X146485713Y-110189997D01*
X146628570Y-110118568D01*
X146771427Y-110118568D01*
X147199999Y-111047139D02*
X147342856Y-111118568D01*
X147628570Y-111118568D01*
X147771427Y-111047139D01*
X147842856Y-110904282D01*
X147842856Y-110832854D01*
X147771427Y-110689997D01*
X147628570Y-110618568D01*
X147414284Y-110618568D01*
X147271427Y-110547139D01*
X147199999Y-110404282D01*
X147199999Y-110332854D01*
X147271427Y-110189997D01*
X147414284Y-110118568D01*
X147628570Y-110118568D01*
X147771427Y-110189997D01*
X149628570Y-110118568D02*
X149628570Y-111618568D01*
X149628570Y-110189997D02*
X149771427Y-110118568D01*
X150057141Y-110118568D01*
X150199999Y-110189997D01*
X150271427Y-110261425D01*
X150342856Y-110404282D01*
X150342856Y-110832854D01*
X150271427Y-110975711D01*
X150199999Y-111047139D01*
X150057141Y-111118568D01*
X149771427Y-111118568D01*
X149628570Y-111047139D01*
X151199999Y-111118568D02*
X151057141Y-111047139D01*
X150985713Y-110975711D01*
X150914284Y-110832854D01*
X150914284Y-110404282D01*
X150985713Y-110261425D01*
X151057141Y-110189997D01*
X151199999Y-110118568D01*
X151414284Y-110118568D01*
X151557141Y-110189997D01*
X151628570Y-110261425D01*
X151699999Y-110404282D01*
X151699999Y-110832854D01*
X151628570Y-110975711D01*
X151557141Y-111047139D01*
X151414284Y-111118568D01*
X151199999Y-111118568D01*
X152128570Y-110118568D02*
X152699999Y-110118568D01*
X152342856Y-109618568D02*
X152342856Y-110904282D01*
X152414284Y-111047139D01*
X152557141Y-111118568D01*
X152699999Y-111118568D01*
X153128570Y-111047139D02*
X153271427Y-111118568D01*
X153557141Y-111118568D01*
X153699999Y-111047139D01*
X153771427Y-110904282D01*
X153771427Y-110832854D01*
X153699999Y-110689997D01*
X153557141Y-110618568D01*
X153342856Y-110618568D01*
X153199999Y-110547139D01*
X153128570Y-110404282D01*
X153128570Y-110332854D01*
X153199999Y-110189997D01*
X153342856Y-110118568D01*
X153557141Y-110118568D01*
X153699999Y-110189997D01*
X155485713Y-109547139D02*
X154199999Y-111475711D01*
X155985713Y-110118568D02*
X155985713Y-111404282D01*
X155914284Y-111547139D01*
X155771427Y-111618568D01*
X155699999Y-111618568D01*
X155985713Y-109618568D02*
X155914284Y-109689997D01*
X155985713Y-109761425D01*
X156057141Y-109689997D01*
X155985713Y-109618568D01*
X155985713Y-109761425D01*
X157342856Y-111118568D02*
X157342856Y-110332854D01*
X157271427Y-110189997D01*
X157128570Y-110118568D01*
X156842856Y-110118568D01*
X156699999Y-110189997D01*
X157342856Y-111047139D02*
X157199999Y-111118568D01*
X156842856Y-111118568D01*
X156699999Y-111047139D01*
X156628570Y-110904282D01*
X156628570Y-110761425D01*
X156699999Y-110618568D01*
X156842856Y-110547139D01*
X157199999Y-110547139D01*
X157342856Y-110475711D01*
X158699999Y-111047139D02*
X158557141Y-111118568D01*
X158271427Y-111118568D01*
X158128570Y-111047139D01*
X158057141Y-110975711D01*
X157985713Y-110832854D01*
X157985713Y-110404282D01*
X158057141Y-110261425D01*
X158128570Y-110189997D01*
X158271427Y-110118568D01*
X158557141Y-110118568D01*
X158699999Y-110189997D01*
X159342856Y-111118568D02*
X159342856Y-109618568D01*
X159485713Y-110547139D02*
X159914284Y-111118568D01*
X159914284Y-110118568D02*
X159342856Y-110689997D01*
X160485713Y-111047139D02*
X160628570Y-111118568D01*
X160914284Y-111118568D01*
X161057141Y-111047139D01*
X161128570Y-110904282D01*
X161128570Y-110832854D01*
X161057141Y-110689997D01*
X160914284Y-110618568D01*
X160699999Y-110618568D01*
X160557141Y-110547139D01*
X160485713Y-110404282D01*
X160485713Y-110332854D01*
X160557141Y-110189997D01*
X160699999Y-110118568D01*
X160914284Y-110118568D01*
X161057141Y-110189997D01*
X162914284Y-111118568D02*
X162914284Y-109618568D01*
X162914284Y-110189997D02*
X163057141Y-110118568D01*
X163342856Y-110118568D01*
X163485713Y-110189997D01*
X163557141Y-110261425D01*
X163628570Y-110404282D01*
X163628570Y-110832854D01*
X163557141Y-110975711D01*
X163485713Y-111047139D01*
X163342856Y-111118568D01*
X163057141Y-111118568D01*
X162914284Y-111047139D01*
X164485713Y-111118568D02*
X164342856Y-111047139D01*
X164271427Y-110975711D01*
X164199999Y-110832854D01*
X164199999Y-110404282D01*
X164271427Y-110261425D01*
X164342856Y-110189997D01*
X164485713Y-110118568D01*
X164699999Y-110118568D01*
X164842856Y-110189997D01*
X164914284Y-110261425D01*
X164985713Y-110404282D01*
X164985713Y-110832854D01*
X164914284Y-110975711D01*
X164842856Y-111047139D01*
X164699999Y-111118568D01*
X164485713Y-111118568D01*
X166271427Y-111118568D02*
X166271427Y-110332854D01*
X166199999Y-110189997D01*
X166057141Y-110118568D01*
X165771427Y-110118568D01*
X165628570Y-110189997D01*
X166271427Y-111047139D02*
X166128570Y-111118568D01*
X165771427Y-111118568D01*
X165628570Y-111047139D01*
X165557141Y-110904282D01*
X165557141Y-110761425D01*
X165628570Y-110618568D01*
X165771427Y-110547139D01*
X166128570Y-110547139D01*
X166271427Y-110475711D01*
X166985713Y-111118568D02*
X166985713Y-110118568D01*
X166985713Y-110404282D02*
X167057141Y-110261425D01*
X167128570Y-110189997D01*
X167271427Y-110118568D01*
X167414284Y-110118568D01*
X168557141Y-111118568D02*
X168557141Y-109618568D01*
X168557141Y-111047139D02*
X168414284Y-111118568D01*
X168128570Y-111118568D01*
X167985713Y-111047139D01*
X167914284Y-110975711D01*
X167842856Y-110832854D01*
X167842856Y-110404282D01*
X167914284Y-110261425D01*
X167985713Y-110189997D01*
X168128570Y-110118568D01*
X168414284Y-110118568D01*
X168557141Y-110189997D01*
D10*
X154264760Y-139216782D02*
X154312379Y-139073925D01*
X154312379Y-138835830D01*
X154264760Y-138740592D01*
X154217141Y-138692973D01*
X154121903Y-138645354D01*
X154026665Y-138645354D01*
X153931427Y-138692973D01*
X153883808Y-138740592D01*
X153836189Y-138835830D01*
X153788570Y-139026306D01*
X153740951Y-139121544D01*
X153693332Y-139169163D01*
X153598094Y-139216782D01*
X153502856Y-139216782D01*
X153407618Y-139169163D01*
X153359999Y-139121544D01*
X153312379Y-139026306D01*
X153312379Y-138788211D01*
X153359999Y-138645354D01*
X153407618Y-138264401D02*
X153359999Y-138216782D01*
X153312379Y-138121544D01*
X153312379Y-137883449D01*
X153359999Y-137788211D01*
X153407618Y-137740592D01*
X153502856Y-137692973D01*
X153598094Y-137692973D01*
X153740951Y-137740592D01*
X154312379Y-138312020D01*
X154312379Y-137692973D01*
X143152379Y-139073925D02*
X143152379Y-138883449D01*
X143199999Y-138788211D01*
X143295237Y-138692973D01*
X143485713Y-138645354D01*
X143819046Y-138645354D01*
X144009522Y-138692973D01*
X144104760Y-138788211D01*
X144152379Y-138883449D01*
X144152379Y-139073925D01*
X144104760Y-139169163D01*
X144009522Y-139264401D01*
X143819046Y-139312020D01*
X143485713Y-139312020D01*
X143295237Y-139264401D01*
X143199999Y-139169163D01*
X143152379Y-139073925D01*
X144152379Y-137692973D02*
X144152379Y-138264401D01*
X144152379Y-137978687D02*
X143152379Y-137978687D01*
X143295237Y-138073925D01*
X143390475Y-138169163D01*
X143438094Y-138264401D01*
X149232379Y-138692973D02*
X148232379Y-138692973D01*
X148327618Y-138264401D02*
X148279999Y-138216782D01*
X148232379Y-138121544D01*
X148232379Y-137883449D01*
X148279999Y-137788211D01*
X148327618Y-137740592D01*
X148422856Y-137692973D01*
X148518094Y-137692973D01*
X148660951Y-137740592D01*
X149232379Y-138312020D01*
X149232379Y-137692973D01*
X151724760Y-138264401D02*
X151772379Y-138121544D01*
X151772379Y-137883449D01*
X151724760Y-137788211D01*
X151677141Y-137740592D01*
X151581903Y-137692973D01*
X151486665Y-137692973D01*
X151391427Y-137740592D01*
X151343808Y-137788211D01*
X151296189Y-137883449D01*
X151248570Y-138073925D01*
X151200951Y-138169163D01*
X151153332Y-138216782D01*
X151058094Y-138264401D01*
X150962856Y-138264401D01*
X150867618Y-138216782D01*
X150819999Y-138169163D01*
X150772379Y-138073925D01*
X150772379Y-137835830D01*
X150819999Y-137692973D01*
X130499999Y-137740592D02*
X130452379Y-137835830D01*
X130452379Y-137978687D01*
X130499999Y-138121544D01*
X130595237Y-138216782D01*
X130690475Y-138264401D01*
X130880951Y-138312020D01*
X131023808Y-138312020D01*
X131214284Y-138264401D01*
X131309522Y-138216782D01*
X131404760Y-138121544D01*
X131452379Y-137978687D01*
X131452379Y-137883449D01*
X131404760Y-137740592D01*
X131357141Y-137692973D01*
X131023808Y-137692973D01*
X131023808Y-137883449D01*
X159344760Y-139216782D02*
X159392379Y-139073925D01*
X159392379Y-138835830D01*
X159344760Y-138740592D01*
X159297141Y-138692973D01*
X159201903Y-138645354D01*
X159106665Y-138645354D01*
X159011427Y-138692973D01*
X158963808Y-138740592D01*
X158916189Y-138835830D01*
X158868570Y-139026306D01*
X158820951Y-139121544D01*
X158773332Y-139169163D01*
X158678094Y-139216782D01*
X158582856Y-139216782D01*
X158487618Y-139169163D01*
X158439999Y-139121544D01*
X158392379Y-139026306D01*
X158392379Y-138788211D01*
X158439999Y-138645354D01*
X158392379Y-138312020D02*
X158392379Y-137692973D01*
X158773332Y-138026306D01*
X158773332Y-137883449D01*
X158820951Y-137788211D01*
X158868570Y-137740592D01*
X158963808Y-137692973D01*
X159201903Y-137692973D01*
X159297141Y-137740592D01*
X159344760Y-137788211D01*
X159392379Y-137883449D01*
X159392379Y-138169163D01*
X159344760Y-138264401D01*
X159297141Y-138312020D01*
X167012379Y-139264401D02*
X166012379Y-139264401D01*
X167012379Y-138692973D01*
X166012379Y-138692973D01*
X166012379Y-138312020D02*
X166012379Y-137692973D01*
X166393332Y-138026306D01*
X166393332Y-137883449D01*
X166440951Y-137788211D01*
X166488570Y-137740592D01*
X166583808Y-137692973D01*
X166821903Y-137692973D01*
X166917141Y-137740592D01*
X166964760Y-137788211D01*
X167012379Y-137883449D01*
X167012379Y-138169163D01*
X166964760Y-138264401D01*
X166917141Y-138312020D01*
X163189999Y-138454877D02*
X163189999Y-137502497D01*
X164424760Y-138264401D02*
X164472379Y-138121544D01*
X164472379Y-137883449D01*
X164424760Y-137788211D01*
X164377141Y-137740592D01*
X164281903Y-137692973D01*
X164186665Y-137692973D01*
X164091427Y-137740592D01*
X164043808Y-137788211D01*
X163996189Y-137883449D01*
X163948570Y-138073925D01*
X163900951Y-138169163D01*
X163853332Y-138216782D01*
X163758094Y-138264401D01*
X163662856Y-138264401D01*
X163567618Y-138216782D01*
X163519999Y-138169163D01*
X163472379Y-138073925D01*
X163472379Y-137835830D01*
X163519999Y-137692973D01*
X160932379Y-139073925D02*
X160932379Y-138883449D01*
X160979999Y-138788211D01*
X161075237Y-138692973D01*
X161265713Y-138645354D01*
X161599046Y-138645354D01*
X161789522Y-138692973D01*
X161884760Y-138788211D01*
X161932379Y-138883449D01*
X161932379Y-139073925D01*
X161884760Y-139169163D01*
X161789522Y-139264401D01*
X161599046Y-139312020D01*
X161265713Y-139312020D01*
X161075237Y-139264401D01*
X160979999Y-139169163D01*
X160932379Y-139073925D01*
X160932379Y-138312020D02*
X160932379Y-137692973D01*
X161313332Y-138026306D01*
X161313332Y-137883449D01*
X161360951Y-137788211D01*
X161408570Y-137740592D01*
X161503808Y-137692973D01*
X161741903Y-137692973D01*
X161837141Y-137740592D01*
X161884760Y-137788211D01*
X161932379Y-137883449D01*
X161932379Y-138169163D01*
X161884760Y-138264401D01*
X161837141Y-138312020D01*
X133992379Y-138645354D02*
X133992379Y-139216782D01*
X133992379Y-138931068D02*
X132992379Y-138931068D01*
X133135237Y-139026306D01*
X133230475Y-139121544D01*
X133278094Y-139216782D01*
X132992379Y-138026306D02*
X132992379Y-137931068D01*
X133039999Y-137835830D01*
X133087618Y-137788211D01*
X133182856Y-137740592D01*
X133373332Y-137692973D01*
X133611427Y-137692973D01*
X133801903Y-137740592D01*
X133897141Y-137788211D01*
X133944760Y-137835830D01*
X133992379Y-137931068D01*
X133992379Y-138026306D01*
X133944760Y-138121544D01*
X133897141Y-138169163D01*
X133801903Y-138216782D01*
X133611427Y-138264401D01*
X133373332Y-138264401D01*
X133182856Y-138216782D01*
X133087618Y-138169163D01*
X133039999Y-138121544D01*
X132992379Y-138026306D01*
X139072379Y-138692973D02*
X138072379Y-138692973D01*
X139072379Y-137692973D02*
X139072379Y-138264401D01*
X139072379Y-137978687D02*
X138072379Y-137978687D01*
X138215237Y-138073925D01*
X138310475Y-138169163D01*
X138358094Y-138264401D01*
X146692379Y-139264401D02*
X145692379Y-139264401D01*
X146692379Y-138692973D01*
X145692379Y-138692973D01*
X145787618Y-138264401D02*
X145739999Y-138216782D01*
X145692379Y-138121544D01*
X145692379Y-137883449D01*
X145739999Y-137788211D01*
X145787618Y-137740592D01*
X145882856Y-137692973D01*
X145978094Y-137692973D01*
X146120951Y-137740592D01*
X146692379Y-138312020D01*
X146692379Y-137692973D01*
X155852379Y-139073925D02*
X155852379Y-138883449D01*
X155899999Y-138788211D01*
X155995237Y-138692973D01*
X156185713Y-138645354D01*
X156519046Y-138645354D01*
X156709522Y-138692973D01*
X156804760Y-138788211D01*
X156852379Y-138883449D01*
X156852379Y-139073925D01*
X156804760Y-139169163D01*
X156709522Y-139264401D01*
X156519046Y-139312020D01*
X156185713Y-139312020D01*
X155995237Y-139264401D01*
X155899999Y-139169163D01*
X155852379Y-139073925D01*
X155947618Y-138264401D02*
X155899999Y-138216782D01*
X155852379Y-138121544D01*
X155852379Y-137883449D01*
X155899999Y-137788211D01*
X155947618Y-137740592D01*
X156042856Y-137692973D01*
X156138094Y-137692973D01*
X156280951Y-137740592D01*
X156852379Y-138312020D01*
X156852379Y-137692973D01*
G04 #@! TO.C,TP4*
X178621284Y-111076425D02*
X178621284Y-110647854D01*
X179371284Y-110862139D02*
X178621284Y-110862139D01*
X179371284Y-110397854D02*
X178621284Y-110397854D01*
X178621284Y-110112139D01*
X178656999Y-110040711D01*
X178692713Y-110004997D01*
X178764141Y-109969282D01*
X178871284Y-109969282D01*
X178942713Y-110004997D01*
X178978427Y-110040711D01*
X179014141Y-110112139D01*
X179014141Y-110397854D01*
X178871284Y-109326425D02*
X179371284Y-109326425D01*
X178585570Y-109504997D02*
X179121284Y-109683568D01*
X179121284Y-109219282D01*
X179672999Y-110701425D02*
X179637284Y-110772854D01*
X179637284Y-110879997D01*
X179672999Y-110987139D01*
X179744427Y-111058568D01*
X179815856Y-111094282D01*
X179958713Y-111129997D01*
X180065856Y-111129997D01*
X180208713Y-111094282D01*
X180280141Y-111058568D01*
X180351570Y-110987139D01*
X180387284Y-110879997D01*
X180387284Y-110808568D01*
X180351570Y-110701425D01*
X180315856Y-110665711D01*
X180065856Y-110665711D01*
X180065856Y-110808568D01*
X180387284Y-110344282D02*
X179637284Y-110344282D01*
X180387284Y-109915711D01*
X179637284Y-109915711D01*
X180387284Y-109558568D02*
X179637284Y-109558568D01*
X179637284Y-109379997D01*
X179672999Y-109272854D01*
X179744427Y-109201425D01*
X179815856Y-109165711D01*
X179958713Y-109129997D01*
X180065856Y-109129997D01*
X180208713Y-109165711D01*
X180280141Y-109201425D01*
X180351570Y-109272854D01*
X180387284Y-109379997D01*
X180387284Y-109558568D01*
G04 #@! TO.C,RV2*
X142659284Y-61326425D02*
X142302141Y-61576425D01*
X142659284Y-61754997D02*
X141909284Y-61754997D01*
X141909284Y-61469282D01*
X141944999Y-61397854D01*
X141980713Y-61362139D01*
X142052141Y-61326425D01*
X142159284Y-61326425D01*
X142230713Y-61362139D01*
X142266427Y-61397854D01*
X142302141Y-61469282D01*
X142302141Y-61754997D01*
X141909284Y-61112139D02*
X142659284Y-60862139D01*
X141909284Y-60612139D01*
X141980713Y-60397854D02*
X141944999Y-60362139D01*
X141909284Y-60290711D01*
X141909284Y-60112139D01*
X141944999Y-60040711D01*
X141980713Y-60004997D01*
X142052141Y-59969282D01*
X142123570Y-59969282D01*
X142230713Y-60004997D01*
X142659284Y-60433568D01*
X142659284Y-59969282D01*
X142339284Y-53303568D02*
X142339284Y-53732139D01*
X142339284Y-53517854D02*
X141589284Y-53517854D01*
X141696427Y-53589282D01*
X141767856Y-53660711D01*
X141803570Y-53732139D01*
X141589284Y-52839282D02*
X141589284Y-52767854D01*
X141624999Y-52696425D01*
X141660713Y-52660711D01*
X141732141Y-52624997D01*
X141874999Y-52589282D01*
X142053570Y-52589282D01*
X142196427Y-52624997D01*
X142267856Y-52660711D01*
X142303570Y-52696425D01*
X142339284Y-52767854D01*
X142339284Y-52839282D01*
X142303570Y-52910711D01*
X142267856Y-52946425D01*
X142196427Y-52982139D01*
X142053570Y-53017854D01*
X141874999Y-53017854D01*
X141732141Y-52982139D01*
X141660713Y-52946425D01*
X141624999Y-52910711D01*
X141589284Y-52839282D01*
X141589284Y-52124997D02*
X141589284Y-52053568D01*
X141624999Y-51982139D01*
X141660713Y-51946425D01*
X141732141Y-51910711D01*
X141874999Y-51874997D01*
X142053570Y-51874997D01*
X142196427Y-51910711D01*
X142267856Y-51946425D01*
X142303570Y-51982139D01*
X142339284Y-52053568D01*
X142339284Y-52124997D01*
X142303570Y-52196425D01*
X142267856Y-52232139D01*
X142196427Y-52267854D01*
X142053570Y-52303568D01*
X141874999Y-52303568D01*
X141732141Y-52267854D01*
X141660713Y-52232139D01*
X141624999Y-52196425D01*
X141589284Y-52124997D01*
X142339284Y-51553568D02*
X141589284Y-51553568D01*
X142053570Y-51482139D02*
X142339284Y-51267854D01*
X141839284Y-51267854D02*
X142124999Y-51553568D01*
G04 #@! TO.C,J13*
X184089284Y-148107139D02*
X184624999Y-148107139D01*
X184732141Y-148142854D01*
X184803570Y-148214282D01*
X184839284Y-148321425D01*
X184839284Y-148392854D01*
X184839284Y-147357139D02*
X184839284Y-147785711D01*
X184839284Y-147571425D02*
X184089284Y-147571425D01*
X184196427Y-147642854D01*
X184267856Y-147714282D01*
X184303570Y-147785711D01*
X184089284Y-147107139D02*
X184089284Y-146642854D01*
X184374999Y-146892854D01*
X184374999Y-146785711D01*
X184410713Y-146714282D01*
X184446427Y-146678568D01*
X184517856Y-146642854D01*
X184696427Y-146642854D01*
X184767856Y-146678568D01*
X184803570Y-146714282D01*
X184839284Y-146785711D01*
X184839284Y-146999997D01*
X184803570Y-147071425D01*
X184767856Y-147107139D01*
G04 #@! TO.C,J4*
X159089284Y-122749997D02*
X159624999Y-122749997D01*
X159732141Y-122785711D01*
X159803570Y-122857139D01*
X159839284Y-122964282D01*
X159839284Y-123035711D01*
X159339284Y-122071425D02*
X159839284Y-122071425D01*
X159053570Y-122249997D02*
X159589284Y-122428568D01*
X159589284Y-121964282D01*
G04 #@! TO.C,J5*
X184089284Y-122749997D02*
X184624999Y-122749997D01*
X184732141Y-122785711D01*
X184803570Y-122857139D01*
X184839284Y-122964282D01*
X184839284Y-123035711D01*
X184089284Y-122035711D02*
X184089284Y-122392854D01*
X184446427Y-122428568D01*
X184410713Y-122392854D01*
X184374999Y-122321425D01*
X184374999Y-122142854D01*
X184410713Y-122071425D01*
X184446427Y-122035711D01*
X184517856Y-121999997D01*
X184696427Y-121999997D01*
X184767856Y-122035711D01*
X184803570Y-122071425D01*
X184839284Y-122142854D01*
X184839284Y-122321425D01*
X184803570Y-122392854D01*
X184767856Y-122428568D01*
G04 #@! TO.C,J11*
X184089284Y-173107139D02*
X184624999Y-173107139D01*
X184732141Y-173142854D01*
X184803570Y-173214282D01*
X184839284Y-173321425D01*
X184839284Y-173392854D01*
X184839284Y-172357139D02*
X184839284Y-172785711D01*
X184839284Y-172571425D02*
X184089284Y-172571425D01*
X184196427Y-172642854D01*
X184267856Y-172714282D01*
X184303570Y-172785711D01*
X184839284Y-171642854D02*
X184839284Y-172071425D01*
X184839284Y-171857139D02*
X184089284Y-171857139D01*
X184196427Y-171928568D01*
X184267856Y-171999997D01*
X184303570Y-172071425D01*
G04 #@! TO.C,J3*
X134089284Y-122749997D02*
X134624999Y-122749997D01*
X134732141Y-122785711D01*
X134803570Y-122857139D01*
X134839284Y-122964282D01*
X134839284Y-123035711D01*
X134089284Y-122464282D02*
X134089284Y-121999997D01*
X134374999Y-122249997D01*
X134374999Y-122142854D01*
X134410713Y-122071425D01*
X134446427Y-122035711D01*
X134517856Y-121999997D01*
X134696427Y-121999997D01*
X134767856Y-122035711D01*
X134803570Y-122071425D01*
X134839284Y-122142854D01*
X134839284Y-122357139D01*
X134803570Y-122428568D01*
X134767856Y-122464282D01*
G04 #@! TO.C,J9*
X134089284Y-172749997D02*
X134624999Y-172749997D01*
X134732141Y-172785711D01*
X134803570Y-172857139D01*
X134839284Y-172964282D01*
X134839284Y-173035711D01*
X134839284Y-172357139D02*
X134839284Y-172214282D01*
X134803570Y-172142854D01*
X134767856Y-172107139D01*
X134660713Y-172035711D01*
X134517856Y-171999997D01*
X134232141Y-171999997D01*
X134160713Y-172035711D01*
X134124999Y-172071425D01*
X134089284Y-172142854D01*
X134089284Y-172285711D01*
X134124999Y-172357139D01*
X134160713Y-172392854D01*
X134232141Y-172428568D01*
X134410713Y-172428568D01*
X134482141Y-172392854D01*
X134517856Y-172357139D01*
X134553570Y-172285711D01*
X134553570Y-172142854D01*
X134517856Y-172071425D01*
X134482141Y-172035711D01*
X134410713Y-171999997D01*
G04 #@! TO.C,RV3*
X167659284Y-61326425D02*
X167302141Y-61576425D01*
X167659284Y-61754997D02*
X166909284Y-61754997D01*
X166909284Y-61469282D01*
X166944999Y-61397854D01*
X166980713Y-61362139D01*
X167052141Y-61326425D01*
X167159284Y-61326425D01*
X167230713Y-61362139D01*
X167266427Y-61397854D01*
X167302141Y-61469282D01*
X167302141Y-61754997D01*
X166909284Y-61112139D02*
X167659284Y-60862139D01*
X166909284Y-60612139D01*
X166909284Y-60433568D02*
X166909284Y-59969282D01*
X167194999Y-60219282D01*
X167194999Y-60112139D01*
X167230713Y-60040711D01*
X167266427Y-60004997D01*
X167337856Y-59969282D01*
X167516427Y-59969282D01*
X167587856Y-60004997D01*
X167623570Y-60040711D01*
X167659284Y-60112139D01*
X167659284Y-60326425D01*
X167623570Y-60397854D01*
X167587856Y-60433568D01*
X167339284Y-53303568D02*
X167339284Y-53732139D01*
X167339284Y-53517854D02*
X166589284Y-53517854D01*
X166696427Y-53589282D01*
X166767856Y-53660711D01*
X166803570Y-53732139D01*
X166589284Y-52839282D02*
X166589284Y-52767854D01*
X166624999Y-52696425D01*
X166660713Y-52660711D01*
X166732141Y-52624997D01*
X166874999Y-52589282D01*
X167053570Y-52589282D01*
X167196427Y-52624997D01*
X167267856Y-52660711D01*
X167303570Y-52696425D01*
X167339284Y-52767854D01*
X167339284Y-52839282D01*
X167303570Y-52910711D01*
X167267856Y-52946425D01*
X167196427Y-52982139D01*
X167053570Y-53017854D01*
X166874999Y-53017854D01*
X166732141Y-52982139D01*
X166660713Y-52946425D01*
X166624999Y-52910711D01*
X166589284Y-52839282D01*
X166589284Y-52124997D02*
X166589284Y-52053568D01*
X166624999Y-51982139D01*
X166660713Y-51946425D01*
X166732141Y-51910711D01*
X166874999Y-51874997D01*
X167053570Y-51874997D01*
X167196427Y-51910711D01*
X167267856Y-51946425D01*
X167303570Y-51982139D01*
X167339284Y-52053568D01*
X167339284Y-52124997D01*
X167303570Y-52196425D01*
X167267856Y-52232139D01*
X167196427Y-52267854D01*
X167053570Y-52303568D01*
X166874999Y-52303568D01*
X166732141Y-52267854D01*
X166660713Y-52232139D01*
X166624999Y-52196425D01*
X166589284Y-52124997D01*
X167339284Y-51553568D02*
X166589284Y-51553568D01*
X167053570Y-51482139D02*
X167339284Y-51267854D01*
X166839284Y-51267854D02*
X167124999Y-51553568D01*
G04 #@! TO.C,RV1*
X117659284Y-61326425D02*
X117302141Y-61576425D01*
X117659284Y-61754997D02*
X116909284Y-61754997D01*
X116909284Y-61469282D01*
X116944999Y-61397854D01*
X116980713Y-61362139D01*
X117052141Y-61326425D01*
X117159284Y-61326425D01*
X117230713Y-61362139D01*
X117266427Y-61397854D01*
X117302141Y-61469282D01*
X117302141Y-61754997D01*
X116909284Y-61112139D02*
X117659284Y-60862139D01*
X116909284Y-60612139D01*
X117659284Y-59969282D02*
X117659284Y-60397854D01*
X117659284Y-60183568D02*
X116909284Y-60183568D01*
X117016427Y-60254997D01*
X117087856Y-60326425D01*
X117123570Y-60397854D01*
X117339284Y-53303568D02*
X117339284Y-53732139D01*
X117339284Y-53517854D02*
X116589284Y-53517854D01*
X116696427Y-53589282D01*
X116767856Y-53660711D01*
X116803570Y-53732139D01*
X116589284Y-52839282D02*
X116589284Y-52767854D01*
X116624999Y-52696425D01*
X116660713Y-52660711D01*
X116732141Y-52624997D01*
X116874999Y-52589282D01*
X117053570Y-52589282D01*
X117196427Y-52624997D01*
X117267856Y-52660711D01*
X117303570Y-52696425D01*
X117339284Y-52767854D01*
X117339284Y-52839282D01*
X117303570Y-52910711D01*
X117267856Y-52946425D01*
X117196427Y-52982139D01*
X117053570Y-53017854D01*
X116874999Y-53017854D01*
X116732141Y-52982139D01*
X116660713Y-52946425D01*
X116624999Y-52910711D01*
X116589284Y-52839282D01*
X116589284Y-52124997D02*
X116589284Y-52053568D01*
X116624999Y-51982139D01*
X116660713Y-51946425D01*
X116732141Y-51910711D01*
X116874999Y-51874997D01*
X117053570Y-51874997D01*
X117196427Y-51910711D01*
X117267856Y-51946425D01*
X117303570Y-51982139D01*
X117339284Y-52053568D01*
X117339284Y-52124997D01*
X117303570Y-52196425D01*
X117267856Y-52232139D01*
X117196427Y-52267854D01*
X117053570Y-52303568D01*
X116874999Y-52303568D01*
X116732141Y-52267854D01*
X116660713Y-52232139D01*
X116624999Y-52196425D01*
X116589284Y-52124997D01*
X117339284Y-51553568D02*
X116589284Y-51553568D01*
X117053570Y-51482139D02*
X117339284Y-51267854D01*
X116839284Y-51267854D02*
X117124999Y-51553568D01*
G04 #@! TO.C,J12*
X159089284Y-148107139D02*
X159624999Y-148107139D01*
X159732141Y-148142854D01*
X159803570Y-148214282D01*
X159839284Y-148321425D01*
X159839284Y-148392854D01*
X159839284Y-147357139D02*
X159839284Y-147785711D01*
X159839284Y-147571425D02*
X159089284Y-147571425D01*
X159196427Y-147642854D01*
X159267856Y-147714282D01*
X159303570Y-147785711D01*
X159160713Y-147071425D02*
X159124999Y-147035711D01*
X159089284Y-146964282D01*
X159089284Y-146785711D01*
X159124999Y-146714282D01*
X159160713Y-146678568D01*
X159232141Y-146642854D01*
X159303570Y-146642854D01*
X159410713Y-146678568D01*
X159839284Y-147107139D01*
X159839284Y-146642854D01*
G04 #@! TO.C,J10*
X159089284Y-173107139D02*
X159624999Y-173107139D01*
X159732141Y-173142854D01*
X159803570Y-173214282D01*
X159839284Y-173321425D01*
X159839284Y-173392854D01*
X159839284Y-172357139D02*
X159839284Y-172785711D01*
X159839284Y-172571425D02*
X159089284Y-172571425D01*
X159196427Y-172642854D01*
X159267856Y-172714282D01*
X159303570Y-172785711D01*
X159089284Y-171892854D02*
X159089284Y-171821425D01*
X159124999Y-171749997D01*
X159160713Y-171714282D01*
X159232141Y-171678568D01*
X159374999Y-171642854D01*
X159553570Y-171642854D01*
X159696427Y-171678568D01*
X159767856Y-171714282D01*
X159803570Y-171749997D01*
X159839284Y-171821425D01*
X159839284Y-171892854D01*
X159803570Y-171964282D01*
X159767856Y-171999997D01*
X159696427Y-172035711D01*
X159553570Y-172071425D01*
X159374999Y-172071425D01*
X159232141Y-172035711D01*
X159160713Y-171999997D01*
X159124999Y-171964282D01*
X159089284Y-171892854D01*
D12*
G04 #@! TO.C,TP4*
X181129999Y-111079997D02*
X181129999Y-109179997D01*
X183029999Y-111079997D02*
X181129999Y-111079997D01*
X181129999Y-109179997D02*
X183029999Y-109179997D01*
X183029999Y-109179997D02*
X183029999Y-111079997D01*
G04 #@! TO.C,RV2*
X149999999Y-92499997D02*
X150749999Y-91749997D01*
X149249999Y-33249997D02*
X149999999Y-32499997D01*
X143629999Y-106719997D02*
X143629999Y-18279997D01*
X149999999Y-92499997D02*
X149999999Y-32499997D01*
X147499999Y-99584997D02*
X148499999Y-99584997D01*
X143629999Y-106719997D02*
X156369999Y-106719997D01*
X143629999Y-18279997D02*
X156369999Y-18279997D01*
X147999999Y-99084997D02*
X147499999Y-99584997D01*
X148499999Y-32499997D02*
X151499999Y-32499997D01*
X149219999Y-91779997D02*
X149999999Y-92499997D01*
X148499999Y-92499997D02*
X151499999Y-92499997D01*
X156369999Y-106719997D02*
X156369999Y-18279997D01*
X148499999Y-99584997D02*
X147999999Y-99084997D01*
X149999999Y-32499997D02*
X150749999Y-33249997D01*
G04 #@! TO.C,J13*
X182899999Y-155349997D02*
X179699999Y-155349997D01*
X169149999Y-155349997D02*
X168559999Y-154609997D01*
X175399999Y-155349997D02*
X169199999Y-155349997D01*
X182899999Y-149999997D02*
X182899999Y-155349997D01*
X167909999Y-153789997D02*
X167149999Y-152849997D01*
X167149999Y-142999997D02*
X167149999Y-139599997D01*
X182899999Y-139599997D02*
X182899999Y-145999997D01*
X167149999Y-152849997D02*
X167149999Y-146999997D01*
X167149999Y-139599997D02*
X172499999Y-139599997D01*
X176499999Y-139599997D02*
X182899999Y-139599997D01*
X169199999Y-155349997D02*
X169149999Y-155349997D01*
G04 #@! TO.C,J4*
X142149999Y-114599997D02*
X147499999Y-114599997D01*
X157899999Y-114599997D02*
X157899999Y-120999997D01*
X151499999Y-114599997D02*
X157899999Y-114599997D01*
X142149999Y-117999997D02*
X142149999Y-114599997D01*
X142909999Y-128789997D02*
X142149999Y-127849997D01*
X157899999Y-124999997D02*
X157899999Y-130349997D01*
X142149999Y-127849997D02*
X142149999Y-121999997D01*
X157899999Y-130349997D02*
X154699999Y-130349997D01*
X150399999Y-130349997D02*
X144199999Y-130349997D01*
X144149999Y-130349997D02*
X143559999Y-129609997D01*
X144199999Y-130349997D02*
X144149999Y-130349997D01*
G04 #@! TO.C,J5*
X176499999Y-114599997D02*
X182899999Y-114599997D01*
X169199999Y-130349997D02*
X169149999Y-130349997D01*
X175399999Y-130349997D02*
X169199999Y-130349997D01*
X167149999Y-114599997D02*
X172499999Y-114599997D01*
X182899999Y-114599997D02*
X182899999Y-120999997D01*
X169149999Y-130349997D02*
X168559999Y-129609997D01*
X182899999Y-124999997D02*
X182899999Y-130349997D01*
X182899999Y-130349997D02*
X179699999Y-130349997D01*
X167149999Y-117999997D02*
X167149999Y-114599997D01*
X167909999Y-128789997D02*
X167149999Y-127849997D01*
X167149999Y-127849997D02*
X167149999Y-121999997D01*
G04 #@! TO.C,J11*
X167909999Y-178789997D02*
X167149999Y-177849997D01*
X176499999Y-164599997D02*
X182899999Y-164599997D01*
X182899999Y-174999997D02*
X182899999Y-180349997D01*
X167149999Y-164599997D02*
X172499999Y-164599997D01*
X182899999Y-180349997D02*
X179699999Y-180349997D01*
X175399999Y-180349997D02*
X169199999Y-180349997D01*
X167149999Y-177849997D02*
X167149999Y-171999997D01*
X182899999Y-164599997D02*
X182899999Y-170999997D01*
X169199999Y-180349997D02*
X169149999Y-180349997D01*
X169149999Y-180349997D02*
X168559999Y-179609997D01*
X167149999Y-167999997D02*
X167149999Y-164599997D01*
G04 #@! TO.C,J3*
X119149999Y-130349997D02*
X118559999Y-129609997D01*
X132899999Y-130349997D02*
X129699999Y-130349997D01*
X117909999Y-128789997D02*
X117149999Y-127849997D01*
X132899999Y-114599997D02*
X132899999Y-120999997D01*
X117149999Y-114599997D02*
X122499999Y-114599997D01*
X119199999Y-130349997D02*
X119149999Y-130349997D01*
X125399999Y-130349997D02*
X119199999Y-130349997D01*
X126499999Y-114599997D02*
X132899999Y-114599997D01*
X132899999Y-124999997D02*
X132899999Y-130349997D01*
X117149999Y-127849997D02*
X117149999Y-121999997D01*
X117149999Y-117999997D02*
X117149999Y-114599997D01*
G04 #@! TO.C,J9*
X117149999Y-167999997D02*
X117149999Y-164599997D01*
X132899999Y-180349997D02*
X129699999Y-180349997D01*
X117149999Y-177849997D02*
X117149999Y-171999997D01*
X119149999Y-180349997D02*
X118559999Y-179609997D01*
X119199999Y-180349997D02*
X119149999Y-180349997D01*
X117909999Y-178789997D02*
X117149999Y-177849997D01*
X117149999Y-164599997D02*
X122499999Y-164599997D01*
X126499999Y-164599997D02*
X132899999Y-164599997D01*
X132899999Y-174999997D02*
X132899999Y-180349997D01*
X125399999Y-180349997D02*
X119199999Y-180349997D01*
X132899999Y-164599997D02*
X132899999Y-170999997D01*
G04 #@! TO.C,RV3*
X174249999Y-33249997D02*
X174999999Y-32499997D01*
X168629999Y-18279997D02*
X181369999Y-18279997D01*
X174219999Y-91779997D02*
X174999999Y-92499997D01*
X173499999Y-92499997D02*
X176499999Y-92499997D01*
X172499999Y-99584997D02*
X173499999Y-99584997D01*
X174999999Y-92499997D02*
X174999999Y-32499997D01*
X174999999Y-32499997D02*
X175749999Y-33249997D01*
X173499999Y-32499997D02*
X176499999Y-32499997D01*
X181369999Y-106719997D02*
X181369999Y-18279997D01*
X172999999Y-99084997D02*
X172499999Y-99584997D01*
X173499999Y-99584997D02*
X172999999Y-99084997D01*
X168629999Y-106719997D02*
X181369999Y-106719997D01*
X168629999Y-106719997D02*
X168629999Y-18279997D01*
X174999999Y-92499997D02*
X175749999Y-91749997D01*
G04 #@! TO.C,RV1*
X122499999Y-99584997D02*
X123499999Y-99584997D01*
X124999999Y-92499997D02*
X125749999Y-91749997D01*
X124999999Y-92499997D02*
X124999999Y-32499997D01*
X118629999Y-106719997D02*
X131369999Y-106719997D01*
X124249999Y-33249997D02*
X124999999Y-32499997D01*
X123499999Y-99584997D02*
X122999999Y-99084997D01*
X123499999Y-92499997D02*
X126499999Y-92499997D01*
X124999999Y-32499997D02*
X125749999Y-33249997D01*
X123499999Y-32499997D02*
X126499999Y-32499997D01*
X122999999Y-99084997D02*
X122499999Y-99584997D01*
X118629999Y-106719997D02*
X118629999Y-18279997D01*
X131369999Y-106719997D02*
X131369999Y-18279997D01*
X118629999Y-18279997D02*
X131369999Y-18279997D01*
X124219999Y-91779997D02*
X124999999Y-92499997D01*
G04 #@! TO.C,J12*
X142149999Y-142999997D02*
X142149999Y-139599997D01*
X157899999Y-149999997D02*
X157899999Y-155349997D01*
X144199999Y-155349997D02*
X144149999Y-155349997D01*
X142149999Y-139599997D02*
X147499999Y-139599997D01*
X151499999Y-139599997D02*
X157899999Y-139599997D01*
X144149999Y-155349997D02*
X143559999Y-154609997D01*
X142149999Y-152849997D02*
X142149999Y-146999997D01*
X142909999Y-153789997D02*
X142149999Y-152849997D01*
X150399999Y-155349997D02*
X144199999Y-155349997D01*
X157899999Y-155349997D02*
X154699999Y-155349997D01*
X157899999Y-139599997D02*
X157899999Y-145999997D01*
G04 #@! TO.C,J10*
X144149999Y-180349997D02*
X143559999Y-179609997D01*
X142149999Y-164599997D02*
X147499999Y-164599997D01*
X142149999Y-167999997D02*
X142149999Y-164599997D01*
X144199999Y-180349997D02*
X144149999Y-180349997D01*
X157899999Y-164599997D02*
X157899999Y-170999997D01*
X142909999Y-178789997D02*
X142149999Y-177849997D01*
X157899999Y-180349997D02*
X154699999Y-180349997D01*
X142149999Y-177849997D02*
X142149999Y-171999997D01*
X151499999Y-164599997D02*
X157899999Y-164599997D01*
X150399999Y-180349997D02*
X144199999Y-180349997D01*
X157899999Y-174999997D02*
X157899999Y-180349997D01*
G04 #@! TD*
M02*
