G04 #@! TF.GenerationSoftware,KiCad,Pcbnew,6.0.2-378541a8eb~116~ubuntu20.04.1*
G04 #@! TF.CreationDate,2022-03-12T17:06:17-05:00*
G04 #@! TF.ProjectId,attenuverters_panel,61747465-6e75-4766-9572-746572735f70,rev?*
G04 #@! TF.SameCoordinates,Original*
G04 #@! TF.FileFunction,Copper,L2,Bot*
G04 #@! TF.FilePolarity,Positive*
%FSLAX46Y46*%
G04 Gerber Fmt 4.6, Leading zero omitted, Abs format (unit mm)*
G04 Created by KiCad (PCBNEW 6.0.2-378541a8eb~116~ubuntu20.04.1) date 2022-03-12 17:06:17*
%MOMM*%
%LPD*%
G01*
G04 APERTURE LIST*
G04 #@! TA.AperFunction,ComponentPad*
%ADD10O,6.800000X4.000000*%
G04 #@! TD*
G04 #@! TA.AperFunction,ComponentPad*
%ADD11C,9.000000*%
G04 #@! TD*
G04 #@! TA.AperFunction,ComponentPad*
%ADD12C,14.000000*%
G04 #@! TD*
G04 APERTURE END LIST*
D10*
G04 #@! TO.P,H12,1*
G04 #@! TO.N,GND*
X86700000Y-204600000D03*
X86700000Y-10600000D03*
G04 #@! TD*
D11*
G04 #@! TO.P,H7,1*
G04 #@! TO.N,GND*
X28600000Y-157600000D03*
G04 #@! TD*
D12*
G04 #@! TO.P,H1,1*
G04 #@! TO.N,GND*
X28600000Y-132600000D03*
G04 #@! TD*
D10*
G04 #@! TO.P,H9,1*
G04 #@! TO.N,GND*
X20500000Y-204600000D03*
X20500000Y-10600000D03*
G04 #@! TD*
D12*
G04 #@! TO.P,H2,1*
G04 #@! TO.N,GND*
X28600000Y-182600000D03*
G04 #@! TD*
G04 #@! TO.P,H3,1*
G04 #@! TO.N,GND*
X53600000Y-157600000D03*
G04 #@! TD*
G04 #@! TO.P,H4,1*
G04 #@! TO.N,GND*
X53600000Y-182600000D03*
G04 #@! TD*
G04 #@! TO.P,H5,1*
G04 #@! TO.N,GND*
X78600000Y-157600000D03*
G04 #@! TD*
G04 #@! TO.P,H6,1*
G04 #@! TO.N,GND*
X78600000Y-182600000D03*
G04 #@! TD*
G04 #@! TO.P,H13,1*
G04 #@! TO.N,GND*
X53600000Y-132568200D03*
G04 #@! TD*
G04 #@! TO.P,H14,1*
G04 #@! TO.N,GND*
X78600000Y-132600000D03*
G04 #@! TD*
G04 #@! TA.AperFunction,Conductor*
G04 #@! TO.N,GND*
G36*
X84209823Y-8128002D02*
G01*
X84256316Y-8181658D01*
X84266420Y-8251932D01*
X84236926Y-8316512D01*
X84195350Y-8348008D01*
X84092959Y-8396189D01*
X84086026Y-8400001D01*
X83826271Y-8564847D01*
X83819868Y-8569498D01*
X83582813Y-8765607D01*
X83577046Y-8771023D01*
X83366443Y-8995293D01*
X83361404Y-9001384D01*
X83180570Y-9250281D01*
X83176330Y-9256961D01*
X83028110Y-9526572D01*
X83024753Y-9533707D01*
X82911492Y-9819770D01*
X82909047Y-9827296D01*
X82832538Y-10125279D01*
X82831055Y-10133050D01*
X82806425Y-10328026D01*
X82808728Y-10342306D01*
X82821720Y-10346000D01*
X86828000Y-10346000D01*
X86896121Y-10366002D01*
X86942614Y-10419658D01*
X86954000Y-10472000D01*
X86954000Y-13089885D01*
X86958475Y-13105124D01*
X86959865Y-13106329D01*
X86967548Y-13108000D01*
X88176829Y-13108000D01*
X88180820Y-13107874D01*
X88410994Y-13093393D01*
X88418855Y-13092400D01*
X88721046Y-13034754D01*
X88728723Y-13032783D01*
X89021309Y-12937716D01*
X89028672Y-12934801D01*
X89307041Y-12803811D01*
X89313974Y-12799999D01*
X89573729Y-12635153D01*
X89580132Y-12630502D01*
X89817187Y-12434393D01*
X89822954Y-12428977D01*
X90033557Y-12204707D01*
X90038596Y-12198616D01*
X90219430Y-11949719D01*
X90223670Y-11943039D01*
X90355585Y-11703086D01*
X90405931Y-11653027D01*
X90475348Y-11638134D01*
X90541797Y-11663135D01*
X90584181Y-11720092D01*
X90592000Y-11763787D01*
X90592000Y-203436213D01*
X90571998Y-203504334D01*
X90518342Y-203550827D01*
X90448068Y-203560931D01*
X90383488Y-203531437D01*
X90355585Y-203496914D01*
X90223670Y-203256961D01*
X90219430Y-203250281D01*
X90038596Y-203001384D01*
X90033557Y-202995293D01*
X89822954Y-202771023D01*
X89817187Y-202765607D01*
X89580132Y-202569498D01*
X89573729Y-202564847D01*
X89313974Y-202400001D01*
X89307041Y-202396189D01*
X89028672Y-202265199D01*
X89021309Y-202262284D01*
X88728723Y-202167217D01*
X88721046Y-202165246D01*
X88418855Y-202107600D01*
X88410994Y-202106607D01*
X88180820Y-202092126D01*
X88176829Y-202092000D01*
X86972115Y-202092000D01*
X86956876Y-202096475D01*
X86955671Y-202097865D01*
X86954000Y-202105548D01*
X86954000Y-204728000D01*
X86933998Y-204796121D01*
X86880342Y-204842614D01*
X86828000Y-204854000D01*
X82822269Y-204854000D01*
X82808392Y-204858075D01*
X82806355Y-204871426D01*
X82831055Y-205066950D01*
X82832538Y-205074721D01*
X82909047Y-205372704D01*
X82911492Y-205380230D01*
X83024753Y-205666293D01*
X83028110Y-205673428D01*
X83176330Y-205943039D01*
X83180570Y-205949719D01*
X83361404Y-206198616D01*
X83366443Y-206204707D01*
X83577046Y-206428977D01*
X83582813Y-206434393D01*
X83819868Y-206630502D01*
X83826271Y-206635153D01*
X84086026Y-206799999D01*
X84092959Y-206803811D01*
X84195350Y-206851992D01*
X84248471Y-206899095D01*
X84267694Y-206967439D01*
X84246915Y-207035327D01*
X84192732Y-207081204D01*
X84141702Y-207092000D01*
X23058298Y-207092000D01*
X22990177Y-207071998D01*
X22943684Y-207018342D01*
X22933580Y-206948068D01*
X22963074Y-206883488D01*
X23004650Y-206851992D01*
X23107041Y-206803811D01*
X23113974Y-206799999D01*
X23373729Y-206635153D01*
X23380132Y-206630502D01*
X23617187Y-206434393D01*
X23622954Y-206428977D01*
X23833557Y-206204707D01*
X23838596Y-206198616D01*
X24019430Y-205949719D01*
X24023670Y-205943039D01*
X24171890Y-205673428D01*
X24175247Y-205666293D01*
X24288508Y-205380230D01*
X24290953Y-205372704D01*
X24367462Y-205074721D01*
X24368945Y-205066950D01*
X24393575Y-204871974D01*
X24391272Y-204857694D01*
X24378280Y-204854000D01*
X20372000Y-204854000D01*
X20303879Y-204833998D01*
X20257386Y-204780342D01*
X20246000Y-204728000D01*
X20246000Y-204327885D01*
X20754000Y-204327885D01*
X20758475Y-204343124D01*
X20759865Y-204344329D01*
X20767548Y-204346000D01*
X24377731Y-204346000D01*
X24391608Y-204341925D01*
X24393645Y-204328574D01*
X24393576Y-204328026D01*
X82806425Y-204328026D01*
X82808728Y-204342306D01*
X82821720Y-204346000D01*
X86427885Y-204346000D01*
X86443124Y-204341525D01*
X86444329Y-204340135D01*
X86446000Y-204332452D01*
X86446000Y-202110115D01*
X86441525Y-202094876D01*
X86440135Y-202093671D01*
X86432452Y-202092000D01*
X85223171Y-202092000D01*
X85219180Y-202092126D01*
X84989006Y-202106607D01*
X84981145Y-202107600D01*
X84678954Y-202165246D01*
X84671277Y-202167217D01*
X84378691Y-202262284D01*
X84371328Y-202265199D01*
X84092959Y-202396189D01*
X84086026Y-202400001D01*
X83826271Y-202564847D01*
X83819868Y-202569498D01*
X83582813Y-202765607D01*
X83577046Y-202771023D01*
X83366443Y-202995293D01*
X83361404Y-203001384D01*
X83180570Y-203250281D01*
X83176330Y-203256961D01*
X83028110Y-203526572D01*
X83024753Y-203533707D01*
X82911492Y-203819770D01*
X82909047Y-203827296D01*
X82832538Y-204125279D01*
X82831055Y-204133050D01*
X82806425Y-204328026D01*
X24393576Y-204328026D01*
X24368945Y-204133050D01*
X24367462Y-204125279D01*
X24290953Y-203827296D01*
X24288508Y-203819770D01*
X24175247Y-203533707D01*
X24171890Y-203526572D01*
X24023670Y-203256961D01*
X24019430Y-203250281D01*
X23838596Y-203001384D01*
X23833557Y-202995293D01*
X23622954Y-202771023D01*
X23617187Y-202765607D01*
X23380132Y-202569498D01*
X23373729Y-202564847D01*
X23113974Y-202400001D01*
X23107041Y-202396189D01*
X22828672Y-202265199D01*
X22821309Y-202262284D01*
X22528723Y-202167217D01*
X22521046Y-202165246D01*
X22218855Y-202107600D01*
X22210994Y-202106607D01*
X21980820Y-202092126D01*
X21976829Y-202092000D01*
X20772115Y-202092000D01*
X20756876Y-202096475D01*
X20755671Y-202097865D01*
X20754000Y-202105548D01*
X20754000Y-204327885D01*
X20246000Y-204327885D01*
X20246000Y-202110115D01*
X20241525Y-202094876D01*
X20240135Y-202093671D01*
X20232452Y-202092000D01*
X19023171Y-202092000D01*
X19019180Y-202092126D01*
X18789006Y-202106607D01*
X18781145Y-202107600D01*
X18478954Y-202165246D01*
X18471277Y-202167217D01*
X18178691Y-202262284D01*
X18171328Y-202265199D01*
X17892959Y-202396189D01*
X17886026Y-202400001D01*
X17626271Y-202564847D01*
X17619868Y-202569498D01*
X17382813Y-202765607D01*
X17377046Y-202771023D01*
X17166443Y-202995293D01*
X17161404Y-203001384D01*
X16980570Y-203250281D01*
X16976330Y-203256961D01*
X16844415Y-203496914D01*
X16794069Y-203546973D01*
X16724652Y-203561866D01*
X16658203Y-203536865D01*
X16615819Y-203479908D01*
X16608000Y-203436213D01*
X16608000Y-188087102D01*
X23478438Y-188087102D01*
X23478462Y-188087441D01*
X23484285Y-188096073D01*
X23728991Y-188319913D01*
X23732445Y-188322852D01*
X24150430Y-188653550D01*
X24154067Y-188656222D01*
X24594618Y-188956182D01*
X24598446Y-188958593D01*
X25059337Y-189226300D01*
X25063309Y-189228421D01*
X25542148Y-189462483D01*
X25546284Y-189464325D01*
X26040627Y-189663551D01*
X26044871Y-189665087D01*
X26552218Y-189828467D01*
X26556539Y-189829689D01*
X27074254Y-189956374D01*
X27078695Y-189957294D01*
X27604141Y-190046637D01*
X27608595Y-190047232D01*
X28139106Y-190098782D01*
X28143579Y-190099056D01*
X28676427Y-190112543D01*
X28680930Y-190112496D01*
X29213352Y-190087853D01*
X29217836Y-190087485D01*
X29747152Y-190024836D01*
X29751591Y-190024149D01*
X30275087Y-189923814D01*
X30279446Y-189922815D01*
X30794414Y-189785311D01*
X30798727Y-189783992D01*
X31302525Y-189610028D01*
X31306740Y-189608402D01*
X31796805Y-189398866D01*
X31800892Y-189396943D01*
X32274731Y-189152900D01*
X32278658Y-189150696D01*
X32733828Y-188873404D01*
X32737624Y-188870901D01*
X33171786Y-188561788D01*
X33175372Y-188559036D01*
X33586362Y-188219640D01*
X33589705Y-188216672D01*
X33713630Y-188098453D01*
X33720179Y-188087102D01*
X48478438Y-188087102D01*
X48478462Y-188087441D01*
X48484285Y-188096073D01*
X48728991Y-188319913D01*
X48732445Y-188322852D01*
X49150430Y-188653550D01*
X49154067Y-188656222D01*
X49594618Y-188956182D01*
X49598446Y-188958593D01*
X50059337Y-189226300D01*
X50063309Y-189228421D01*
X50542148Y-189462483D01*
X50546284Y-189464325D01*
X51040627Y-189663551D01*
X51044871Y-189665087D01*
X51552218Y-189828467D01*
X51556539Y-189829689D01*
X52074254Y-189956374D01*
X52078695Y-189957294D01*
X52604141Y-190046637D01*
X52608595Y-190047232D01*
X53139106Y-190098782D01*
X53143579Y-190099056D01*
X53676427Y-190112543D01*
X53680930Y-190112496D01*
X54213352Y-190087853D01*
X54217836Y-190087485D01*
X54747152Y-190024836D01*
X54751591Y-190024149D01*
X55275087Y-189923814D01*
X55279446Y-189922815D01*
X55794414Y-189785311D01*
X55798727Y-189783992D01*
X56302525Y-189610028D01*
X56306740Y-189608402D01*
X56796805Y-189398866D01*
X56800892Y-189396943D01*
X57274731Y-189152900D01*
X57278658Y-189150696D01*
X57733828Y-188873404D01*
X57737624Y-188870901D01*
X58171786Y-188561788D01*
X58175372Y-188559036D01*
X58586362Y-188219640D01*
X58589705Y-188216672D01*
X58713630Y-188098453D01*
X58720179Y-188087102D01*
X73478438Y-188087102D01*
X73478462Y-188087441D01*
X73484285Y-188096073D01*
X73728991Y-188319913D01*
X73732445Y-188322852D01*
X74150430Y-188653550D01*
X74154067Y-188656222D01*
X74594618Y-188956182D01*
X74598446Y-188958593D01*
X75059337Y-189226300D01*
X75063309Y-189228421D01*
X75542148Y-189462483D01*
X75546284Y-189464325D01*
X76040627Y-189663551D01*
X76044871Y-189665087D01*
X76552218Y-189828467D01*
X76556539Y-189829689D01*
X77074254Y-189956374D01*
X77078695Y-189957294D01*
X77604141Y-190046637D01*
X77608595Y-190047232D01*
X78139106Y-190098782D01*
X78143579Y-190099056D01*
X78676427Y-190112543D01*
X78680930Y-190112496D01*
X79213352Y-190087853D01*
X79217836Y-190087485D01*
X79747152Y-190024836D01*
X79751591Y-190024149D01*
X80275087Y-189923814D01*
X80279446Y-189922815D01*
X80794414Y-189785311D01*
X80798727Y-189783992D01*
X81302525Y-189610028D01*
X81306740Y-189608402D01*
X81796805Y-189398866D01*
X81800892Y-189396943D01*
X82274731Y-189152900D01*
X82278658Y-189150696D01*
X82733828Y-188873404D01*
X82737624Y-188870901D01*
X83171786Y-188561788D01*
X83175372Y-188559036D01*
X83586362Y-188219640D01*
X83589705Y-188216672D01*
X83713630Y-188098453D01*
X83721568Y-188084695D01*
X83721518Y-188083649D01*
X83716625Y-188075835D01*
X78612812Y-182972022D01*
X78598868Y-182964408D01*
X78597035Y-182964539D01*
X78590420Y-182968790D01*
X73486052Y-188073158D01*
X73478438Y-188087102D01*
X58720179Y-188087102D01*
X58721568Y-188084695D01*
X58721518Y-188083649D01*
X58716625Y-188075835D01*
X53612812Y-182972022D01*
X53598868Y-182964408D01*
X53597035Y-182964539D01*
X53590420Y-182968790D01*
X48486052Y-188073158D01*
X48478438Y-188087102D01*
X33720179Y-188087102D01*
X33721568Y-188084695D01*
X33721518Y-188083649D01*
X33716625Y-188075835D01*
X28612812Y-182972022D01*
X28598868Y-182964408D01*
X28597035Y-182964539D01*
X28590420Y-182968790D01*
X23486052Y-188073158D01*
X23478438Y-188087102D01*
X16608000Y-188087102D01*
X16608000Y-182650201D01*
X21087236Y-182650201D01*
X21087267Y-182654699D01*
X21110052Y-183187215D01*
X21110404Y-183191696D01*
X21171206Y-183721240D01*
X21171874Y-183725659D01*
X21270381Y-184249497D01*
X21271370Y-184253884D01*
X21407070Y-184769308D01*
X21408381Y-184773648D01*
X21580581Y-185278039D01*
X21582188Y-185282249D01*
X21790028Y-185773079D01*
X21791917Y-185777129D01*
X22034314Y-186251836D01*
X22036507Y-186255776D01*
X22312217Y-186711925D01*
X22314678Y-186715685D01*
X22622290Y-187150947D01*
X22625036Y-187154552D01*
X22962987Y-187566712D01*
X22965944Y-187570066D01*
X23101751Y-187713428D01*
X23115482Y-187721415D01*
X23116410Y-187721374D01*
X23124399Y-187716391D01*
X28227978Y-182612812D01*
X28234356Y-182601132D01*
X28964408Y-182601132D01*
X28964539Y-182602965D01*
X28968790Y-182609580D01*
X34073389Y-187714179D01*
X34087333Y-187721793D01*
X34087556Y-187721778D01*
X34096338Y-187715831D01*
X34336905Y-187450987D01*
X34339793Y-187447570D01*
X34669044Y-187028414D01*
X34671701Y-187024771D01*
X34970130Y-186583164D01*
X34972526Y-186579329D01*
X35238617Y-186117514D01*
X35240726Y-186113531D01*
X35473116Y-185633878D01*
X35474941Y-185629741D01*
X35672446Y-185134690D01*
X35673961Y-185130460D01*
X35835567Y-184622549D01*
X35836781Y-184618202D01*
X35961661Y-184100034D01*
X35962555Y-184095638D01*
X36050064Y-183569885D01*
X36050649Y-183565380D01*
X36100363Y-183034517D01*
X36100613Y-183030439D01*
X36111566Y-182650201D01*
X46087236Y-182650201D01*
X46087267Y-182654699D01*
X46110052Y-183187215D01*
X46110404Y-183191696D01*
X46171206Y-183721240D01*
X46171874Y-183725659D01*
X46270381Y-184249497D01*
X46271370Y-184253884D01*
X46407070Y-184769308D01*
X46408381Y-184773648D01*
X46580581Y-185278039D01*
X46582188Y-185282249D01*
X46790028Y-185773079D01*
X46791917Y-185777129D01*
X47034314Y-186251836D01*
X47036507Y-186255776D01*
X47312217Y-186711925D01*
X47314678Y-186715685D01*
X47622290Y-187150947D01*
X47625036Y-187154552D01*
X47962987Y-187566712D01*
X47965944Y-187570066D01*
X48101751Y-187713428D01*
X48115482Y-187721415D01*
X48116410Y-187721374D01*
X48124399Y-187716391D01*
X53227978Y-182612812D01*
X53234356Y-182601132D01*
X53964408Y-182601132D01*
X53964539Y-182602965D01*
X53968790Y-182609580D01*
X59073389Y-187714179D01*
X59087333Y-187721793D01*
X59087556Y-187721778D01*
X59096338Y-187715831D01*
X59336905Y-187450987D01*
X59339793Y-187447570D01*
X59669044Y-187028414D01*
X59671701Y-187024771D01*
X59970130Y-186583164D01*
X59972526Y-186579329D01*
X60238617Y-186117514D01*
X60240726Y-186113531D01*
X60473116Y-185633878D01*
X60474941Y-185629741D01*
X60672446Y-185134690D01*
X60673961Y-185130460D01*
X60835567Y-184622549D01*
X60836781Y-184618202D01*
X60961661Y-184100034D01*
X60962555Y-184095638D01*
X61050064Y-183569885D01*
X61050649Y-183565380D01*
X61100363Y-183034517D01*
X61100613Y-183030439D01*
X61111566Y-182650201D01*
X71087236Y-182650201D01*
X71087267Y-182654699D01*
X71110052Y-183187215D01*
X71110404Y-183191696D01*
X71171206Y-183721240D01*
X71171874Y-183725659D01*
X71270381Y-184249497D01*
X71271370Y-184253884D01*
X71407070Y-184769308D01*
X71408381Y-184773648D01*
X71580581Y-185278039D01*
X71582188Y-185282249D01*
X71790028Y-185773079D01*
X71791917Y-185777129D01*
X72034314Y-186251836D01*
X72036507Y-186255776D01*
X72312217Y-186711925D01*
X72314678Y-186715685D01*
X72622290Y-187150947D01*
X72625036Y-187154552D01*
X72962987Y-187566712D01*
X72965944Y-187570066D01*
X73101751Y-187713428D01*
X73115482Y-187721415D01*
X73116410Y-187721374D01*
X73124399Y-187716391D01*
X78227978Y-182612812D01*
X78234356Y-182601132D01*
X78964408Y-182601132D01*
X78964539Y-182602965D01*
X78968790Y-182609580D01*
X84073389Y-187714179D01*
X84087333Y-187721793D01*
X84087556Y-187721778D01*
X84096338Y-187715831D01*
X84336905Y-187450987D01*
X84339793Y-187447570D01*
X84669044Y-187028414D01*
X84671701Y-187024771D01*
X84970130Y-186583164D01*
X84972526Y-186579329D01*
X85238617Y-186117514D01*
X85240726Y-186113531D01*
X85473116Y-185633878D01*
X85474941Y-185629741D01*
X85672446Y-185134690D01*
X85673961Y-185130460D01*
X85835567Y-184622549D01*
X85836781Y-184618202D01*
X85961661Y-184100034D01*
X85962555Y-184095638D01*
X86050064Y-183569885D01*
X86050649Y-183565380D01*
X86100363Y-183034517D01*
X86100613Y-183030439D01*
X86112954Y-182602024D01*
X86112939Y-182597967D01*
X86093866Y-182065096D01*
X86093544Y-182060601D01*
X86036442Y-181530662D01*
X86035800Y-181526211D01*
X85940955Y-181001710D01*
X85939999Y-180997327D01*
X85807892Y-180480933D01*
X85806630Y-180476645D01*
X85637938Y-179971015D01*
X85636370Y-179966818D01*
X85431966Y-179474558D01*
X85430088Y-179470456D01*
X85191023Y-178994094D01*
X85188855Y-178990133D01*
X84916347Y-178532090D01*
X84913891Y-178528279D01*
X84609331Y-178090890D01*
X84606624Y-178087284D01*
X84271552Y-177672765D01*
X84268609Y-177669380D01*
X84098034Y-177486780D01*
X84084361Y-177478698D01*
X84083667Y-177478724D01*
X84075320Y-177483890D01*
X78972022Y-182587188D01*
X78964408Y-182601132D01*
X78234356Y-182601132D01*
X78235592Y-182598868D01*
X78235461Y-182597035D01*
X78231210Y-182590420D01*
X73127007Y-177486217D01*
X73113063Y-177478603D01*
X73112606Y-177478635D01*
X73104130Y-177484332D01*
X72897104Y-177709077D01*
X72894190Y-177712477D01*
X72562015Y-178129331D01*
X72559344Y-178132941D01*
X72257831Y-178572465D01*
X72255409Y-178576283D01*
X71986107Y-179036216D01*
X71983964Y-179040196D01*
X71748233Y-179518211D01*
X71746376Y-179522343D01*
X71545427Y-180015984D01*
X71543874Y-180020230D01*
X71378729Y-180526984D01*
X71377484Y-180531326D01*
X71248991Y-181048608D01*
X71248067Y-181052991D01*
X71156885Y-181578152D01*
X71156274Y-181582609D01*
X71102873Y-182112930D01*
X71102583Y-182117413D01*
X71087236Y-182650201D01*
X61111566Y-182650201D01*
X61112954Y-182602024D01*
X61112939Y-182597967D01*
X61093866Y-182065096D01*
X61093544Y-182060601D01*
X61036442Y-181530662D01*
X61035800Y-181526211D01*
X60940955Y-181001710D01*
X60939999Y-180997327D01*
X60807892Y-180480933D01*
X60806630Y-180476645D01*
X60637938Y-179971015D01*
X60636370Y-179966818D01*
X60431966Y-179474558D01*
X60430088Y-179470456D01*
X60191023Y-178994094D01*
X60188855Y-178990133D01*
X59916347Y-178532090D01*
X59913891Y-178528279D01*
X59609331Y-178090890D01*
X59606624Y-178087284D01*
X59271552Y-177672765D01*
X59268609Y-177669380D01*
X59098034Y-177486780D01*
X59084361Y-177478698D01*
X59083667Y-177478724D01*
X59075320Y-177483890D01*
X53972022Y-182587188D01*
X53964408Y-182601132D01*
X53234356Y-182601132D01*
X53235592Y-182598868D01*
X53235461Y-182597035D01*
X53231210Y-182590420D01*
X48127007Y-177486217D01*
X48113063Y-177478603D01*
X48112606Y-177478635D01*
X48104130Y-177484332D01*
X47897104Y-177709077D01*
X47894190Y-177712477D01*
X47562015Y-178129331D01*
X47559344Y-178132941D01*
X47257831Y-178572465D01*
X47255409Y-178576283D01*
X46986107Y-179036216D01*
X46983964Y-179040196D01*
X46748233Y-179518211D01*
X46746376Y-179522343D01*
X46545427Y-180015984D01*
X46543874Y-180020230D01*
X46378729Y-180526984D01*
X46377484Y-180531326D01*
X46248991Y-181048608D01*
X46248067Y-181052991D01*
X46156885Y-181578152D01*
X46156274Y-181582609D01*
X46102873Y-182112930D01*
X46102583Y-182117413D01*
X46087236Y-182650201D01*
X36111566Y-182650201D01*
X36112954Y-182602024D01*
X36112939Y-182597967D01*
X36093866Y-182065096D01*
X36093544Y-182060601D01*
X36036442Y-181530662D01*
X36035800Y-181526211D01*
X35940955Y-181001710D01*
X35939999Y-180997327D01*
X35807892Y-180480933D01*
X35806630Y-180476645D01*
X35637938Y-179971015D01*
X35636370Y-179966818D01*
X35431966Y-179474558D01*
X35430088Y-179470456D01*
X35191023Y-178994094D01*
X35188855Y-178990133D01*
X34916347Y-178532090D01*
X34913891Y-178528279D01*
X34609331Y-178090890D01*
X34606624Y-178087284D01*
X34271552Y-177672765D01*
X34268609Y-177669380D01*
X34098034Y-177486780D01*
X34084361Y-177478698D01*
X34083667Y-177478724D01*
X34075320Y-177483890D01*
X28972022Y-182587188D01*
X28964408Y-182601132D01*
X28234356Y-182601132D01*
X28235592Y-182598868D01*
X28235461Y-182597035D01*
X28231210Y-182590420D01*
X23127007Y-177486217D01*
X23113063Y-177478603D01*
X23112606Y-177478635D01*
X23104130Y-177484332D01*
X22897104Y-177709077D01*
X22894190Y-177712477D01*
X22562015Y-178129331D01*
X22559344Y-178132941D01*
X22257831Y-178572465D01*
X22255409Y-178576283D01*
X21986107Y-179036216D01*
X21983964Y-179040196D01*
X21748233Y-179518211D01*
X21746376Y-179522343D01*
X21545427Y-180015984D01*
X21543874Y-180020230D01*
X21378729Y-180526984D01*
X21377484Y-180531326D01*
X21248991Y-181048608D01*
X21248067Y-181052991D01*
X21156885Y-181578152D01*
X21156274Y-181582609D01*
X21102873Y-182112930D01*
X21102583Y-182117413D01*
X21087236Y-182650201D01*
X16608000Y-182650201D01*
X16608000Y-177115591D01*
X23478674Y-177115591D01*
X23478707Y-177116404D01*
X23483783Y-177124573D01*
X28587188Y-182227978D01*
X28601132Y-182235592D01*
X28602965Y-182235461D01*
X28609580Y-182231210D01*
X33713682Y-177127108D01*
X33719971Y-177115591D01*
X48478674Y-177115591D01*
X48478707Y-177116404D01*
X48483783Y-177124573D01*
X53587188Y-182227978D01*
X53601132Y-182235592D01*
X53602965Y-182235461D01*
X53609580Y-182231210D01*
X58713682Y-177127108D01*
X58719971Y-177115591D01*
X73478674Y-177115591D01*
X73478707Y-177116404D01*
X73483783Y-177124573D01*
X78587188Y-182227978D01*
X78601132Y-182235592D01*
X78602965Y-182235461D01*
X78609580Y-182231210D01*
X83713682Y-177127108D01*
X83721296Y-177113164D01*
X83721255Y-177112590D01*
X83715684Y-177104268D01*
X83510818Y-176914228D01*
X83507387Y-176911267D01*
X83091729Y-176577666D01*
X83088115Y-176574972D01*
X82649654Y-176271933D01*
X82645835Y-176269490D01*
X82186846Y-175998585D01*
X82182877Y-175996430D01*
X81705679Y-175759028D01*
X81701575Y-175757166D01*
X81208610Y-175554483D01*
X81204395Y-175552924D01*
X80698199Y-175386006D01*
X80693883Y-175384752D01*
X80177042Y-175254451D01*
X80172665Y-175253513D01*
X79647822Y-175160496D01*
X79643365Y-175159870D01*
X79113241Y-175104620D01*
X79108747Y-175104313D01*
X78576027Y-175087107D01*
X78571530Y-175087122D01*
X78038927Y-175108048D01*
X78034451Y-175108384D01*
X77504713Y-175167336D01*
X77500261Y-175167994D01*
X76976106Y-175264667D01*
X76971701Y-175265643D01*
X76455801Y-175399545D01*
X76451490Y-175400830D01*
X75946471Y-175571278D01*
X75942259Y-175572870D01*
X75450723Y-175778988D01*
X75446647Y-175780871D01*
X74971109Y-176021605D01*
X74967158Y-176023786D01*
X74510063Y-176297893D01*
X74506267Y-176300358D01*
X74069930Y-176606452D01*
X74066347Y-176609162D01*
X73653007Y-176945674D01*
X73649617Y-176948642D01*
X73486708Y-177101891D01*
X73478674Y-177115591D01*
X58719971Y-177115591D01*
X58721296Y-177113164D01*
X58721255Y-177112590D01*
X58715684Y-177104268D01*
X58510818Y-176914228D01*
X58507387Y-176911267D01*
X58091729Y-176577666D01*
X58088115Y-176574972D01*
X57649654Y-176271933D01*
X57645835Y-176269490D01*
X57186846Y-175998585D01*
X57182877Y-175996430D01*
X56705679Y-175759028D01*
X56701575Y-175757166D01*
X56208610Y-175554483D01*
X56204395Y-175552924D01*
X55698199Y-175386006D01*
X55693883Y-175384752D01*
X55177042Y-175254451D01*
X55172665Y-175253513D01*
X54647822Y-175160496D01*
X54643365Y-175159870D01*
X54113241Y-175104620D01*
X54108747Y-175104313D01*
X53576027Y-175087107D01*
X53571530Y-175087122D01*
X53038927Y-175108048D01*
X53034451Y-175108384D01*
X52504713Y-175167336D01*
X52500261Y-175167994D01*
X51976106Y-175264667D01*
X51971701Y-175265643D01*
X51455801Y-175399545D01*
X51451490Y-175400830D01*
X50946471Y-175571278D01*
X50942259Y-175572870D01*
X50450723Y-175778988D01*
X50446647Y-175780871D01*
X49971109Y-176021605D01*
X49967158Y-176023786D01*
X49510063Y-176297893D01*
X49506267Y-176300358D01*
X49069930Y-176606452D01*
X49066347Y-176609162D01*
X48653007Y-176945674D01*
X48649617Y-176948642D01*
X48486708Y-177101891D01*
X48478674Y-177115591D01*
X33719971Y-177115591D01*
X33721296Y-177113164D01*
X33721255Y-177112590D01*
X33715684Y-177104268D01*
X33510818Y-176914228D01*
X33507387Y-176911267D01*
X33091729Y-176577666D01*
X33088115Y-176574972D01*
X32649654Y-176271933D01*
X32645835Y-176269490D01*
X32186846Y-175998585D01*
X32182877Y-175996430D01*
X31705679Y-175759028D01*
X31701575Y-175757166D01*
X31208610Y-175554483D01*
X31204395Y-175552924D01*
X30698199Y-175386006D01*
X30693883Y-175384752D01*
X30177042Y-175254451D01*
X30172665Y-175253513D01*
X29647822Y-175160496D01*
X29643365Y-175159870D01*
X29113241Y-175104620D01*
X29108747Y-175104313D01*
X28576027Y-175087107D01*
X28571530Y-175087122D01*
X28038927Y-175108048D01*
X28034451Y-175108384D01*
X27504713Y-175167336D01*
X27500261Y-175167994D01*
X26976106Y-175264667D01*
X26971701Y-175265643D01*
X26455801Y-175399545D01*
X26451490Y-175400830D01*
X25946471Y-175571278D01*
X25942259Y-175572870D01*
X25450723Y-175778988D01*
X25446647Y-175780871D01*
X24971109Y-176021605D01*
X24967158Y-176023786D01*
X24510063Y-176297893D01*
X24506267Y-176300358D01*
X24069930Y-176606452D01*
X24066347Y-176609162D01*
X23653007Y-176945674D01*
X23649617Y-176948642D01*
X23486708Y-177101891D01*
X23478674Y-177115591D01*
X16608000Y-177115591D01*
X16608000Y-163087102D01*
X48478438Y-163087102D01*
X48478462Y-163087441D01*
X48484285Y-163096073D01*
X48728991Y-163319913D01*
X48732445Y-163322852D01*
X49150430Y-163653550D01*
X49154067Y-163656222D01*
X49594618Y-163956182D01*
X49598446Y-163958593D01*
X50059337Y-164226300D01*
X50063309Y-164228421D01*
X50542148Y-164462483D01*
X50546284Y-164464325D01*
X51040627Y-164663551D01*
X51044871Y-164665087D01*
X51552218Y-164828467D01*
X51556539Y-164829689D01*
X52074254Y-164956374D01*
X52078695Y-164957294D01*
X52604141Y-165046637D01*
X52608595Y-165047232D01*
X53139106Y-165098782D01*
X53143579Y-165099056D01*
X53676427Y-165112543D01*
X53680930Y-165112496D01*
X54213352Y-165087853D01*
X54217836Y-165087485D01*
X54747152Y-165024836D01*
X54751591Y-165024149D01*
X55275087Y-164923814D01*
X55279446Y-164922815D01*
X55794414Y-164785311D01*
X55798727Y-164783992D01*
X56302525Y-164610028D01*
X56306740Y-164608402D01*
X56796805Y-164398866D01*
X56800892Y-164396943D01*
X57274731Y-164152900D01*
X57278658Y-164150696D01*
X57733828Y-163873404D01*
X57737624Y-163870901D01*
X58171786Y-163561788D01*
X58175372Y-163559036D01*
X58586362Y-163219640D01*
X58589705Y-163216672D01*
X58713630Y-163098453D01*
X58720179Y-163087102D01*
X73478438Y-163087102D01*
X73478462Y-163087441D01*
X73484285Y-163096073D01*
X73728991Y-163319913D01*
X73732445Y-163322852D01*
X74150430Y-163653550D01*
X74154067Y-163656222D01*
X74594618Y-163956182D01*
X74598446Y-163958593D01*
X75059337Y-164226300D01*
X75063309Y-164228421D01*
X75542148Y-164462483D01*
X75546284Y-164464325D01*
X76040627Y-164663551D01*
X76044871Y-164665087D01*
X76552218Y-164828467D01*
X76556539Y-164829689D01*
X77074254Y-164956374D01*
X77078695Y-164957294D01*
X77604141Y-165046637D01*
X77608595Y-165047232D01*
X78139106Y-165098782D01*
X78143579Y-165099056D01*
X78676427Y-165112543D01*
X78680930Y-165112496D01*
X79213352Y-165087853D01*
X79217836Y-165087485D01*
X79747152Y-165024836D01*
X79751591Y-165024149D01*
X80275087Y-164923814D01*
X80279446Y-164922815D01*
X80794414Y-164785311D01*
X80798727Y-164783992D01*
X81302525Y-164610028D01*
X81306740Y-164608402D01*
X81796805Y-164398866D01*
X81800892Y-164396943D01*
X82274731Y-164152900D01*
X82278658Y-164150696D01*
X82733828Y-163873404D01*
X82737624Y-163870901D01*
X83171786Y-163561788D01*
X83175372Y-163559036D01*
X83586362Y-163219640D01*
X83589705Y-163216672D01*
X83713630Y-163098453D01*
X83721568Y-163084695D01*
X83721518Y-163083649D01*
X83716625Y-163075835D01*
X78612812Y-157972022D01*
X78598868Y-157964408D01*
X78597035Y-157964539D01*
X78590420Y-157968790D01*
X73486052Y-163073158D01*
X73478438Y-163087102D01*
X58720179Y-163087102D01*
X58721568Y-163084695D01*
X58721518Y-163083649D01*
X58716625Y-163075835D01*
X53612812Y-157972022D01*
X53598868Y-157964408D01*
X53597035Y-157964539D01*
X53590420Y-157968790D01*
X48486052Y-163073158D01*
X48478438Y-163087102D01*
X16608000Y-163087102D01*
X16608000Y-161317924D01*
X25247616Y-161317924D01*
X25247665Y-161318616D01*
X25253111Y-161326781D01*
X25342226Y-161410027D01*
X25346503Y-161413681D01*
X25693829Y-161684553D01*
X25698386Y-161687792D01*
X26068432Y-161926727D01*
X26073261Y-161929549D01*
X26463048Y-162134626D01*
X26468150Y-162137027D01*
X26874633Y-162306647D01*
X26879888Y-162308570D01*
X27299860Y-162441389D01*
X27305259Y-162442836D01*
X27735375Y-162537796D01*
X27740886Y-162538758D01*
X28177749Y-162595110D01*
X28183312Y-162595577D01*
X28623453Y-162612869D01*
X28629045Y-162612840D01*
X29068965Y-162590940D01*
X29074548Y-162590412D01*
X29510788Y-162529490D01*
X29516275Y-162528473D01*
X29945381Y-162429012D01*
X29950767Y-162427508D01*
X30369333Y-162290296D01*
X30374550Y-162288324D01*
X30779260Y-162114447D01*
X30784303Y-162112009D01*
X31171943Y-161902850D01*
X31176747Y-161899975D01*
X31544239Y-161657198D01*
X31548802Y-161653883D01*
X31893266Y-161379393D01*
X31897481Y-161375716D01*
X31945286Y-161330112D01*
X31953226Y-161316352D01*
X31953176Y-161315307D01*
X31948285Y-161307495D01*
X28612812Y-157972022D01*
X28598868Y-157964408D01*
X28597035Y-157964539D01*
X28590420Y-157968790D01*
X25255230Y-161303980D01*
X25247616Y-161317924D01*
X16608000Y-161317924D01*
X16608000Y-157471585D01*
X23588722Y-157471585D01*
X23596793Y-157911981D01*
X23597143Y-157917547D01*
X23644333Y-158355491D01*
X23645180Y-158361030D01*
X23731112Y-158793042D01*
X23732441Y-158798453D01*
X23856444Y-159221138D01*
X23858250Y-159226413D01*
X24019326Y-159636377D01*
X24021608Y-159641501D01*
X24218485Y-160035516D01*
X24221209Y-160040409D01*
X24452333Y-160415363D01*
X24455484Y-160419999D01*
X24719031Y-160772931D01*
X24722564Y-160777248D01*
X24871583Y-160943625D01*
X24885079Y-160951989D01*
X24894491Y-160946299D01*
X28227978Y-157612812D01*
X28234356Y-157601132D01*
X28964408Y-157601132D01*
X28964539Y-157602965D01*
X28968790Y-157609580D01*
X32303870Y-160944660D01*
X32317631Y-160952174D01*
X32326992Y-160945716D01*
X32510483Y-160736482D01*
X32513988Y-160732109D01*
X32773825Y-160376435D01*
X32776920Y-160371777D01*
X33004101Y-159994431D01*
X33006782Y-159989492D01*
X33199515Y-159593455D01*
X33201750Y-159588289D01*
X33358519Y-159176675D01*
X33360275Y-159171363D01*
X33479838Y-158747427D01*
X33481114Y-158741991D01*
X33562520Y-158309092D01*
X33563307Y-158303555D01*
X33605963Y-157864580D01*
X33606236Y-157860143D01*
X33611734Y-157650201D01*
X46087236Y-157650201D01*
X46087267Y-157654699D01*
X46110052Y-158187215D01*
X46110404Y-158191696D01*
X46171206Y-158721240D01*
X46171874Y-158725659D01*
X46270381Y-159249497D01*
X46271370Y-159253884D01*
X46407070Y-159769308D01*
X46408381Y-159773648D01*
X46580581Y-160278039D01*
X46582188Y-160282249D01*
X46790028Y-160773079D01*
X46791917Y-160777129D01*
X47034314Y-161251836D01*
X47036507Y-161255776D01*
X47312217Y-161711925D01*
X47314678Y-161715685D01*
X47622290Y-162150947D01*
X47625036Y-162154552D01*
X47962987Y-162566712D01*
X47965944Y-162570066D01*
X48101751Y-162713428D01*
X48115482Y-162721415D01*
X48116410Y-162721374D01*
X48124399Y-162716391D01*
X53227978Y-157612812D01*
X53234356Y-157601132D01*
X53964408Y-157601132D01*
X53964539Y-157602965D01*
X53968790Y-157609580D01*
X59073389Y-162714179D01*
X59087333Y-162721793D01*
X59087556Y-162721778D01*
X59096338Y-162715831D01*
X59336905Y-162450987D01*
X59339793Y-162447570D01*
X59669044Y-162028414D01*
X59671701Y-162024771D01*
X59970130Y-161583164D01*
X59972526Y-161579329D01*
X60238617Y-161117514D01*
X60240726Y-161113531D01*
X60473116Y-160633878D01*
X60474941Y-160629741D01*
X60672446Y-160134690D01*
X60673961Y-160130460D01*
X60835567Y-159622549D01*
X60836781Y-159618202D01*
X60961661Y-159100034D01*
X60962555Y-159095638D01*
X61050064Y-158569885D01*
X61050649Y-158565380D01*
X61100363Y-158034517D01*
X61100613Y-158030439D01*
X61111566Y-157650201D01*
X71087236Y-157650201D01*
X71087267Y-157654699D01*
X71110052Y-158187215D01*
X71110404Y-158191696D01*
X71171206Y-158721240D01*
X71171874Y-158725659D01*
X71270381Y-159249497D01*
X71271370Y-159253884D01*
X71407070Y-159769308D01*
X71408381Y-159773648D01*
X71580581Y-160278039D01*
X71582188Y-160282249D01*
X71790028Y-160773079D01*
X71791917Y-160777129D01*
X72034314Y-161251836D01*
X72036507Y-161255776D01*
X72312217Y-161711925D01*
X72314678Y-161715685D01*
X72622290Y-162150947D01*
X72625036Y-162154552D01*
X72962987Y-162566712D01*
X72965944Y-162570066D01*
X73101751Y-162713428D01*
X73115482Y-162721415D01*
X73116410Y-162721374D01*
X73124399Y-162716391D01*
X78227978Y-157612812D01*
X78234356Y-157601132D01*
X78964408Y-157601132D01*
X78964539Y-157602965D01*
X78968790Y-157609580D01*
X84073389Y-162714179D01*
X84087333Y-162721793D01*
X84087556Y-162721778D01*
X84096338Y-162715831D01*
X84336905Y-162450987D01*
X84339793Y-162447570D01*
X84669044Y-162028414D01*
X84671701Y-162024771D01*
X84970130Y-161583164D01*
X84972526Y-161579329D01*
X85238617Y-161117514D01*
X85240726Y-161113531D01*
X85473116Y-160633878D01*
X85474941Y-160629741D01*
X85672446Y-160134690D01*
X85673961Y-160130460D01*
X85835567Y-159622549D01*
X85836781Y-159618202D01*
X85961661Y-159100034D01*
X85962555Y-159095638D01*
X86050064Y-158569885D01*
X86050649Y-158565380D01*
X86100363Y-158034517D01*
X86100613Y-158030439D01*
X86112954Y-157602024D01*
X86112939Y-157597967D01*
X86093866Y-157065096D01*
X86093544Y-157060601D01*
X86036442Y-156530662D01*
X86035800Y-156526211D01*
X85940955Y-156001710D01*
X85939999Y-155997327D01*
X85807892Y-155480933D01*
X85806630Y-155476645D01*
X85637938Y-154971015D01*
X85636370Y-154966818D01*
X85431966Y-154474558D01*
X85430088Y-154470456D01*
X85191023Y-153994094D01*
X85188855Y-153990133D01*
X84916347Y-153532090D01*
X84913891Y-153528279D01*
X84609331Y-153090890D01*
X84606624Y-153087284D01*
X84271552Y-152672765D01*
X84268609Y-152669380D01*
X84098034Y-152486780D01*
X84084361Y-152478698D01*
X84083667Y-152478724D01*
X84075320Y-152483890D01*
X78972022Y-157587188D01*
X78964408Y-157601132D01*
X78234356Y-157601132D01*
X78235592Y-157598868D01*
X78235461Y-157597035D01*
X78231210Y-157590420D01*
X73127007Y-152486217D01*
X73113063Y-152478603D01*
X73112606Y-152478635D01*
X73104130Y-152484332D01*
X72897104Y-152709077D01*
X72894190Y-152712477D01*
X72562015Y-153129331D01*
X72559344Y-153132941D01*
X72257831Y-153572465D01*
X72255409Y-153576283D01*
X71986107Y-154036216D01*
X71983964Y-154040196D01*
X71748233Y-154518211D01*
X71746376Y-154522343D01*
X71545427Y-155015984D01*
X71543874Y-155020230D01*
X71378729Y-155526984D01*
X71377484Y-155531326D01*
X71248991Y-156048608D01*
X71248067Y-156052991D01*
X71156885Y-156578152D01*
X71156274Y-156582609D01*
X71102873Y-157112930D01*
X71102583Y-157117413D01*
X71087236Y-157650201D01*
X61111566Y-157650201D01*
X61112954Y-157602024D01*
X61112939Y-157597967D01*
X61093866Y-157065096D01*
X61093544Y-157060601D01*
X61036442Y-156530662D01*
X61035800Y-156526211D01*
X60940955Y-156001710D01*
X60939999Y-155997327D01*
X60807892Y-155480933D01*
X60806630Y-155476645D01*
X60637938Y-154971015D01*
X60636370Y-154966818D01*
X60431966Y-154474558D01*
X60430088Y-154470456D01*
X60191023Y-153994094D01*
X60188855Y-153990133D01*
X59916347Y-153532090D01*
X59913891Y-153528279D01*
X59609331Y-153090890D01*
X59606624Y-153087284D01*
X59271552Y-152672765D01*
X59268609Y-152669380D01*
X59098034Y-152486780D01*
X59084361Y-152478698D01*
X59083667Y-152478724D01*
X59075320Y-152483890D01*
X53972022Y-157587188D01*
X53964408Y-157601132D01*
X53234356Y-157601132D01*
X53235592Y-157598868D01*
X53235461Y-157597035D01*
X53231210Y-157590420D01*
X48127007Y-152486217D01*
X48113063Y-152478603D01*
X48112606Y-152478635D01*
X48104130Y-152484332D01*
X47897104Y-152709077D01*
X47894190Y-152712477D01*
X47562015Y-153129331D01*
X47559344Y-153132941D01*
X47257831Y-153572465D01*
X47255409Y-153576283D01*
X46986107Y-154036216D01*
X46983964Y-154040196D01*
X46748233Y-154518211D01*
X46746376Y-154522343D01*
X46545427Y-155015984D01*
X46543874Y-155020230D01*
X46378729Y-155526984D01*
X46377484Y-155531326D01*
X46248991Y-156048608D01*
X46248067Y-156052991D01*
X46156885Y-156578152D01*
X46156274Y-156582609D01*
X46102873Y-157112930D01*
X46102583Y-157117413D01*
X46087236Y-157650201D01*
X33611734Y-157650201D01*
X33612990Y-157602234D01*
X33612948Y-157597762D01*
X33593327Y-157157177D01*
X33592829Y-157151590D01*
X33534193Y-156715047D01*
X33533200Y-156709524D01*
X33435990Y-156279920D01*
X33434517Y-156274533D01*
X33299499Y-155855261D01*
X33297544Y-155850003D01*
X33125801Y-155444419D01*
X33123382Y-155439348D01*
X32916253Y-155050614D01*
X32913418Y-155045819D01*
X32672538Y-154677013D01*
X32669287Y-154672489D01*
X32396582Y-154326564D01*
X32392934Y-154322338D01*
X32329587Y-154255233D01*
X32315871Y-154247222D01*
X32315000Y-154247259D01*
X32306923Y-154252287D01*
X28972022Y-157587188D01*
X28964408Y-157601132D01*
X28234356Y-157601132D01*
X28235592Y-157598868D01*
X28235461Y-157597035D01*
X28231210Y-157590420D01*
X24893542Y-154252752D01*
X24880234Y-154245485D01*
X24870195Y-154252607D01*
X24608756Y-154566953D01*
X24605361Y-154571425D01*
X24354932Y-154933765D01*
X24351953Y-154938515D01*
X24134719Y-155321695D01*
X24132188Y-155326662D01*
X23949866Y-155727656D01*
X23947788Y-155732824D01*
X23801840Y-156148426D01*
X23800219Y-156153795D01*
X23691798Y-156580705D01*
X23690664Y-156586178D01*
X23620621Y-157021044D01*
X23619976Y-157026622D01*
X23588869Y-157465964D01*
X23588722Y-157471585D01*
X16608000Y-157471585D01*
X16608000Y-153882502D01*
X25246077Y-153882502D01*
X25252184Y-153892974D01*
X28587188Y-157227978D01*
X28601132Y-157235592D01*
X28602965Y-157235461D01*
X28609580Y-157231210D01*
X31944435Y-153896355D01*
X31951998Y-153882505D01*
X31945671Y-153873283D01*
X31756913Y-153705992D01*
X31752551Y-153702459D01*
X31398262Y-153440778D01*
X31393609Y-153437651D01*
X31017453Y-153208495D01*
X31012536Y-153205791D01*
X30617488Y-153010974D01*
X30612379Y-153008732D01*
X30201563Y-152849799D01*
X30196273Y-152848019D01*
X29772954Y-152726234D01*
X29767530Y-152724932D01*
X29335068Y-152641261D01*
X29329539Y-152640445D01*
X28891353Y-152595550D01*
X28885771Y-152595228D01*
X28445346Y-152589463D01*
X28439735Y-152589639D01*
X28000541Y-152623048D01*
X27994984Y-152623720D01*
X27560504Y-152696037D01*
X27555007Y-152697205D01*
X27128680Y-152807858D01*
X27123314Y-152809510D01*
X26708509Y-152957622D01*
X26703321Y-152959739D01*
X26303311Y-153144147D01*
X26298342Y-153146711D01*
X25916308Y-153365948D01*
X25911575Y-153368951D01*
X25550545Y-153621278D01*
X25546104Y-153624686D01*
X25254521Y-153869785D01*
X25246077Y-153882502D01*
X16608000Y-153882502D01*
X16608000Y-152115591D01*
X48478674Y-152115591D01*
X48478707Y-152116404D01*
X48483783Y-152124573D01*
X53587188Y-157227978D01*
X53601132Y-157235592D01*
X53602965Y-157235461D01*
X53609580Y-157231210D01*
X58713682Y-152127108D01*
X58719971Y-152115591D01*
X73478674Y-152115591D01*
X73478707Y-152116404D01*
X73483783Y-152124573D01*
X78587188Y-157227978D01*
X78601132Y-157235592D01*
X78602965Y-157235461D01*
X78609580Y-157231210D01*
X83713682Y-152127108D01*
X83721296Y-152113164D01*
X83721255Y-152112590D01*
X83715684Y-152104268D01*
X83510818Y-151914228D01*
X83507387Y-151911267D01*
X83091729Y-151577666D01*
X83088115Y-151574972D01*
X82649654Y-151271933D01*
X82645835Y-151269490D01*
X82186846Y-150998585D01*
X82182877Y-150996430D01*
X81705679Y-150759028D01*
X81701575Y-150757166D01*
X81208610Y-150554483D01*
X81204395Y-150552924D01*
X80698199Y-150386006D01*
X80693883Y-150384752D01*
X80177042Y-150254451D01*
X80172665Y-150253513D01*
X79647822Y-150160496D01*
X79643365Y-150159870D01*
X79113241Y-150104620D01*
X79108747Y-150104313D01*
X78576027Y-150087107D01*
X78571530Y-150087122D01*
X78038927Y-150108048D01*
X78034451Y-150108384D01*
X77504713Y-150167336D01*
X77500261Y-150167994D01*
X76976106Y-150264667D01*
X76971701Y-150265643D01*
X76455801Y-150399545D01*
X76451490Y-150400830D01*
X75946471Y-150571278D01*
X75942259Y-150572870D01*
X75450723Y-150778988D01*
X75446647Y-150780871D01*
X74971109Y-151021605D01*
X74967158Y-151023786D01*
X74510063Y-151297893D01*
X74506267Y-151300358D01*
X74069930Y-151606452D01*
X74066347Y-151609162D01*
X73653007Y-151945674D01*
X73649617Y-151948642D01*
X73486708Y-152101891D01*
X73478674Y-152115591D01*
X58719971Y-152115591D01*
X58721296Y-152113164D01*
X58721255Y-152112590D01*
X58715684Y-152104268D01*
X58510818Y-151914228D01*
X58507387Y-151911267D01*
X58091729Y-151577666D01*
X58088115Y-151574972D01*
X57649654Y-151271933D01*
X57645835Y-151269490D01*
X57186846Y-150998585D01*
X57182877Y-150996430D01*
X56705679Y-150759028D01*
X56701575Y-150757166D01*
X56208610Y-150554483D01*
X56204395Y-150552924D01*
X55698199Y-150386006D01*
X55693883Y-150384752D01*
X55177042Y-150254451D01*
X55172665Y-150253513D01*
X54647822Y-150160496D01*
X54643365Y-150159870D01*
X54113241Y-150104620D01*
X54108747Y-150104313D01*
X53576027Y-150087107D01*
X53571530Y-150087122D01*
X53038927Y-150108048D01*
X53034451Y-150108384D01*
X52504713Y-150167336D01*
X52500261Y-150167994D01*
X51976106Y-150264667D01*
X51971701Y-150265643D01*
X51455801Y-150399545D01*
X51451490Y-150400830D01*
X50946471Y-150571278D01*
X50942259Y-150572870D01*
X50450723Y-150778988D01*
X50446647Y-150780871D01*
X49971109Y-151021605D01*
X49967158Y-151023786D01*
X49510063Y-151297893D01*
X49506267Y-151300358D01*
X49069930Y-151606452D01*
X49066347Y-151609162D01*
X48653007Y-151945674D01*
X48649617Y-151948642D01*
X48486708Y-152101891D01*
X48478674Y-152115591D01*
X16608000Y-152115591D01*
X16608000Y-138087102D01*
X23478438Y-138087102D01*
X23478462Y-138087441D01*
X23484285Y-138096073D01*
X23728991Y-138319913D01*
X23732445Y-138322852D01*
X24150430Y-138653550D01*
X24154067Y-138656222D01*
X24594618Y-138956182D01*
X24598446Y-138958593D01*
X25059337Y-139226300D01*
X25063309Y-139228421D01*
X25542148Y-139462483D01*
X25546284Y-139464325D01*
X26040627Y-139663551D01*
X26044871Y-139665087D01*
X26552218Y-139828467D01*
X26556539Y-139829689D01*
X27074254Y-139956374D01*
X27078695Y-139957294D01*
X27604141Y-140046637D01*
X27608595Y-140047232D01*
X28139106Y-140098782D01*
X28143579Y-140099056D01*
X28676427Y-140112543D01*
X28680930Y-140112496D01*
X29213352Y-140087853D01*
X29217836Y-140087485D01*
X29747152Y-140024836D01*
X29751591Y-140024149D01*
X30275087Y-139923814D01*
X30279446Y-139922815D01*
X30794414Y-139785311D01*
X30798727Y-139783992D01*
X31302525Y-139610028D01*
X31306740Y-139608402D01*
X31796805Y-139398866D01*
X31800892Y-139396943D01*
X32274731Y-139152900D01*
X32278658Y-139150696D01*
X32733828Y-138873404D01*
X32737624Y-138870901D01*
X33171786Y-138561788D01*
X33175372Y-138559036D01*
X33586362Y-138219640D01*
X33589705Y-138216672D01*
X33713630Y-138098453D01*
X33721568Y-138084695D01*
X33721518Y-138083649D01*
X33716625Y-138075835D01*
X33696092Y-138055302D01*
X48478438Y-138055302D01*
X48478462Y-138055641D01*
X48484285Y-138064273D01*
X48728991Y-138288113D01*
X48732445Y-138291052D01*
X49150430Y-138621750D01*
X49154067Y-138624422D01*
X49594618Y-138924382D01*
X49598446Y-138926793D01*
X50059337Y-139194500D01*
X50063309Y-139196621D01*
X50542148Y-139430683D01*
X50546284Y-139432525D01*
X51040627Y-139631751D01*
X51044871Y-139633287D01*
X51552218Y-139796667D01*
X51556539Y-139797889D01*
X52074254Y-139924574D01*
X52078695Y-139925494D01*
X52604141Y-140014837D01*
X52608595Y-140015432D01*
X53139106Y-140066982D01*
X53143579Y-140067256D01*
X53676427Y-140080743D01*
X53680930Y-140080696D01*
X54213352Y-140056053D01*
X54217836Y-140055685D01*
X54747152Y-139993036D01*
X54751591Y-139992349D01*
X55275087Y-139892014D01*
X55279446Y-139891015D01*
X55794414Y-139753511D01*
X55798727Y-139752192D01*
X56302525Y-139578228D01*
X56306740Y-139576602D01*
X56796805Y-139367066D01*
X56800892Y-139365143D01*
X57274731Y-139121100D01*
X57278658Y-139118896D01*
X57733828Y-138841604D01*
X57737624Y-138839101D01*
X58171786Y-138529988D01*
X58175372Y-138527236D01*
X58586362Y-138187840D01*
X58589705Y-138184872D01*
X58692194Y-138087102D01*
X73478438Y-138087102D01*
X73478462Y-138087441D01*
X73484285Y-138096073D01*
X73728991Y-138319913D01*
X73732445Y-138322852D01*
X74150430Y-138653550D01*
X74154067Y-138656222D01*
X74594618Y-138956182D01*
X74598446Y-138958593D01*
X75059337Y-139226300D01*
X75063309Y-139228421D01*
X75542148Y-139462483D01*
X75546284Y-139464325D01*
X76040627Y-139663551D01*
X76044871Y-139665087D01*
X76552218Y-139828467D01*
X76556539Y-139829689D01*
X77074254Y-139956374D01*
X77078695Y-139957294D01*
X77604141Y-140046637D01*
X77608595Y-140047232D01*
X78139106Y-140098782D01*
X78143579Y-140099056D01*
X78676427Y-140112543D01*
X78680930Y-140112496D01*
X79213352Y-140087853D01*
X79217836Y-140087485D01*
X79747152Y-140024836D01*
X79751591Y-140024149D01*
X80275087Y-139923814D01*
X80279446Y-139922815D01*
X80794414Y-139785311D01*
X80798727Y-139783992D01*
X81302525Y-139610028D01*
X81306740Y-139608402D01*
X81796805Y-139398866D01*
X81800892Y-139396943D01*
X82274731Y-139152900D01*
X82278658Y-139150696D01*
X82733828Y-138873404D01*
X82737624Y-138870901D01*
X83171786Y-138561788D01*
X83175372Y-138559036D01*
X83586362Y-138219640D01*
X83589705Y-138216672D01*
X83713630Y-138098453D01*
X83721568Y-138084695D01*
X83721518Y-138083649D01*
X83716625Y-138075835D01*
X78612812Y-132972022D01*
X78598868Y-132964408D01*
X78597035Y-132964539D01*
X78590420Y-132968790D01*
X73486052Y-138073158D01*
X73478438Y-138087102D01*
X58692194Y-138087102D01*
X58713630Y-138066653D01*
X58721568Y-138052895D01*
X58721518Y-138051849D01*
X58716625Y-138044035D01*
X53612812Y-132940222D01*
X53598868Y-132932608D01*
X53597035Y-132932739D01*
X53590420Y-132936990D01*
X48486052Y-138041358D01*
X48478438Y-138055302D01*
X33696092Y-138055302D01*
X28612812Y-132972022D01*
X28598868Y-132964408D01*
X28597035Y-132964539D01*
X28590420Y-132968790D01*
X23486052Y-138073158D01*
X23478438Y-138087102D01*
X16608000Y-138087102D01*
X16608000Y-132650201D01*
X21087236Y-132650201D01*
X21087267Y-132654699D01*
X21110052Y-133187215D01*
X21110404Y-133191696D01*
X21171206Y-133721240D01*
X21171874Y-133725659D01*
X21270381Y-134249497D01*
X21271370Y-134253884D01*
X21407070Y-134769308D01*
X21408381Y-134773648D01*
X21580581Y-135278039D01*
X21582188Y-135282249D01*
X21790028Y-135773079D01*
X21791917Y-135777129D01*
X22034314Y-136251836D01*
X22036507Y-136255776D01*
X22312217Y-136711925D01*
X22314678Y-136715685D01*
X22622290Y-137150947D01*
X22625036Y-137154552D01*
X22962987Y-137566712D01*
X22965944Y-137570066D01*
X23101751Y-137713428D01*
X23115482Y-137721415D01*
X23116410Y-137721374D01*
X23124399Y-137716391D01*
X28227978Y-132612812D01*
X28234356Y-132601132D01*
X28964408Y-132601132D01*
X28964539Y-132602965D01*
X28968790Y-132609580D01*
X34073389Y-137714179D01*
X34087333Y-137721793D01*
X34087556Y-137721778D01*
X34096338Y-137715831D01*
X34336905Y-137450987D01*
X34339793Y-137447570D01*
X34669044Y-137028414D01*
X34671701Y-137024771D01*
X34970130Y-136583164D01*
X34972526Y-136579329D01*
X35238617Y-136117514D01*
X35240726Y-136113531D01*
X35473116Y-135633878D01*
X35474941Y-135629741D01*
X35672446Y-135134690D01*
X35673961Y-135130460D01*
X35835567Y-134622549D01*
X35836781Y-134618202D01*
X35961661Y-134100034D01*
X35962555Y-134095638D01*
X36050064Y-133569885D01*
X36050649Y-133565380D01*
X36100363Y-133034517D01*
X36100613Y-133030439D01*
X36112482Y-132618401D01*
X46087236Y-132618401D01*
X46087267Y-132622899D01*
X46110052Y-133155415D01*
X46110404Y-133159896D01*
X46171206Y-133689440D01*
X46171874Y-133693859D01*
X46270381Y-134217697D01*
X46271370Y-134222084D01*
X46407070Y-134737508D01*
X46408381Y-134741848D01*
X46580581Y-135246239D01*
X46582188Y-135250449D01*
X46790028Y-135741279D01*
X46791917Y-135745329D01*
X47034314Y-136220036D01*
X47036507Y-136223976D01*
X47312217Y-136680125D01*
X47314678Y-136683885D01*
X47622290Y-137119147D01*
X47625036Y-137122752D01*
X47962987Y-137534912D01*
X47965944Y-137538266D01*
X48101751Y-137681628D01*
X48115482Y-137689615D01*
X48116410Y-137689574D01*
X48124399Y-137684591D01*
X53227978Y-132581012D01*
X53234356Y-132569332D01*
X53964408Y-132569332D01*
X53964539Y-132571165D01*
X53968790Y-132577780D01*
X59073389Y-137682379D01*
X59087333Y-137689993D01*
X59087556Y-137689978D01*
X59096338Y-137684031D01*
X59336905Y-137419187D01*
X59339793Y-137415770D01*
X59669044Y-136996614D01*
X59671701Y-136992971D01*
X59970130Y-136551364D01*
X59972526Y-136547529D01*
X60238617Y-136085714D01*
X60240726Y-136081731D01*
X60473116Y-135602078D01*
X60474941Y-135597941D01*
X60672446Y-135102890D01*
X60673961Y-135098660D01*
X60835567Y-134590749D01*
X60836781Y-134586402D01*
X60961661Y-134068234D01*
X60962555Y-134063838D01*
X61050064Y-133538085D01*
X61050649Y-133533580D01*
X61100363Y-133002717D01*
X61100613Y-132998639D01*
X61110650Y-132650201D01*
X71087236Y-132650201D01*
X71087267Y-132654699D01*
X71110052Y-133187215D01*
X71110404Y-133191696D01*
X71171206Y-133721240D01*
X71171874Y-133725659D01*
X71270381Y-134249497D01*
X71271370Y-134253884D01*
X71407070Y-134769308D01*
X71408381Y-134773648D01*
X71580581Y-135278039D01*
X71582188Y-135282249D01*
X71790028Y-135773079D01*
X71791917Y-135777129D01*
X72034314Y-136251836D01*
X72036507Y-136255776D01*
X72312217Y-136711925D01*
X72314678Y-136715685D01*
X72622290Y-137150947D01*
X72625036Y-137154552D01*
X72962987Y-137566712D01*
X72965944Y-137570066D01*
X73101751Y-137713428D01*
X73115482Y-137721415D01*
X73116410Y-137721374D01*
X73124399Y-137716391D01*
X78227978Y-132612812D01*
X78234356Y-132601132D01*
X78964408Y-132601132D01*
X78964539Y-132602965D01*
X78968790Y-132609580D01*
X84073389Y-137714179D01*
X84087333Y-137721793D01*
X84087556Y-137721778D01*
X84096338Y-137715831D01*
X84336905Y-137450987D01*
X84339793Y-137447570D01*
X84669044Y-137028414D01*
X84671701Y-137024771D01*
X84970130Y-136583164D01*
X84972526Y-136579329D01*
X85238617Y-136117514D01*
X85240726Y-136113531D01*
X85473116Y-135633878D01*
X85474941Y-135629741D01*
X85672446Y-135134690D01*
X85673961Y-135130460D01*
X85835567Y-134622549D01*
X85836781Y-134618202D01*
X85961661Y-134100034D01*
X85962555Y-134095638D01*
X86050064Y-133569885D01*
X86050649Y-133565380D01*
X86100363Y-133034517D01*
X86100613Y-133030439D01*
X86112954Y-132602024D01*
X86112939Y-132597967D01*
X86093866Y-132065096D01*
X86093544Y-132060601D01*
X86036442Y-131530662D01*
X86035800Y-131526211D01*
X85940955Y-131001710D01*
X85939999Y-130997327D01*
X85807892Y-130480933D01*
X85806630Y-130476645D01*
X85637938Y-129971015D01*
X85636370Y-129966818D01*
X85431966Y-129474558D01*
X85430088Y-129470456D01*
X85191023Y-128994094D01*
X85188855Y-128990133D01*
X84916347Y-128532090D01*
X84913891Y-128528279D01*
X84609331Y-128090890D01*
X84606624Y-128087284D01*
X84271552Y-127672765D01*
X84268609Y-127669380D01*
X84098034Y-127486780D01*
X84084361Y-127478698D01*
X84083667Y-127478724D01*
X84075320Y-127483890D01*
X78972022Y-132587188D01*
X78964408Y-132601132D01*
X78234356Y-132601132D01*
X78235592Y-132598868D01*
X78235461Y-132597035D01*
X78231210Y-132590420D01*
X73127007Y-127486217D01*
X73113063Y-127478603D01*
X73112606Y-127478635D01*
X73104130Y-127484332D01*
X72897104Y-127709077D01*
X72894190Y-127712477D01*
X72562015Y-128129331D01*
X72559344Y-128132941D01*
X72257831Y-128572465D01*
X72255409Y-128576283D01*
X71986107Y-129036216D01*
X71983964Y-129040196D01*
X71748233Y-129518211D01*
X71746376Y-129522343D01*
X71545427Y-130015984D01*
X71543874Y-130020230D01*
X71378729Y-130526984D01*
X71377484Y-130531326D01*
X71248991Y-131048608D01*
X71248067Y-131052991D01*
X71156885Y-131578152D01*
X71156274Y-131582609D01*
X71102873Y-132112930D01*
X71102583Y-132117413D01*
X71087236Y-132650201D01*
X61110650Y-132650201D01*
X61112954Y-132570224D01*
X61112939Y-132566167D01*
X61093866Y-132033296D01*
X61093544Y-132028801D01*
X61036442Y-131498862D01*
X61035800Y-131494411D01*
X60940955Y-130969910D01*
X60939999Y-130965527D01*
X60807892Y-130449133D01*
X60806630Y-130444845D01*
X60637938Y-129939215D01*
X60636370Y-129935018D01*
X60431966Y-129442758D01*
X60430088Y-129438656D01*
X60191023Y-128962294D01*
X60188855Y-128958333D01*
X59916347Y-128500290D01*
X59913891Y-128496479D01*
X59609331Y-128059090D01*
X59606624Y-128055484D01*
X59271552Y-127640965D01*
X59268609Y-127637580D01*
X59098034Y-127454980D01*
X59084361Y-127446898D01*
X59083667Y-127446924D01*
X59075320Y-127452090D01*
X53972022Y-132555388D01*
X53964408Y-132569332D01*
X53234356Y-132569332D01*
X53235592Y-132567068D01*
X53235461Y-132565235D01*
X53231210Y-132558620D01*
X48127007Y-127454417D01*
X48113063Y-127446803D01*
X48112606Y-127446835D01*
X48104130Y-127452532D01*
X47897104Y-127677277D01*
X47894190Y-127680677D01*
X47562015Y-128097531D01*
X47559344Y-128101141D01*
X47257831Y-128540665D01*
X47255409Y-128544483D01*
X46986107Y-129004416D01*
X46983964Y-129008396D01*
X46748233Y-129486411D01*
X46746376Y-129490543D01*
X46545427Y-129984184D01*
X46543874Y-129988430D01*
X46378729Y-130495184D01*
X46377484Y-130499526D01*
X46248991Y-131016808D01*
X46248067Y-131021191D01*
X46156885Y-131546352D01*
X46156274Y-131550809D01*
X46102873Y-132081130D01*
X46102583Y-132085613D01*
X46087236Y-132618401D01*
X36112482Y-132618401D01*
X36112954Y-132602024D01*
X36112939Y-132597967D01*
X36093866Y-132065096D01*
X36093544Y-132060601D01*
X36036442Y-131530662D01*
X36035800Y-131526211D01*
X35940955Y-131001710D01*
X35939999Y-130997327D01*
X35807892Y-130480933D01*
X35806630Y-130476645D01*
X35637938Y-129971015D01*
X35636370Y-129966818D01*
X35431966Y-129474558D01*
X35430088Y-129470456D01*
X35191023Y-128994094D01*
X35188855Y-128990133D01*
X34916347Y-128532090D01*
X34913891Y-128528279D01*
X34609331Y-128090890D01*
X34606624Y-128087284D01*
X34271552Y-127672765D01*
X34268609Y-127669380D01*
X34098034Y-127486780D01*
X34084361Y-127478698D01*
X34083667Y-127478724D01*
X34075320Y-127483890D01*
X28972022Y-132587188D01*
X28964408Y-132601132D01*
X28234356Y-132601132D01*
X28235592Y-132598868D01*
X28235461Y-132597035D01*
X28231210Y-132590420D01*
X23127007Y-127486217D01*
X23113063Y-127478603D01*
X23112606Y-127478635D01*
X23104130Y-127484332D01*
X22897104Y-127709077D01*
X22894190Y-127712477D01*
X22562015Y-128129331D01*
X22559344Y-128132941D01*
X22257831Y-128572465D01*
X22255409Y-128576283D01*
X21986107Y-129036216D01*
X21983964Y-129040196D01*
X21748233Y-129518211D01*
X21746376Y-129522343D01*
X21545427Y-130015984D01*
X21543874Y-130020230D01*
X21378729Y-130526984D01*
X21377484Y-130531326D01*
X21248991Y-131048608D01*
X21248067Y-131052991D01*
X21156885Y-131578152D01*
X21156274Y-131582609D01*
X21102873Y-132112930D01*
X21102583Y-132117413D01*
X21087236Y-132650201D01*
X16608000Y-132650201D01*
X16608000Y-127115591D01*
X23478674Y-127115591D01*
X23478707Y-127116404D01*
X23483783Y-127124573D01*
X28587188Y-132227978D01*
X28601132Y-132235592D01*
X28602965Y-132235461D01*
X28609580Y-132231210D01*
X33713682Y-127127108D01*
X33721296Y-127113164D01*
X33721255Y-127112590D01*
X33715684Y-127104268D01*
X33693609Y-127083791D01*
X48478674Y-127083791D01*
X48478707Y-127084604D01*
X48483783Y-127092773D01*
X53587188Y-132196178D01*
X53601132Y-132203792D01*
X53602965Y-132203661D01*
X53609580Y-132199410D01*
X58693399Y-127115591D01*
X73478674Y-127115591D01*
X73478707Y-127116404D01*
X73483783Y-127124573D01*
X78587188Y-132227978D01*
X78601132Y-132235592D01*
X78602965Y-132235461D01*
X78609580Y-132231210D01*
X83713682Y-127127108D01*
X83721296Y-127113164D01*
X83721255Y-127112590D01*
X83715684Y-127104268D01*
X83510818Y-126914228D01*
X83507387Y-126911267D01*
X83091729Y-126577666D01*
X83088115Y-126574972D01*
X82649654Y-126271933D01*
X82645835Y-126269490D01*
X82186846Y-125998585D01*
X82182877Y-125996430D01*
X81705679Y-125759028D01*
X81701575Y-125757166D01*
X81208610Y-125554483D01*
X81204395Y-125552924D01*
X80698199Y-125386006D01*
X80693883Y-125384752D01*
X80177042Y-125254451D01*
X80172665Y-125253513D01*
X79647822Y-125160496D01*
X79643365Y-125159870D01*
X79113241Y-125104620D01*
X79108747Y-125104313D01*
X78576027Y-125087107D01*
X78571530Y-125087122D01*
X78038927Y-125108048D01*
X78034451Y-125108384D01*
X77504713Y-125167336D01*
X77500261Y-125167994D01*
X76976106Y-125264667D01*
X76971701Y-125265643D01*
X76455801Y-125399545D01*
X76451490Y-125400830D01*
X75946471Y-125571278D01*
X75942259Y-125572870D01*
X75450723Y-125778988D01*
X75446647Y-125780871D01*
X74971109Y-126021605D01*
X74967158Y-126023786D01*
X74510063Y-126297893D01*
X74506267Y-126300358D01*
X74069930Y-126606452D01*
X74066347Y-126609162D01*
X73653007Y-126945674D01*
X73649617Y-126948642D01*
X73486708Y-127101891D01*
X73478674Y-127115591D01*
X58693399Y-127115591D01*
X58713682Y-127095308D01*
X58721296Y-127081364D01*
X58721255Y-127080790D01*
X58715684Y-127072468D01*
X58510818Y-126882428D01*
X58507387Y-126879467D01*
X58091729Y-126545866D01*
X58088115Y-126543172D01*
X57649654Y-126240133D01*
X57645835Y-126237690D01*
X57186846Y-125966785D01*
X57182877Y-125964630D01*
X56705679Y-125727228D01*
X56701575Y-125725366D01*
X56208610Y-125522683D01*
X56204395Y-125521124D01*
X55698199Y-125354206D01*
X55693883Y-125352952D01*
X55177042Y-125222651D01*
X55172665Y-125221713D01*
X54647822Y-125128696D01*
X54643365Y-125128070D01*
X54113241Y-125072820D01*
X54108747Y-125072513D01*
X53576027Y-125055307D01*
X53571530Y-125055322D01*
X53038927Y-125076248D01*
X53034451Y-125076584D01*
X52504713Y-125135536D01*
X52500261Y-125136194D01*
X51976106Y-125232867D01*
X51971701Y-125233843D01*
X51455801Y-125367745D01*
X51451490Y-125369030D01*
X50946471Y-125539478D01*
X50942259Y-125541070D01*
X50450723Y-125747188D01*
X50446647Y-125749071D01*
X49971109Y-125989805D01*
X49967158Y-125991986D01*
X49510063Y-126266093D01*
X49506267Y-126268558D01*
X49069930Y-126574652D01*
X49066347Y-126577362D01*
X48653007Y-126913874D01*
X48649617Y-126916842D01*
X48486708Y-127070091D01*
X48478674Y-127083791D01*
X33693609Y-127083791D01*
X33510818Y-126914228D01*
X33507387Y-126911267D01*
X33091729Y-126577666D01*
X33088115Y-126574972D01*
X32649654Y-126271933D01*
X32645835Y-126269490D01*
X32186846Y-125998585D01*
X32182877Y-125996430D01*
X31705679Y-125759028D01*
X31701575Y-125757166D01*
X31208610Y-125554483D01*
X31204395Y-125552924D01*
X30698199Y-125386006D01*
X30693883Y-125384752D01*
X30177042Y-125254451D01*
X30172665Y-125253513D01*
X29647822Y-125160496D01*
X29643365Y-125159870D01*
X29113241Y-125104620D01*
X29108747Y-125104313D01*
X28576027Y-125087107D01*
X28571530Y-125087122D01*
X28038927Y-125108048D01*
X28034451Y-125108384D01*
X27504713Y-125167336D01*
X27500261Y-125167994D01*
X26976106Y-125264667D01*
X26971701Y-125265643D01*
X26455801Y-125399545D01*
X26451490Y-125400830D01*
X25946471Y-125571278D01*
X25942259Y-125572870D01*
X25450723Y-125778988D01*
X25446647Y-125780871D01*
X24971109Y-126021605D01*
X24967158Y-126023786D01*
X24510063Y-126297893D01*
X24506267Y-126300358D01*
X24069930Y-126606452D01*
X24066347Y-126609162D01*
X23653007Y-126945674D01*
X23649617Y-126948642D01*
X23486708Y-127101891D01*
X23478674Y-127115591D01*
X16608000Y-127115591D01*
X16608000Y-105669652D01*
X27291524Y-105669652D01*
X27293990Y-105678281D01*
X27293991Y-105678286D01*
X27299639Y-105698048D01*
X27303217Y-105714809D01*
X27306130Y-105735152D01*
X27306133Y-105735162D01*
X27307405Y-105744045D01*
X27318021Y-105767395D01*
X27324464Y-105784907D01*
X27331512Y-105809565D01*
X27347274Y-105834548D01*
X27355404Y-105849614D01*
X27367633Y-105876510D01*
X27384374Y-105895939D01*
X27395479Y-105910947D01*
X27409160Y-105932631D01*
X27415888Y-105938573D01*
X27431296Y-105952181D01*
X27443340Y-105964373D01*
X27462619Y-105986747D01*
X27470147Y-105991626D01*
X27470150Y-105991629D01*
X27484139Y-106000696D01*
X27499013Y-106011986D01*
X27518228Y-106028956D01*
X27526354Y-106032771D01*
X27526355Y-106032772D01*
X27532021Y-106035432D01*
X27544966Y-106041510D01*
X27559935Y-106049824D01*
X27584727Y-106065893D01*
X27601650Y-106070954D01*
X27609290Y-106073239D01*
X27626736Y-106079901D01*
X27649948Y-106090799D01*
X27679130Y-106095343D01*
X27695849Y-106099126D01*
X27715536Y-106105014D01*
X27715539Y-106105015D01*
X27724141Y-106107587D01*
X27733116Y-106107642D01*
X27733117Y-106107642D01*
X27739810Y-106107683D01*
X27758556Y-106107797D01*
X27759328Y-106107830D01*
X27760423Y-106108000D01*
X27791298Y-106108000D01*
X27792068Y-106108002D01*
X27865716Y-106108452D01*
X27865717Y-106108452D01*
X27869652Y-106108476D01*
X27870996Y-106108092D01*
X27872341Y-106108000D01*
X29391298Y-106108000D01*
X29392069Y-106108002D01*
X29469652Y-106108476D01*
X29478281Y-106106010D01*
X29478286Y-106106009D01*
X29498048Y-106100361D01*
X29514809Y-106096783D01*
X29535152Y-106093870D01*
X29535162Y-106093867D01*
X29544045Y-106092595D01*
X29567395Y-106081979D01*
X29584907Y-106075536D01*
X29600937Y-106070954D01*
X29609565Y-106068488D01*
X29634548Y-106052726D01*
X29649614Y-106044596D01*
X29676510Y-106032367D01*
X29695939Y-106015626D01*
X29710947Y-106004521D01*
X29725039Y-105995630D01*
X29732631Y-105990840D01*
X29752182Y-105968703D01*
X29764374Y-105956659D01*
X29779949Y-105943239D01*
X29779950Y-105943237D01*
X29786747Y-105937381D01*
X29791626Y-105929853D01*
X29791629Y-105929850D01*
X29800696Y-105915861D01*
X29811986Y-105900987D01*
X29823012Y-105888502D01*
X29828956Y-105881772D01*
X29841510Y-105855034D01*
X29849824Y-105840065D01*
X29865893Y-105815273D01*
X29873239Y-105790709D01*
X29879901Y-105773264D01*
X29886983Y-105758179D01*
X29890799Y-105750052D01*
X29895343Y-105720870D01*
X29899126Y-105704151D01*
X29905014Y-105684464D01*
X29905015Y-105684461D01*
X29907587Y-105675859D01*
X29907625Y-105669652D01*
X52291524Y-105669652D01*
X52293990Y-105678281D01*
X52293991Y-105678286D01*
X52299639Y-105698048D01*
X52303217Y-105714809D01*
X52306130Y-105735152D01*
X52306133Y-105735162D01*
X52307405Y-105744045D01*
X52318021Y-105767395D01*
X52324464Y-105784907D01*
X52331512Y-105809565D01*
X52347274Y-105834548D01*
X52355404Y-105849614D01*
X52367633Y-105876510D01*
X52384374Y-105895939D01*
X52395479Y-105910947D01*
X52409160Y-105932631D01*
X52415888Y-105938573D01*
X52431296Y-105952181D01*
X52443340Y-105964373D01*
X52462619Y-105986747D01*
X52470147Y-105991626D01*
X52470150Y-105991629D01*
X52484139Y-106000696D01*
X52499013Y-106011986D01*
X52518228Y-106028956D01*
X52526354Y-106032771D01*
X52526355Y-106032772D01*
X52532021Y-106035432D01*
X52544966Y-106041510D01*
X52559935Y-106049824D01*
X52584727Y-106065893D01*
X52601650Y-106070954D01*
X52609290Y-106073239D01*
X52626736Y-106079901D01*
X52649948Y-106090799D01*
X52679130Y-106095343D01*
X52695849Y-106099126D01*
X52715536Y-106105014D01*
X52715539Y-106105015D01*
X52724141Y-106107587D01*
X52733116Y-106107642D01*
X52733117Y-106107642D01*
X52739810Y-106107683D01*
X52758556Y-106107797D01*
X52759328Y-106107830D01*
X52760423Y-106108000D01*
X52791298Y-106108000D01*
X52792068Y-106108002D01*
X52865716Y-106108452D01*
X52865717Y-106108452D01*
X52869652Y-106108476D01*
X52870996Y-106108092D01*
X52872341Y-106108000D01*
X54391298Y-106108000D01*
X54392069Y-106108002D01*
X54469652Y-106108476D01*
X54478281Y-106106010D01*
X54478286Y-106106009D01*
X54498048Y-106100361D01*
X54514809Y-106096783D01*
X54535152Y-106093870D01*
X54535162Y-106093867D01*
X54544045Y-106092595D01*
X54567395Y-106081979D01*
X54584907Y-106075536D01*
X54600937Y-106070954D01*
X54609565Y-106068488D01*
X54634548Y-106052726D01*
X54649614Y-106044596D01*
X54676510Y-106032367D01*
X54695939Y-106015626D01*
X54710947Y-106004521D01*
X54725039Y-105995630D01*
X54732631Y-105990840D01*
X54752182Y-105968703D01*
X54764374Y-105956659D01*
X54779949Y-105943239D01*
X54779950Y-105943237D01*
X54786747Y-105937381D01*
X54791626Y-105929853D01*
X54791629Y-105929850D01*
X54800696Y-105915861D01*
X54811986Y-105900987D01*
X54823012Y-105888502D01*
X54828956Y-105881772D01*
X54841510Y-105855034D01*
X54849824Y-105840065D01*
X54865893Y-105815273D01*
X54873239Y-105790709D01*
X54879901Y-105773264D01*
X54886983Y-105758179D01*
X54890799Y-105750052D01*
X54895343Y-105720870D01*
X54899126Y-105704151D01*
X54905014Y-105684464D01*
X54905015Y-105684461D01*
X54907587Y-105675859D01*
X54907625Y-105669652D01*
X77291524Y-105669652D01*
X77293990Y-105678281D01*
X77293991Y-105678286D01*
X77299639Y-105698048D01*
X77303217Y-105714809D01*
X77306130Y-105735152D01*
X77306133Y-105735162D01*
X77307405Y-105744045D01*
X77318021Y-105767395D01*
X77324464Y-105784907D01*
X77331512Y-105809565D01*
X77347274Y-105834548D01*
X77355404Y-105849614D01*
X77367633Y-105876510D01*
X77384374Y-105895939D01*
X77395479Y-105910947D01*
X77409160Y-105932631D01*
X77415888Y-105938573D01*
X77431296Y-105952181D01*
X77443340Y-105964373D01*
X77462619Y-105986747D01*
X77470147Y-105991626D01*
X77470150Y-105991629D01*
X77484139Y-106000696D01*
X77499013Y-106011986D01*
X77518228Y-106028956D01*
X77526354Y-106032771D01*
X77526355Y-106032772D01*
X77532021Y-106035432D01*
X77544966Y-106041510D01*
X77559935Y-106049824D01*
X77584727Y-106065893D01*
X77601650Y-106070954D01*
X77609290Y-106073239D01*
X77626736Y-106079901D01*
X77649948Y-106090799D01*
X77679130Y-106095343D01*
X77695849Y-106099126D01*
X77715536Y-106105014D01*
X77715539Y-106105015D01*
X77724141Y-106107587D01*
X77733116Y-106107642D01*
X77733117Y-106107642D01*
X77739810Y-106107683D01*
X77758556Y-106107797D01*
X77759328Y-106107830D01*
X77760423Y-106108000D01*
X77791298Y-106108000D01*
X77792068Y-106108002D01*
X77865716Y-106108452D01*
X77865717Y-106108452D01*
X77869652Y-106108476D01*
X77870996Y-106108092D01*
X77872341Y-106108000D01*
X79391298Y-106108000D01*
X79392069Y-106108002D01*
X79469652Y-106108476D01*
X79478281Y-106106010D01*
X79478286Y-106106009D01*
X79498048Y-106100361D01*
X79514809Y-106096783D01*
X79535152Y-106093870D01*
X79535162Y-106093867D01*
X79544045Y-106092595D01*
X79567395Y-106081979D01*
X79584907Y-106075536D01*
X79600937Y-106070954D01*
X79609565Y-106068488D01*
X79634548Y-106052726D01*
X79649614Y-106044596D01*
X79676510Y-106032367D01*
X79695939Y-106015626D01*
X79710947Y-106004521D01*
X79725039Y-105995630D01*
X79732631Y-105990840D01*
X79752182Y-105968703D01*
X79764374Y-105956659D01*
X79779949Y-105943239D01*
X79779950Y-105943237D01*
X79786747Y-105937381D01*
X79791626Y-105929853D01*
X79791629Y-105929850D01*
X79800696Y-105915861D01*
X79811986Y-105900987D01*
X79823012Y-105888502D01*
X79828956Y-105881772D01*
X79841510Y-105855034D01*
X79849824Y-105840065D01*
X79865893Y-105815273D01*
X79873239Y-105790709D01*
X79879901Y-105773264D01*
X79886983Y-105758179D01*
X79890799Y-105750052D01*
X79895343Y-105720870D01*
X79899126Y-105704151D01*
X79905014Y-105684464D01*
X79905015Y-105684461D01*
X79907587Y-105675859D01*
X79907797Y-105641444D01*
X79907830Y-105640672D01*
X79908000Y-105639577D01*
X79908000Y-105608702D01*
X79908002Y-105607932D01*
X79908452Y-105534284D01*
X79908452Y-105534283D01*
X79908476Y-105530348D01*
X79908092Y-105529004D01*
X79908000Y-105527659D01*
X79908000Y-39608702D01*
X79908002Y-39607932D01*
X79908421Y-39539322D01*
X79908476Y-39530348D01*
X79906010Y-39521719D01*
X79906009Y-39521714D01*
X79900361Y-39501952D01*
X79896783Y-39485191D01*
X79893870Y-39464848D01*
X79893867Y-39464838D01*
X79892595Y-39455955D01*
X79881979Y-39432605D01*
X79875536Y-39415093D01*
X79870954Y-39399063D01*
X79868488Y-39390435D01*
X79852726Y-39365452D01*
X79844596Y-39350386D01*
X79832367Y-39323490D01*
X79815626Y-39304061D01*
X79804521Y-39289053D01*
X79795630Y-39274961D01*
X79790840Y-39267369D01*
X79768703Y-39247818D01*
X79756659Y-39235626D01*
X79743239Y-39220051D01*
X79743237Y-39220050D01*
X79737381Y-39213253D01*
X79729853Y-39208374D01*
X79729850Y-39208371D01*
X79715861Y-39199304D01*
X79700987Y-39188014D01*
X79688502Y-39176988D01*
X79681772Y-39171044D01*
X79673646Y-39167229D01*
X79673645Y-39167228D01*
X79667979Y-39164568D01*
X79655034Y-39158490D01*
X79640065Y-39150176D01*
X79615273Y-39134107D01*
X79590709Y-39126761D01*
X79573264Y-39120099D01*
X79568827Y-39118016D01*
X79550052Y-39109201D01*
X79520870Y-39104657D01*
X79504151Y-39100874D01*
X79484464Y-39094986D01*
X79484461Y-39094985D01*
X79475859Y-39092413D01*
X79466884Y-39092358D01*
X79466883Y-39092358D01*
X79460190Y-39092317D01*
X79441444Y-39092203D01*
X79440672Y-39092170D01*
X79439577Y-39092000D01*
X79408702Y-39092000D01*
X79407932Y-39091998D01*
X79334284Y-39091548D01*
X79334283Y-39091548D01*
X79330348Y-39091524D01*
X79329004Y-39091908D01*
X79327659Y-39092000D01*
X77808702Y-39092000D01*
X77807932Y-39091998D01*
X77807078Y-39091993D01*
X77730348Y-39091524D01*
X77721719Y-39093990D01*
X77721714Y-39093991D01*
X77701952Y-39099639D01*
X77685191Y-39103217D01*
X77664848Y-39106130D01*
X77664838Y-39106133D01*
X77655955Y-39107405D01*
X77632605Y-39118021D01*
X77615093Y-39124464D01*
X77607057Y-39126761D01*
X77590435Y-39131512D01*
X77565452Y-39147274D01*
X77550386Y-39155404D01*
X77523490Y-39167633D01*
X77504061Y-39184374D01*
X77489053Y-39195479D01*
X77467369Y-39209160D01*
X77461427Y-39215888D01*
X77447819Y-39231296D01*
X77435627Y-39243340D01*
X77413253Y-39262619D01*
X77408374Y-39270147D01*
X77408371Y-39270150D01*
X77399304Y-39284139D01*
X77388014Y-39299013D01*
X77371044Y-39318228D01*
X77358490Y-39344966D01*
X77350176Y-39359935D01*
X77334107Y-39384727D01*
X77331535Y-39393327D01*
X77326761Y-39409290D01*
X77320099Y-39426736D01*
X77309201Y-39449948D01*
X77304658Y-39479128D01*
X77300874Y-39495849D01*
X77294986Y-39515536D01*
X77294985Y-39515539D01*
X77292413Y-39524141D01*
X77292358Y-39533116D01*
X77292358Y-39533117D01*
X77292203Y-39558546D01*
X77292170Y-39559328D01*
X77292000Y-39560423D01*
X77292000Y-39591298D01*
X77291998Y-39592068D01*
X77291524Y-39669652D01*
X77291908Y-39670996D01*
X77292000Y-39672341D01*
X77292000Y-105591298D01*
X77291998Y-105592068D01*
X77291524Y-105669652D01*
X54907625Y-105669652D01*
X54907797Y-105641444D01*
X54907830Y-105640672D01*
X54908000Y-105639577D01*
X54908000Y-105608702D01*
X54908002Y-105607932D01*
X54908452Y-105534284D01*
X54908452Y-105534283D01*
X54908476Y-105530348D01*
X54908092Y-105529004D01*
X54908000Y-105527659D01*
X54908000Y-39608702D01*
X54908002Y-39607932D01*
X54908421Y-39539322D01*
X54908476Y-39530348D01*
X54906010Y-39521719D01*
X54906009Y-39521714D01*
X54900361Y-39501952D01*
X54896783Y-39485191D01*
X54893870Y-39464848D01*
X54893867Y-39464838D01*
X54892595Y-39455955D01*
X54881979Y-39432605D01*
X54875536Y-39415093D01*
X54870954Y-39399063D01*
X54868488Y-39390435D01*
X54852726Y-39365452D01*
X54844596Y-39350386D01*
X54832367Y-39323490D01*
X54815626Y-39304061D01*
X54804521Y-39289053D01*
X54795630Y-39274961D01*
X54790840Y-39267369D01*
X54768703Y-39247818D01*
X54756659Y-39235626D01*
X54743239Y-39220051D01*
X54743237Y-39220050D01*
X54737381Y-39213253D01*
X54729853Y-39208374D01*
X54729850Y-39208371D01*
X54715861Y-39199304D01*
X54700987Y-39188014D01*
X54688502Y-39176988D01*
X54681772Y-39171044D01*
X54673646Y-39167229D01*
X54673645Y-39167228D01*
X54667979Y-39164568D01*
X54655034Y-39158490D01*
X54640065Y-39150176D01*
X54615273Y-39134107D01*
X54590709Y-39126761D01*
X54573264Y-39120099D01*
X54568827Y-39118016D01*
X54550052Y-39109201D01*
X54520870Y-39104657D01*
X54504151Y-39100874D01*
X54484464Y-39094986D01*
X54484461Y-39094985D01*
X54475859Y-39092413D01*
X54466884Y-39092358D01*
X54466883Y-39092358D01*
X54460190Y-39092317D01*
X54441444Y-39092203D01*
X54440672Y-39092170D01*
X54439577Y-39092000D01*
X54408702Y-39092000D01*
X54407932Y-39091998D01*
X54334284Y-39091548D01*
X54334283Y-39091548D01*
X54330348Y-39091524D01*
X54329004Y-39091908D01*
X54327659Y-39092000D01*
X52808702Y-39092000D01*
X52807932Y-39091998D01*
X52807078Y-39091993D01*
X52730348Y-39091524D01*
X52721719Y-39093990D01*
X52721714Y-39093991D01*
X52701952Y-39099639D01*
X52685191Y-39103217D01*
X52664848Y-39106130D01*
X52664838Y-39106133D01*
X52655955Y-39107405D01*
X52632605Y-39118021D01*
X52615093Y-39124464D01*
X52607057Y-39126761D01*
X52590435Y-39131512D01*
X52565452Y-39147274D01*
X52550386Y-39155404D01*
X52523490Y-39167633D01*
X52504061Y-39184374D01*
X52489053Y-39195479D01*
X52467369Y-39209160D01*
X52461427Y-39215888D01*
X52447819Y-39231296D01*
X52435627Y-39243340D01*
X52413253Y-39262619D01*
X52408374Y-39270147D01*
X52408371Y-39270150D01*
X52399304Y-39284139D01*
X52388014Y-39299013D01*
X52371044Y-39318228D01*
X52358490Y-39344966D01*
X52350176Y-39359935D01*
X52334107Y-39384727D01*
X52331535Y-39393327D01*
X52326761Y-39409290D01*
X52320099Y-39426736D01*
X52309201Y-39449948D01*
X52304658Y-39479128D01*
X52300874Y-39495849D01*
X52294986Y-39515536D01*
X52294985Y-39515539D01*
X52292413Y-39524141D01*
X52292358Y-39533116D01*
X52292358Y-39533117D01*
X52292203Y-39558546D01*
X52292170Y-39559328D01*
X52292000Y-39560423D01*
X52292000Y-39591298D01*
X52291998Y-39592068D01*
X52291524Y-39669652D01*
X52291908Y-39670996D01*
X52292000Y-39672341D01*
X52292000Y-105591298D01*
X52291998Y-105592068D01*
X52291524Y-105669652D01*
X29907625Y-105669652D01*
X29907797Y-105641444D01*
X29907830Y-105640672D01*
X29908000Y-105639577D01*
X29908000Y-105608702D01*
X29908002Y-105607932D01*
X29908452Y-105534284D01*
X29908452Y-105534283D01*
X29908476Y-105530348D01*
X29908092Y-105529004D01*
X29908000Y-105527659D01*
X29908000Y-39608702D01*
X29908002Y-39607932D01*
X29908421Y-39539322D01*
X29908476Y-39530348D01*
X29906010Y-39521719D01*
X29906009Y-39521714D01*
X29900361Y-39501952D01*
X29896783Y-39485191D01*
X29893870Y-39464848D01*
X29893867Y-39464838D01*
X29892595Y-39455955D01*
X29881979Y-39432605D01*
X29875536Y-39415093D01*
X29870954Y-39399063D01*
X29868488Y-39390435D01*
X29852726Y-39365452D01*
X29844596Y-39350386D01*
X29832367Y-39323490D01*
X29815626Y-39304061D01*
X29804521Y-39289053D01*
X29795630Y-39274961D01*
X29790840Y-39267369D01*
X29768703Y-39247818D01*
X29756659Y-39235626D01*
X29743239Y-39220051D01*
X29743237Y-39220050D01*
X29737381Y-39213253D01*
X29729853Y-39208374D01*
X29729850Y-39208371D01*
X29715861Y-39199304D01*
X29700987Y-39188014D01*
X29688502Y-39176988D01*
X29681772Y-39171044D01*
X29673646Y-39167229D01*
X29673645Y-39167228D01*
X29667979Y-39164568D01*
X29655034Y-39158490D01*
X29640065Y-39150176D01*
X29615273Y-39134107D01*
X29590709Y-39126761D01*
X29573264Y-39120099D01*
X29568827Y-39118016D01*
X29550052Y-39109201D01*
X29520870Y-39104657D01*
X29504151Y-39100874D01*
X29484464Y-39094986D01*
X29484461Y-39094985D01*
X29475859Y-39092413D01*
X29466884Y-39092358D01*
X29466883Y-39092358D01*
X29460190Y-39092317D01*
X29441444Y-39092203D01*
X29440672Y-39092170D01*
X29439577Y-39092000D01*
X29408702Y-39092000D01*
X29407932Y-39091998D01*
X29334284Y-39091548D01*
X29334283Y-39091548D01*
X29330348Y-39091524D01*
X29329004Y-39091908D01*
X29327659Y-39092000D01*
X27808702Y-39092000D01*
X27807932Y-39091998D01*
X27807078Y-39091993D01*
X27730348Y-39091524D01*
X27721719Y-39093990D01*
X27721714Y-39093991D01*
X27701952Y-39099639D01*
X27685191Y-39103217D01*
X27664848Y-39106130D01*
X27664838Y-39106133D01*
X27655955Y-39107405D01*
X27632605Y-39118021D01*
X27615093Y-39124464D01*
X27607057Y-39126761D01*
X27590435Y-39131512D01*
X27565452Y-39147274D01*
X27550386Y-39155404D01*
X27523490Y-39167633D01*
X27504061Y-39184374D01*
X27489053Y-39195479D01*
X27467369Y-39209160D01*
X27461427Y-39215888D01*
X27447819Y-39231296D01*
X27435627Y-39243340D01*
X27413253Y-39262619D01*
X27408374Y-39270147D01*
X27408371Y-39270150D01*
X27399304Y-39284139D01*
X27388014Y-39299013D01*
X27371044Y-39318228D01*
X27358490Y-39344966D01*
X27350176Y-39359935D01*
X27334107Y-39384727D01*
X27331535Y-39393327D01*
X27326761Y-39409290D01*
X27320099Y-39426736D01*
X27309201Y-39449948D01*
X27304658Y-39479128D01*
X27300874Y-39495849D01*
X27294986Y-39515536D01*
X27294985Y-39515539D01*
X27292413Y-39524141D01*
X27292358Y-39533116D01*
X27292358Y-39533117D01*
X27292203Y-39558546D01*
X27292170Y-39559328D01*
X27292000Y-39560423D01*
X27292000Y-39591298D01*
X27291998Y-39592068D01*
X27291524Y-39669652D01*
X27291908Y-39670996D01*
X27292000Y-39672341D01*
X27292000Y-105591298D01*
X27291998Y-105592068D01*
X27291524Y-105669652D01*
X16608000Y-105669652D01*
X16608000Y-11763787D01*
X16628002Y-11695666D01*
X16681658Y-11649173D01*
X16751932Y-11639069D01*
X16816512Y-11668563D01*
X16844415Y-11703086D01*
X16976330Y-11943039D01*
X16980570Y-11949719D01*
X17161404Y-12198616D01*
X17166443Y-12204707D01*
X17377046Y-12428977D01*
X17382813Y-12434393D01*
X17619868Y-12630502D01*
X17626271Y-12635153D01*
X17886026Y-12799999D01*
X17892959Y-12803811D01*
X18171328Y-12934801D01*
X18178691Y-12937716D01*
X18471277Y-13032783D01*
X18478954Y-13034754D01*
X18781145Y-13092400D01*
X18789006Y-13093393D01*
X19019180Y-13107874D01*
X19023171Y-13108000D01*
X20227885Y-13108000D01*
X20243124Y-13103525D01*
X20244329Y-13102135D01*
X20246000Y-13094452D01*
X20246000Y-13089885D01*
X20754000Y-13089885D01*
X20758475Y-13105124D01*
X20759865Y-13106329D01*
X20767548Y-13108000D01*
X21976829Y-13108000D01*
X21980820Y-13107874D01*
X22210994Y-13093393D01*
X22218855Y-13092400D01*
X22521046Y-13034754D01*
X22528723Y-13032783D01*
X22821309Y-12937716D01*
X22828672Y-12934801D01*
X23107041Y-12803811D01*
X23113974Y-12799999D01*
X23373729Y-12635153D01*
X23380132Y-12630502D01*
X23617187Y-12434393D01*
X23622954Y-12428977D01*
X23833557Y-12204707D01*
X23838596Y-12198616D01*
X24019430Y-11949719D01*
X24023670Y-11943039D01*
X24171890Y-11673428D01*
X24175247Y-11666293D01*
X24288508Y-11380230D01*
X24290953Y-11372704D01*
X24367462Y-11074721D01*
X24368945Y-11066950D01*
X24393575Y-10871974D01*
X24393487Y-10871426D01*
X82806355Y-10871426D01*
X82831055Y-11066950D01*
X82832538Y-11074721D01*
X82909047Y-11372704D01*
X82911492Y-11380230D01*
X83024753Y-11666293D01*
X83028110Y-11673428D01*
X83176330Y-11943039D01*
X83180570Y-11949719D01*
X83361404Y-12198616D01*
X83366443Y-12204707D01*
X83577046Y-12428977D01*
X83582813Y-12434393D01*
X83819868Y-12630502D01*
X83826271Y-12635153D01*
X84086026Y-12799999D01*
X84092959Y-12803811D01*
X84371328Y-12934801D01*
X84378691Y-12937716D01*
X84671277Y-13032783D01*
X84678954Y-13034754D01*
X84981145Y-13092400D01*
X84989006Y-13093393D01*
X85219180Y-13107874D01*
X85223171Y-13108000D01*
X86427885Y-13108000D01*
X86443124Y-13103525D01*
X86444329Y-13102135D01*
X86446000Y-13094452D01*
X86446000Y-10872115D01*
X86441525Y-10856876D01*
X86440135Y-10855671D01*
X86432452Y-10854000D01*
X82822269Y-10854000D01*
X82808392Y-10858075D01*
X82806355Y-10871426D01*
X24393487Y-10871426D01*
X24391272Y-10857694D01*
X24378280Y-10854000D01*
X20772115Y-10854000D01*
X20756876Y-10858475D01*
X20755671Y-10859865D01*
X20754000Y-10867548D01*
X20754000Y-13089885D01*
X20246000Y-13089885D01*
X20246000Y-10472000D01*
X20266002Y-10403879D01*
X20319658Y-10357386D01*
X20372000Y-10346000D01*
X24377731Y-10346000D01*
X24391608Y-10341925D01*
X24393645Y-10328574D01*
X24368945Y-10133050D01*
X24367462Y-10125279D01*
X24290953Y-9827296D01*
X24288508Y-9819770D01*
X24175247Y-9533707D01*
X24171890Y-9526572D01*
X24023670Y-9256961D01*
X24019430Y-9250281D01*
X23838596Y-9001384D01*
X23833557Y-8995293D01*
X23622954Y-8771023D01*
X23617187Y-8765607D01*
X23380132Y-8569498D01*
X23373729Y-8564847D01*
X23113974Y-8400001D01*
X23107041Y-8396189D01*
X23004650Y-8348008D01*
X22951529Y-8300905D01*
X22932306Y-8232561D01*
X22953085Y-8164673D01*
X23007268Y-8118796D01*
X23058298Y-8108000D01*
X84141702Y-8108000D01*
X84209823Y-8128002D01*
G37*
G04 #@! TD.AperFunction*
G04 #@! TD*
M02*
