G04 #@! TF.GenerationSoftware,KiCad,Pcbnew,6.0.2-378541a8eb~116~ubuntu20.04.1*
G04 #@! TF.CreationDate,2022-03-12T17:06:17-05:00*
G04 #@! TF.ProjectId,attenuverters_panel,61747465-6e75-4766-9572-746572735f70,rev?*
G04 #@! TF.SameCoordinates,Original*
G04 #@! TF.FileFunction,Legend,Bot*
G04 #@! TF.FilePolarity,Positive*
%FSLAX46Y46*%
G04 Gerber Fmt 4.6, Leading zero omitted, Abs format (unit mm)*
G04 Created by KiCad (PCBNEW 6.0.2-378541a8eb~116~ubuntu20.04.1) date 2022-03-12 17:06:17*
%MOMM*%
%LPD*%
G01*
G04 APERTURE LIST*
%ADD10C,0.300000*%
%ADD11C,0.150000*%
%ADD12C,0.010000*%
G04 APERTURE END LIST*
D10*
X34278571Y-116778571D02*
X34278571Y-115278571D01*
X33564285Y-115778571D02*
X33564285Y-116778571D01*
X33564285Y-115921428D02*
X33492857Y-115850000D01*
X33350000Y-115778571D01*
X33135714Y-115778571D01*
X32992857Y-115850000D01*
X32921428Y-115992857D01*
X32921428Y-116778571D01*
X30278571Y-116778571D02*
X31135714Y-116778571D01*
X30707142Y-116778571D02*
X30707142Y-115278571D01*
X30850000Y-115492857D01*
X30992857Y-115635714D01*
X31135714Y-115707142D01*
X28564285Y-116707142D02*
X28421428Y-116778571D01*
X28135714Y-116778571D01*
X27992857Y-116707142D01*
X27921428Y-116564285D01*
X27921428Y-116492857D01*
X27992857Y-116350000D01*
X28135714Y-116278571D01*
X28350000Y-116278571D01*
X28492857Y-116207142D01*
X28564285Y-116064285D01*
X28564285Y-115992857D01*
X28492857Y-115850000D01*
X28350000Y-115778571D01*
X28135714Y-115778571D01*
X27992857Y-115850000D01*
X27064285Y-116778571D02*
X27207142Y-116707142D01*
X27278571Y-116564285D01*
X27278571Y-115278571D01*
X26492857Y-116778571D02*
X26492857Y-115778571D01*
X26492857Y-115278571D02*
X26564285Y-115350000D01*
X26492857Y-115421428D01*
X26421428Y-115350000D01*
X26492857Y-115278571D01*
X26492857Y-115421428D01*
X25135714Y-116778571D02*
X25135714Y-115278571D01*
X25135714Y-116707142D02*
X25278571Y-116778571D01*
X25564285Y-116778571D01*
X25707142Y-116707142D01*
X25778571Y-116635714D01*
X25850000Y-116492857D01*
X25850000Y-116064285D01*
X25778571Y-115921428D01*
X25707142Y-115850000D01*
X25564285Y-115778571D01*
X25278571Y-115778571D01*
X25135714Y-115850000D01*
X23850000Y-116707142D02*
X23992857Y-116778571D01*
X24278571Y-116778571D01*
X24421428Y-116707142D01*
X24492857Y-116564285D01*
X24492857Y-115992857D01*
X24421428Y-115850000D01*
X24278571Y-115778571D01*
X23992857Y-115778571D01*
X23850000Y-115850000D01*
X23778571Y-115992857D01*
X23778571Y-116135714D01*
X24492857Y-116278571D01*
X23135714Y-116778571D02*
X23135714Y-115778571D01*
X23135714Y-116064285D02*
X23064285Y-115921428D01*
X22992857Y-115850000D01*
X22850000Y-115778571D01*
X22707142Y-115778571D01*
X59278571Y-116778571D02*
X59278571Y-115278571D01*
X58564285Y-115778571D02*
X58564285Y-116778571D01*
X58564285Y-115921428D02*
X58492857Y-115850000D01*
X58350000Y-115778571D01*
X58135714Y-115778571D01*
X57992857Y-115850000D01*
X57921428Y-115992857D01*
X57921428Y-116778571D01*
X56135714Y-115421428D02*
X56064285Y-115350000D01*
X55921428Y-115278571D01*
X55564285Y-115278571D01*
X55421428Y-115350000D01*
X55350000Y-115421428D01*
X55278571Y-115564285D01*
X55278571Y-115707142D01*
X55350000Y-115921428D01*
X56207142Y-116778571D01*
X55278571Y-116778571D01*
X53564285Y-116707142D02*
X53421428Y-116778571D01*
X53135714Y-116778571D01*
X52992857Y-116707142D01*
X52921428Y-116564285D01*
X52921428Y-116492857D01*
X52992857Y-116350000D01*
X53135714Y-116278571D01*
X53350000Y-116278571D01*
X53492857Y-116207142D01*
X53564285Y-116064285D01*
X53564285Y-115992857D01*
X53492857Y-115850000D01*
X53350000Y-115778571D01*
X53135714Y-115778571D01*
X52992857Y-115850000D01*
X52064285Y-116778571D02*
X52207142Y-116707142D01*
X52278571Y-116564285D01*
X52278571Y-115278571D01*
X51492857Y-116778571D02*
X51492857Y-115778571D01*
X51492857Y-115278571D02*
X51564285Y-115350000D01*
X51492857Y-115421428D01*
X51421428Y-115350000D01*
X51492857Y-115278571D01*
X51492857Y-115421428D01*
X50135714Y-116778571D02*
X50135714Y-115278571D01*
X50135714Y-116707142D02*
X50278571Y-116778571D01*
X50564285Y-116778571D01*
X50707142Y-116707142D01*
X50778571Y-116635714D01*
X50850000Y-116492857D01*
X50850000Y-116064285D01*
X50778571Y-115921428D01*
X50707142Y-115850000D01*
X50564285Y-115778571D01*
X50278571Y-115778571D01*
X50135714Y-115850000D01*
X48850000Y-116707142D02*
X48992857Y-116778571D01*
X49278571Y-116778571D01*
X49421428Y-116707142D01*
X49492857Y-116564285D01*
X49492857Y-115992857D01*
X49421428Y-115850000D01*
X49278571Y-115778571D01*
X48992857Y-115778571D01*
X48850000Y-115850000D01*
X48778571Y-115992857D01*
X48778571Y-116135714D01*
X49492857Y-116278571D01*
X48135714Y-116778571D02*
X48135714Y-115778571D01*
X48135714Y-116064285D02*
X48064285Y-115921428D01*
X47992857Y-115850000D01*
X47850000Y-115778571D01*
X47707142Y-115778571D01*
X84278571Y-116778571D02*
X84278571Y-115278571D01*
X83564285Y-115778571D02*
X83564285Y-116778571D01*
X83564285Y-115921428D02*
X83492857Y-115850000D01*
X83350000Y-115778571D01*
X83135714Y-115778571D01*
X82992857Y-115850000D01*
X82921428Y-115992857D01*
X82921428Y-116778571D01*
X81207142Y-115278571D02*
X80278571Y-115278571D01*
X80778571Y-115850000D01*
X80564285Y-115850000D01*
X80421428Y-115921428D01*
X80350000Y-115992857D01*
X80278571Y-116135714D01*
X80278571Y-116492857D01*
X80350000Y-116635714D01*
X80421428Y-116707142D01*
X80564285Y-116778571D01*
X80992857Y-116778571D01*
X81135714Y-116707142D01*
X81207142Y-116635714D01*
X78564285Y-116707142D02*
X78421428Y-116778571D01*
X78135714Y-116778571D01*
X77992857Y-116707142D01*
X77921428Y-116564285D01*
X77921428Y-116492857D01*
X77992857Y-116350000D01*
X78135714Y-116278571D01*
X78350000Y-116278571D01*
X78492857Y-116207142D01*
X78564285Y-116064285D01*
X78564285Y-115992857D01*
X78492857Y-115850000D01*
X78350000Y-115778571D01*
X78135714Y-115778571D01*
X77992857Y-115850000D01*
X77064285Y-116778571D02*
X77207142Y-116707142D01*
X77278571Y-116564285D01*
X77278571Y-115278571D01*
X76492857Y-116778571D02*
X76492857Y-115778571D01*
X76492857Y-115278571D02*
X76564285Y-115350000D01*
X76492857Y-115421428D01*
X76421428Y-115350000D01*
X76492857Y-115278571D01*
X76492857Y-115421428D01*
X75135714Y-116778571D02*
X75135714Y-115278571D01*
X75135714Y-116707142D02*
X75278571Y-116778571D01*
X75564285Y-116778571D01*
X75707142Y-116707142D01*
X75778571Y-116635714D01*
X75850000Y-116492857D01*
X75850000Y-116064285D01*
X75778571Y-115921428D01*
X75707142Y-115850000D01*
X75564285Y-115778571D01*
X75278571Y-115778571D01*
X75135714Y-115850000D01*
X73850000Y-116707142D02*
X73992857Y-116778571D01*
X74278571Y-116778571D01*
X74421428Y-116707142D01*
X74492857Y-116564285D01*
X74492857Y-115992857D01*
X74421428Y-115850000D01*
X74278571Y-115778571D01*
X73992857Y-115778571D01*
X73850000Y-115850000D01*
X73778571Y-115992857D01*
X73778571Y-116135714D01*
X74492857Y-116278571D01*
X73135714Y-116778571D02*
X73135714Y-115778571D01*
X73135714Y-116064285D02*
X73064285Y-115921428D01*
X72992857Y-115850000D01*
X72850000Y-115778571D01*
X72707142Y-115778571D01*
X58421428Y-144278571D02*
X58421428Y-142778571D01*
X57707142Y-143278571D02*
X57707142Y-144278571D01*
X57707142Y-143421428D02*
X57635714Y-143350000D01*
X57492857Y-143278571D01*
X57278571Y-143278571D01*
X57135714Y-143350000D01*
X57064285Y-143492857D01*
X57064285Y-144278571D01*
X55278571Y-142921428D02*
X55207142Y-142850000D01*
X55064285Y-142778571D01*
X54707142Y-142778571D01*
X54564285Y-142850000D01*
X54492857Y-142921428D01*
X54421428Y-143064285D01*
X54421428Y-143207142D01*
X54492857Y-143421428D01*
X55350000Y-144278571D01*
X54421428Y-144278571D01*
X52635714Y-143278571D02*
X52635714Y-144564285D01*
X52707142Y-144707142D01*
X52850000Y-144778571D01*
X52921428Y-144778571D01*
X52635714Y-142778571D02*
X52707142Y-142850000D01*
X52635714Y-142921428D01*
X52564285Y-142850000D01*
X52635714Y-142778571D01*
X52635714Y-142921428D01*
X51278571Y-144278571D02*
X51278571Y-143492857D01*
X51350000Y-143350000D01*
X51492857Y-143278571D01*
X51778571Y-143278571D01*
X51921428Y-143350000D01*
X51278571Y-144207142D02*
X51421428Y-144278571D01*
X51778571Y-144278571D01*
X51921428Y-144207142D01*
X51992857Y-144064285D01*
X51992857Y-143921428D01*
X51921428Y-143778571D01*
X51778571Y-143707142D01*
X51421428Y-143707142D01*
X51278571Y-143635714D01*
X49921428Y-144207142D02*
X50064285Y-144278571D01*
X50350000Y-144278571D01*
X50492857Y-144207142D01*
X50564285Y-144135714D01*
X50635714Y-143992857D01*
X50635714Y-143564285D01*
X50564285Y-143421428D01*
X50492857Y-143350000D01*
X50350000Y-143278571D01*
X50064285Y-143278571D01*
X49921428Y-143350000D01*
X49278571Y-144278571D02*
X49278571Y-142778571D01*
X49135714Y-143707142D02*
X48707142Y-144278571D01*
X48707142Y-143278571D02*
X49278571Y-143850000D01*
X83421428Y-144278571D02*
X83421428Y-142778571D01*
X82707142Y-143278571D02*
X82707142Y-144278571D01*
X82707142Y-143421428D02*
X82635714Y-143350000D01*
X82492857Y-143278571D01*
X82278571Y-143278571D01*
X82135714Y-143350000D01*
X82064285Y-143492857D01*
X82064285Y-144278571D01*
X80350000Y-142778571D02*
X79421428Y-142778571D01*
X79921428Y-143350000D01*
X79707142Y-143350000D01*
X79564285Y-143421428D01*
X79492857Y-143492857D01*
X79421428Y-143635714D01*
X79421428Y-143992857D01*
X79492857Y-144135714D01*
X79564285Y-144207142D01*
X79707142Y-144278571D01*
X80135714Y-144278571D01*
X80278571Y-144207142D01*
X80350000Y-144135714D01*
X77635714Y-143278571D02*
X77635714Y-144564285D01*
X77707142Y-144707142D01*
X77850000Y-144778571D01*
X77921428Y-144778571D01*
X77635714Y-142778571D02*
X77707142Y-142850000D01*
X77635714Y-142921428D01*
X77564285Y-142850000D01*
X77635714Y-142778571D01*
X77635714Y-142921428D01*
X76278571Y-144278571D02*
X76278571Y-143492857D01*
X76350000Y-143350000D01*
X76492857Y-143278571D01*
X76778571Y-143278571D01*
X76921428Y-143350000D01*
X76278571Y-144207142D02*
X76421428Y-144278571D01*
X76778571Y-144278571D01*
X76921428Y-144207142D01*
X76992857Y-144064285D01*
X76992857Y-143921428D01*
X76921428Y-143778571D01*
X76778571Y-143707142D01*
X76421428Y-143707142D01*
X76278571Y-143635714D01*
X74921428Y-144207142D02*
X75064285Y-144278571D01*
X75350000Y-144278571D01*
X75492857Y-144207142D01*
X75564285Y-144135714D01*
X75635714Y-143992857D01*
X75635714Y-143564285D01*
X75564285Y-143421428D01*
X75492857Y-143350000D01*
X75350000Y-143278571D01*
X75064285Y-143278571D01*
X74921428Y-143350000D01*
X74278571Y-144278571D02*
X74278571Y-142778571D01*
X74135714Y-143707142D02*
X73707142Y-144278571D01*
X73707142Y-143278571D02*
X74278571Y-143850000D01*
X86207142Y-165355000D02*
X84778571Y-165355000D01*
X85921428Y-167207142D02*
X85707142Y-167278571D01*
X85350000Y-167278571D01*
X85207142Y-167207142D01*
X85135714Y-167135714D01*
X85064285Y-166992857D01*
X85064285Y-166850000D01*
X85135714Y-166707142D01*
X85207142Y-166635714D01*
X85350000Y-166564285D01*
X85635714Y-166492857D01*
X85778571Y-166421428D01*
X85850000Y-166350000D01*
X85921428Y-166207142D01*
X85921428Y-166064285D01*
X85850000Y-165921428D01*
X85778571Y-165850000D01*
X85635714Y-165778571D01*
X85278571Y-165778571D01*
X85064285Y-165850000D01*
X84778571Y-165355000D02*
X83421428Y-165355000D01*
X83778571Y-166278571D02*
X83778571Y-167278571D01*
X84421428Y-166278571D02*
X84421428Y-167064285D01*
X84350000Y-167207142D01*
X84207142Y-167278571D01*
X83992857Y-167278571D01*
X83850000Y-167207142D01*
X83778571Y-167135714D01*
X83421428Y-165355000D02*
X81421428Y-165355000D01*
X83064285Y-167278571D02*
X83064285Y-166278571D01*
X83064285Y-166421428D02*
X82992857Y-166350000D01*
X82850000Y-166278571D01*
X82635714Y-166278571D01*
X82492857Y-166350000D01*
X82421428Y-166492857D01*
X82421428Y-167278571D01*
X82421428Y-166492857D02*
X82350000Y-166350000D01*
X82207142Y-166278571D01*
X81992857Y-166278571D01*
X81850000Y-166350000D01*
X81778571Y-166492857D01*
X81778571Y-167278571D01*
X79707142Y-167278571D02*
X79850000Y-167207142D01*
X79921428Y-167135714D01*
X79992857Y-166992857D01*
X79992857Y-166564285D01*
X79921428Y-166421428D01*
X79850000Y-166350000D01*
X79707142Y-166278571D01*
X79492857Y-166278571D01*
X79350000Y-166350000D01*
X79278571Y-166421428D01*
X79207142Y-166564285D01*
X79207142Y-166992857D01*
X79278571Y-167135714D01*
X79350000Y-167207142D01*
X79492857Y-167278571D01*
X79707142Y-167278571D01*
X77921428Y-166278571D02*
X77921428Y-167278571D01*
X78564285Y-166278571D02*
X78564285Y-167064285D01*
X78492857Y-167207142D01*
X78350000Y-167278571D01*
X78135714Y-167278571D01*
X77992857Y-167207142D01*
X77921428Y-167135714D01*
X77421428Y-166278571D02*
X76850000Y-166278571D01*
X77207142Y-165778571D02*
X77207142Y-167064285D01*
X77135714Y-167207142D01*
X76992857Y-167278571D01*
X76850000Y-167278571D01*
X75207142Y-166278571D02*
X75207142Y-167564285D01*
X75278571Y-167707142D01*
X75421428Y-167778571D01*
X75492857Y-167778571D01*
X75207142Y-165778571D02*
X75278571Y-165850000D01*
X75207142Y-165921428D01*
X75135714Y-165850000D01*
X75207142Y-165778571D01*
X75207142Y-165921428D01*
X73850000Y-167278571D02*
X73850000Y-166492857D01*
X73921428Y-166350000D01*
X74064285Y-166278571D01*
X74350000Y-166278571D01*
X74492857Y-166350000D01*
X73850000Y-167207142D02*
X73992857Y-167278571D01*
X74350000Y-167278571D01*
X74492857Y-167207142D01*
X74564285Y-167064285D01*
X74564285Y-166921428D01*
X74492857Y-166778571D01*
X74350000Y-166707142D01*
X73992857Y-166707142D01*
X73850000Y-166635714D01*
X72492857Y-167207142D02*
X72635714Y-167278571D01*
X72921428Y-167278571D01*
X73064285Y-167207142D01*
X73135714Y-167135714D01*
X73207142Y-166992857D01*
X73207142Y-166564285D01*
X73135714Y-166421428D01*
X73064285Y-166350000D01*
X72921428Y-166278571D01*
X72635714Y-166278571D01*
X72492857Y-166350000D01*
X71850000Y-167278571D02*
X71850000Y-165778571D01*
X71707142Y-166707142D02*
X71278571Y-167278571D01*
X71278571Y-166278571D02*
X71850000Y-166850000D01*
X34492857Y-190778571D02*
X34207142Y-190778571D01*
X34064285Y-190850000D01*
X33921428Y-190992857D01*
X33850000Y-191278571D01*
X33850000Y-191778571D01*
X33921428Y-192064285D01*
X34064285Y-192207142D01*
X34207142Y-192278571D01*
X34492857Y-192278571D01*
X34635714Y-192207142D01*
X34778571Y-192064285D01*
X34850000Y-191778571D01*
X34850000Y-191278571D01*
X34778571Y-190992857D01*
X34635714Y-190850000D01*
X34492857Y-190778571D01*
X32564285Y-191278571D02*
X32564285Y-192278571D01*
X33207142Y-191278571D02*
X33207142Y-192064285D01*
X33135714Y-192207142D01*
X32992857Y-192278571D01*
X32778571Y-192278571D01*
X32635714Y-192207142D01*
X32564285Y-192135714D01*
X32064285Y-191278571D02*
X31492857Y-191278571D01*
X31850000Y-190778571D02*
X31850000Y-192064285D01*
X31778571Y-192207142D01*
X31635714Y-192278571D01*
X31492857Y-192278571D01*
X29064285Y-192278571D02*
X29921428Y-192278571D01*
X29492857Y-192278571D02*
X29492857Y-190778571D01*
X29635714Y-190992857D01*
X29778571Y-191135714D01*
X29921428Y-191207142D01*
X27278571Y-191278571D02*
X27278571Y-192564285D01*
X27350000Y-192707142D01*
X27492857Y-192778571D01*
X27564285Y-192778571D01*
X27278571Y-190778571D02*
X27350000Y-190850000D01*
X27278571Y-190921428D01*
X27207142Y-190850000D01*
X27278571Y-190778571D01*
X27278571Y-190921428D01*
X25921428Y-192278571D02*
X25921428Y-191492857D01*
X25992857Y-191350000D01*
X26135714Y-191278571D01*
X26421428Y-191278571D01*
X26564285Y-191350000D01*
X25921428Y-192207142D02*
X26064285Y-192278571D01*
X26421428Y-192278571D01*
X26564285Y-192207142D01*
X26635714Y-192064285D01*
X26635714Y-191921428D01*
X26564285Y-191778571D01*
X26421428Y-191707142D01*
X26064285Y-191707142D01*
X25921428Y-191635714D01*
X24564285Y-192207142D02*
X24707142Y-192278571D01*
X24992857Y-192278571D01*
X25135714Y-192207142D01*
X25207142Y-192135714D01*
X25278571Y-191992857D01*
X25278571Y-191564285D01*
X25207142Y-191421428D01*
X25135714Y-191350000D01*
X24992857Y-191278571D01*
X24707142Y-191278571D01*
X24564285Y-191350000D01*
X23921428Y-192278571D02*
X23921428Y-190778571D01*
X23778571Y-191707142D02*
X23350000Y-192278571D01*
X23350000Y-191278571D02*
X23921428Y-191850000D01*
X58992857Y-190778571D02*
X58707142Y-190778571D01*
X58564285Y-190850000D01*
X58421428Y-190992857D01*
X58350000Y-191278571D01*
X58350000Y-191778571D01*
X58421428Y-192064285D01*
X58564285Y-192207142D01*
X58707142Y-192278571D01*
X58992857Y-192278571D01*
X59135714Y-192207142D01*
X59278571Y-192064285D01*
X59350000Y-191778571D01*
X59350000Y-191278571D01*
X59278571Y-190992857D01*
X59135714Y-190850000D01*
X58992857Y-190778571D01*
X57064285Y-191278571D02*
X57064285Y-192278571D01*
X57707142Y-191278571D02*
X57707142Y-192064285D01*
X57635714Y-192207142D01*
X57492857Y-192278571D01*
X57278571Y-192278571D01*
X57135714Y-192207142D01*
X57064285Y-192135714D01*
X56564285Y-191278571D02*
X55992857Y-191278571D01*
X56350000Y-190778571D02*
X56350000Y-192064285D01*
X56278571Y-192207142D01*
X56135714Y-192278571D01*
X55992857Y-192278571D01*
X54421428Y-190921428D02*
X54350000Y-190850000D01*
X54207142Y-190778571D01*
X53850000Y-190778571D01*
X53707142Y-190850000D01*
X53635714Y-190921428D01*
X53564285Y-191064285D01*
X53564285Y-191207142D01*
X53635714Y-191421428D01*
X54492857Y-192278571D01*
X53564285Y-192278571D01*
X51778571Y-191278571D02*
X51778571Y-192564285D01*
X51850000Y-192707142D01*
X51992857Y-192778571D01*
X52064285Y-192778571D01*
X51778571Y-190778571D02*
X51850000Y-190850000D01*
X51778571Y-190921428D01*
X51707142Y-190850000D01*
X51778571Y-190778571D01*
X51778571Y-190921428D01*
X50421428Y-192278571D02*
X50421428Y-191492857D01*
X50492857Y-191350000D01*
X50635714Y-191278571D01*
X50921428Y-191278571D01*
X51064285Y-191350000D01*
X50421428Y-192207142D02*
X50564285Y-192278571D01*
X50921428Y-192278571D01*
X51064285Y-192207142D01*
X51135714Y-192064285D01*
X51135714Y-191921428D01*
X51064285Y-191778571D01*
X50921428Y-191707142D01*
X50564285Y-191707142D01*
X50421428Y-191635714D01*
X49064285Y-192207142D02*
X49207142Y-192278571D01*
X49492857Y-192278571D01*
X49635714Y-192207142D01*
X49707142Y-192135714D01*
X49778571Y-191992857D01*
X49778571Y-191564285D01*
X49707142Y-191421428D01*
X49635714Y-191350000D01*
X49492857Y-191278571D01*
X49207142Y-191278571D01*
X49064285Y-191350000D01*
X48421428Y-192278571D02*
X48421428Y-190778571D01*
X48278571Y-191707142D02*
X47850000Y-192278571D01*
X47850000Y-191278571D02*
X48421428Y-191850000D01*
X83992857Y-190778571D02*
X83707142Y-190778571D01*
X83564285Y-190850000D01*
X83421428Y-190992857D01*
X83350000Y-191278571D01*
X83350000Y-191778571D01*
X83421428Y-192064285D01*
X83564285Y-192207142D01*
X83707142Y-192278571D01*
X83992857Y-192278571D01*
X84135714Y-192207142D01*
X84278571Y-192064285D01*
X84350000Y-191778571D01*
X84350000Y-191278571D01*
X84278571Y-190992857D01*
X84135714Y-190850000D01*
X83992857Y-190778571D01*
X82064285Y-191278571D02*
X82064285Y-192278571D01*
X82707142Y-191278571D02*
X82707142Y-192064285D01*
X82635714Y-192207142D01*
X82492857Y-192278571D01*
X82278571Y-192278571D01*
X82135714Y-192207142D01*
X82064285Y-192135714D01*
X81564285Y-191278571D02*
X80992857Y-191278571D01*
X81350000Y-190778571D02*
X81350000Y-192064285D01*
X81278571Y-192207142D01*
X81135714Y-192278571D01*
X80992857Y-192278571D01*
X79492857Y-190778571D02*
X78564285Y-190778571D01*
X79064285Y-191350000D01*
X78850000Y-191350000D01*
X78707142Y-191421428D01*
X78635714Y-191492857D01*
X78564285Y-191635714D01*
X78564285Y-191992857D01*
X78635714Y-192135714D01*
X78707142Y-192207142D01*
X78850000Y-192278571D01*
X79278571Y-192278571D01*
X79421428Y-192207142D01*
X79492857Y-192135714D01*
X76778571Y-191278571D02*
X76778571Y-192564285D01*
X76850000Y-192707142D01*
X76992857Y-192778571D01*
X77064285Y-192778571D01*
X76778571Y-190778571D02*
X76850000Y-190850000D01*
X76778571Y-190921428D01*
X76707142Y-190850000D01*
X76778571Y-190778571D01*
X76778571Y-190921428D01*
X75421428Y-192278571D02*
X75421428Y-191492857D01*
X75492857Y-191350000D01*
X75635714Y-191278571D01*
X75921428Y-191278571D01*
X76064285Y-191350000D01*
X75421428Y-192207142D02*
X75564285Y-192278571D01*
X75921428Y-192278571D01*
X76064285Y-192207142D01*
X76135714Y-192064285D01*
X76135714Y-191921428D01*
X76064285Y-191778571D01*
X75921428Y-191707142D01*
X75564285Y-191707142D01*
X75421428Y-191635714D01*
X74064285Y-192207142D02*
X74207142Y-192278571D01*
X74492857Y-192278571D01*
X74635714Y-192207142D01*
X74707142Y-192135714D01*
X74778571Y-191992857D01*
X74778571Y-191564285D01*
X74707142Y-191421428D01*
X74635714Y-191350000D01*
X74492857Y-191278571D01*
X74207142Y-191278571D01*
X74064285Y-191350000D01*
X73421428Y-192278571D02*
X73421428Y-190778571D01*
X73278571Y-191707142D02*
X72850000Y-192278571D01*
X72850000Y-191278571D02*
X73421428Y-191850000D01*
X33921428Y-144278571D02*
X33921428Y-142778571D01*
X33207142Y-143278571D02*
X33207142Y-144278571D01*
X33207142Y-143421428D02*
X33135714Y-143350000D01*
X32992857Y-143278571D01*
X32778571Y-143278571D01*
X32635714Y-143350000D01*
X32564285Y-143492857D01*
X32564285Y-144278571D01*
X29921428Y-144278571D02*
X30778571Y-144278571D01*
X30350000Y-144278571D02*
X30350000Y-142778571D01*
X30492857Y-142992857D01*
X30635714Y-143135714D01*
X30778571Y-143207142D01*
X28135714Y-143278571D02*
X28135714Y-144564285D01*
X28207142Y-144707142D01*
X28350000Y-144778571D01*
X28421428Y-144778571D01*
X28135714Y-142778571D02*
X28207142Y-142850000D01*
X28135714Y-142921428D01*
X28064285Y-142850000D01*
X28135714Y-142778571D01*
X28135714Y-142921428D01*
X26778571Y-144278571D02*
X26778571Y-143492857D01*
X26850000Y-143350000D01*
X26992857Y-143278571D01*
X27278571Y-143278571D01*
X27421428Y-143350000D01*
X26778571Y-144207142D02*
X26921428Y-144278571D01*
X27278571Y-144278571D01*
X27421428Y-144207142D01*
X27492857Y-144064285D01*
X27492857Y-143921428D01*
X27421428Y-143778571D01*
X27278571Y-143707142D01*
X26921428Y-143707142D01*
X26778571Y-143635714D01*
X25421428Y-144207142D02*
X25564285Y-144278571D01*
X25850000Y-144278571D01*
X25992857Y-144207142D01*
X26064285Y-144135714D01*
X26135714Y-143992857D01*
X26135714Y-143564285D01*
X26064285Y-143421428D01*
X25992857Y-143350000D01*
X25850000Y-143278571D01*
X25564285Y-143278571D01*
X25421428Y-143350000D01*
X24778571Y-144278571D02*
X24778571Y-142778571D01*
X24635714Y-143707142D02*
X24207142Y-144278571D01*
X24207142Y-143278571D02*
X24778571Y-143850000D01*
X60921428Y-167207142D02*
X60707142Y-167278571D01*
X60350000Y-167278571D01*
X60207142Y-167207142D01*
X60135714Y-167135714D01*
X60064285Y-166992857D01*
X60064285Y-166850000D01*
X60135714Y-166707142D01*
X60207142Y-166635714D01*
X60350000Y-166564285D01*
X60635714Y-166492857D01*
X60778571Y-166421428D01*
X60850000Y-166350000D01*
X60921428Y-166207142D01*
X60921428Y-166064285D01*
X60850000Y-165921428D01*
X60778571Y-165850000D01*
X60635714Y-165778571D01*
X60278571Y-165778571D01*
X60064285Y-165850000D01*
X58778571Y-166278571D02*
X58778571Y-167278571D01*
X59421428Y-166278571D02*
X59421428Y-167064285D01*
X59350000Y-167207142D01*
X59207142Y-167278571D01*
X58992857Y-167278571D01*
X58850000Y-167207142D01*
X58778571Y-167135714D01*
X58064285Y-167278571D02*
X58064285Y-166278571D01*
X58064285Y-166421428D02*
X57992857Y-166350000D01*
X57850000Y-166278571D01*
X57635714Y-166278571D01*
X57492857Y-166350000D01*
X57421428Y-166492857D01*
X57421428Y-167278571D01*
X57421428Y-166492857D02*
X57350000Y-166350000D01*
X57207142Y-166278571D01*
X56992857Y-166278571D01*
X56850000Y-166350000D01*
X56778571Y-166492857D01*
X56778571Y-167278571D01*
X54707142Y-167278571D02*
X54850000Y-167207142D01*
X54921428Y-167135714D01*
X54992857Y-166992857D01*
X54992857Y-166564285D01*
X54921428Y-166421428D01*
X54850000Y-166350000D01*
X54707142Y-166278571D01*
X54492857Y-166278571D01*
X54350000Y-166350000D01*
X54278571Y-166421428D01*
X54207142Y-166564285D01*
X54207142Y-166992857D01*
X54278571Y-167135714D01*
X54350000Y-167207142D01*
X54492857Y-167278571D01*
X54707142Y-167278571D01*
X52921428Y-166278571D02*
X52921428Y-167278571D01*
X53564285Y-166278571D02*
X53564285Y-167064285D01*
X53492857Y-167207142D01*
X53350000Y-167278571D01*
X53135714Y-167278571D01*
X52992857Y-167207142D01*
X52921428Y-167135714D01*
X52421428Y-166278571D02*
X51850000Y-166278571D01*
X52207142Y-165778571D02*
X52207142Y-167064285D01*
X52135714Y-167207142D01*
X51992857Y-167278571D01*
X51850000Y-167278571D01*
X50207142Y-166278571D02*
X50207142Y-167564285D01*
X50278571Y-167707142D01*
X50421428Y-167778571D01*
X50492857Y-167778571D01*
X50207142Y-165778571D02*
X50278571Y-165850000D01*
X50207142Y-165921428D01*
X50135714Y-165850000D01*
X50207142Y-165778571D01*
X50207142Y-165921428D01*
X48850000Y-167278571D02*
X48850000Y-166492857D01*
X48921428Y-166350000D01*
X49064285Y-166278571D01*
X49350000Y-166278571D01*
X49492857Y-166350000D01*
X48850000Y-167207142D02*
X48992857Y-167278571D01*
X49350000Y-167278571D01*
X49492857Y-167207142D01*
X49564285Y-167064285D01*
X49564285Y-166921428D01*
X49492857Y-166778571D01*
X49350000Y-166707142D01*
X48992857Y-166707142D01*
X48850000Y-166635714D01*
X47492857Y-167207142D02*
X47635714Y-167278571D01*
X47921428Y-167278571D01*
X48064285Y-167207142D01*
X48135714Y-167135714D01*
X48207142Y-166992857D01*
X48207142Y-166564285D01*
X48135714Y-166421428D01*
X48064285Y-166350000D01*
X47921428Y-166278571D01*
X47635714Y-166278571D01*
X47492857Y-166350000D01*
X46850000Y-167278571D02*
X46850000Y-165778571D01*
X46707142Y-166707142D02*
X46278571Y-167278571D01*
X46278571Y-166278571D02*
X46850000Y-166850000D01*
X36671428Y-165778571D02*
X37528571Y-165778571D01*
X37100000Y-165778571D02*
X37100000Y-164278571D01*
X37242857Y-164492857D01*
X37385714Y-164635714D01*
X37528571Y-164707142D01*
X35742857Y-164278571D02*
X35600000Y-164278571D01*
X35457142Y-164350000D01*
X35385714Y-164421428D01*
X35314285Y-164564285D01*
X35242857Y-164850000D01*
X35242857Y-165207142D01*
X35314285Y-165492857D01*
X35385714Y-165635714D01*
X35457142Y-165707142D01*
X35600000Y-165778571D01*
X35742857Y-165778571D01*
X35885714Y-165707142D01*
X35957142Y-165635714D01*
X36028571Y-165492857D01*
X36100000Y-165207142D01*
X36100000Y-164850000D01*
X36028571Y-164564285D01*
X35957142Y-164421428D01*
X35885714Y-164350000D01*
X35742857Y-164278571D01*
X34814285Y-164278571D02*
X34314285Y-165778571D01*
X33814285Y-164278571D01*
X32242857Y-164207142D02*
X33528571Y-166135714D01*
X31742857Y-164778571D02*
X31742857Y-166064285D01*
X31814285Y-166207142D01*
X31957142Y-166278571D01*
X32028571Y-166278571D01*
X31742857Y-164278571D02*
X31814285Y-164350000D01*
X31742857Y-164421428D01*
X31671428Y-164350000D01*
X31742857Y-164278571D01*
X31742857Y-164421428D01*
X30385714Y-165778571D02*
X30385714Y-164992857D01*
X30457142Y-164850000D01*
X30600000Y-164778571D01*
X30885714Y-164778571D01*
X31028571Y-164850000D01*
X30385714Y-165707142D02*
X30528571Y-165778571D01*
X30885714Y-165778571D01*
X31028571Y-165707142D01*
X31100000Y-165564285D01*
X31100000Y-165421428D01*
X31028571Y-165278571D01*
X30885714Y-165207142D01*
X30528571Y-165207142D01*
X30385714Y-165135714D01*
X29028571Y-165707142D02*
X29171428Y-165778571D01*
X29457142Y-165778571D01*
X29600000Y-165707142D01*
X29671428Y-165635714D01*
X29742857Y-165492857D01*
X29742857Y-165064285D01*
X29671428Y-164921428D01*
X29600000Y-164850000D01*
X29457142Y-164778571D01*
X29171428Y-164778571D01*
X29028571Y-164850000D01*
X28385714Y-165778571D02*
X28385714Y-164278571D01*
X28242857Y-165207142D02*
X27814285Y-165778571D01*
X27814285Y-164778571D02*
X28385714Y-165350000D01*
X26100000Y-165707142D02*
X25957142Y-165778571D01*
X25671428Y-165778571D01*
X25528571Y-165707142D01*
X25457142Y-165564285D01*
X25457142Y-165492857D01*
X25528571Y-165350000D01*
X25671428Y-165278571D01*
X25885714Y-165278571D01*
X26028571Y-165207142D01*
X26100000Y-165064285D01*
X26100000Y-164992857D01*
X26028571Y-164850000D01*
X25885714Y-164778571D01*
X25671428Y-164778571D01*
X25528571Y-164850000D01*
X24957142Y-164778571D02*
X24671428Y-165778571D01*
X24385714Y-165064285D01*
X24100000Y-165778571D01*
X23814285Y-164778571D01*
X23242857Y-165778571D02*
X23242857Y-164778571D01*
X23242857Y-164278571D02*
X23314285Y-164350000D01*
X23242857Y-164421428D01*
X23171428Y-164350000D01*
X23242857Y-164278571D01*
X23242857Y-164421428D01*
X22742857Y-164778571D02*
X22171428Y-164778571D01*
X22528571Y-164278571D02*
X22528571Y-165564285D01*
X22457142Y-165707142D01*
X22314285Y-165778571D01*
X22171428Y-165778571D01*
X21028571Y-165707142D02*
X21171428Y-165778571D01*
X21457142Y-165778571D01*
X21600000Y-165707142D01*
X21671428Y-165635714D01*
X21742857Y-165492857D01*
X21742857Y-165064285D01*
X21671428Y-164921428D01*
X21600000Y-164850000D01*
X21457142Y-164778571D01*
X21171428Y-164778571D01*
X21028571Y-164850000D01*
X20385714Y-165778571D02*
X20385714Y-164278571D01*
X19742857Y-165778571D02*
X19742857Y-164992857D01*
X19814285Y-164850000D01*
X19957142Y-164778571D01*
X20171428Y-164778571D01*
X20314285Y-164850000D01*
X20385714Y-164921428D01*
X17778571Y-150171428D02*
X18850000Y-150171428D01*
X19064285Y-150100000D01*
X19207142Y-149957142D01*
X19278571Y-149742857D01*
X19278571Y-149600000D01*
X19278571Y-151528571D02*
X18492857Y-151528571D01*
X18350000Y-151457142D01*
X18278571Y-151314285D01*
X18278571Y-151028571D01*
X18350000Y-150885714D01*
X19207142Y-151528571D02*
X19278571Y-151385714D01*
X19278571Y-151028571D01*
X19207142Y-150885714D01*
X19064285Y-150814285D01*
X18921428Y-150814285D01*
X18778571Y-150885714D01*
X18707142Y-151028571D01*
X18707142Y-151385714D01*
X18635714Y-151528571D01*
X19207142Y-152885714D02*
X19278571Y-152742857D01*
X19278571Y-152457142D01*
X19207142Y-152314285D01*
X19135714Y-152242857D01*
X18992857Y-152171428D01*
X18564285Y-152171428D01*
X18421428Y-152242857D01*
X18350000Y-152314285D01*
X18278571Y-152457142D01*
X18278571Y-152742857D01*
X18350000Y-152885714D01*
X19278571Y-153528571D02*
X17778571Y-153528571D01*
X18707142Y-153671428D02*
X19278571Y-154100000D01*
X18278571Y-154100000D02*
X18850000Y-153528571D01*
X18278571Y-155671428D02*
X18278571Y-156242857D01*
X17778571Y-155885714D02*
X19064285Y-155885714D01*
X19207142Y-155957142D01*
X19278571Y-156100000D01*
X19278571Y-156242857D01*
X19207142Y-157314285D02*
X19278571Y-157171428D01*
X19278571Y-156885714D01*
X19207142Y-156742857D01*
X19064285Y-156671428D01*
X18492857Y-156671428D01*
X18350000Y-156742857D01*
X18278571Y-156885714D01*
X18278571Y-157171428D01*
X18350000Y-157314285D01*
X18492857Y-157385714D01*
X18635714Y-157385714D01*
X18778571Y-156671428D01*
X19278571Y-158028571D02*
X18278571Y-158028571D01*
X18564285Y-158028571D02*
X18421428Y-158100000D01*
X18350000Y-158171428D01*
X18278571Y-158314285D01*
X18278571Y-158457142D01*
X19278571Y-158957142D02*
X18278571Y-158957142D01*
X18421428Y-158957142D02*
X18350000Y-159028571D01*
X18278571Y-159171428D01*
X18278571Y-159385714D01*
X18350000Y-159528571D01*
X18492857Y-159600000D01*
X19278571Y-159600000D01*
X18492857Y-159600000D02*
X18350000Y-159671428D01*
X18278571Y-159814285D01*
X18278571Y-160028571D01*
X18350000Y-160171428D01*
X18492857Y-160242857D01*
X19278571Y-160242857D01*
X19278571Y-160957142D02*
X18278571Y-160957142D01*
X17778571Y-160957142D02*
X17850000Y-160885714D01*
X17921428Y-160957142D01*
X17850000Y-161028571D01*
X17778571Y-160957142D01*
X17921428Y-160957142D01*
X18278571Y-161671428D02*
X19278571Y-161671428D01*
X18421428Y-161671428D02*
X18350000Y-161742857D01*
X18278571Y-161885714D01*
X18278571Y-162100000D01*
X18350000Y-162242857D01*
X18492857Y-162314285D01*
X19278571Y-162314285D01*
X19278571Y-163671428D02*
X18492857Y-163671428D01*
X18350000Y-163600000D01*
X18278571Y-163457142D01*
X18278571Y-163171428D01*
X18350000Y-163028571D01*
X19207142Y-163671428D02*
X19278571Y-163528571D01*
X19278571Y-163171428D01*
X19207142Y-163028571D01*
X19064285Y-162957142D01*
X18921428Y-162957142D01*
X18778571Y-163028571D01*
X18707142Y-163171428D01*
X18707142Y-163528571D01*
X18635714Y-163671428D01*
X19278571Y-164600000D02*
X19207142Y-164457142D01*
X19064285Y-164385714D01*
X17778571Y-164385714D01*
X37921428Y-163242857D02*
X37921428Y-164100000D01*
X37921428Y-163671428D02*
X39421428Y-163671428D01*
X39207142Y-163814285D01*
X39064285Y-163957142D01*
X38992857Y-164100000D01*
X39421428Y-162314285D02*
X39421428Y-162171428D01*
X39350000Y-162028571D01*
X39278571Y-161957142D01*
X39135714Y-161885714D01*
X38850000Y-161814285D01*
X38492857Y-161814285D01*
X38207142Y-161885714D01*
X38064285Y-161957142D01*
X37992857Y-162028571D01*
X37921428Y-162171428D01*
X37921428Y-162314285D01*
X37992857Y-162457142D01*
X38064285Y-162528571D01*
X38207142Y-162600000D01*
X38492857Y-162671428D01*
X38850000Y-162671428D01*
X39135714Y-162600000D01*
X39278571Y-162528571D01*
X39350000Y-162457142D01*
X39421428Y-162314285D01*
X39421428Y-161385714D02*
X37921428Y-160885714D01*
X39421428Y-160385714D01*
X38921428Y-158957142D02*
X38921428Y-158385714D01*
X39421428Y-158742857D02*
X38135714Y-158742857D01*
X37992857Y-158671428D01*
X37921428Y-158528571D01*
X37921428Y-158385714D01*
X37992857Y-157314285D02*
X37921428Y-157457142D01*
X37921428Y-157742857D01*
X37992857Y-157885714D01*
X38135714Y-157957142D01*
X38707142Y-157957142D01*
X38850000Y-157885714D01*
X38921428Y-157742857D01*
X38921428Y-157457142D01*
X38850000Y-157314285D01*
X38707142Y-157242857D01*
X38564285Y-157242857D01*
X38421428Y-157957142D01*
X37921428Y-156600000D02*
X38921428Y-156600000D01*
X38635714Y-156600000D02*
X38778571Y-156528571D01*
X38850000Y-156457142D01*
X38921428Y-156314285D01*
X38921428Y-156171428D01*
X37921428Y-155671428D02*
X38921428Y-155671428D01*
X38778571Y-155671428D02*
X38850000Y-155600000D01*
X38921428Y-155457142D01*
X38921428Y-155242857D01*
X38850000Y-155100000D01*
X38707142Y-155028571D01*
X37921428Y-155028571D01*
X38707142Y-155028571D02*
X38850000Y-154957142D01*
X38921428Y-154814285D01*
X38921428Y-154600000D01*
X38850000Y-154457142D01*
X38707142Y-154385714D01*
X37921428Y-154385714D01*
X37921428Y-153671428D02*
X38921428Y-153671428D01*
X39421428Y-153671428D02*
X39350000Y-153742857D01*
X39278571Y-153671428D01*
X39350000Y-153600000D01*
X39421428Y-153671428D01*
X39278571Y-153671428D01*
X38921428Y-152957142D02*
X37921428Y-152957142D01*
X38778571Y-152957142D02*
X38850000Y-152885714D01*
X38921428Y-152742857D01*
X38921428Y-152528571D01*
X38850000Y-152385714D01*
X38707142Y-152314285D01*
X37921428Y-152314285D01*
X37921428Y-150957142D02*
X38707142Y-150957142D01*
X38850000Y-151028571D01*
X38921428Y-151171428D01*
X38921428Y-151457142D01*
X38850000Y-151600000D01*
X37992857Y-150957142D02*
X37921428Y-151100000D01*
X37921428Y-151457142D01*
X37992857Y-151600000D01*
X38135714Y-151671428D01*
X38278571Y-151671428D01*
X38421428Y-151600000D01*
X38492857Y-151457142D01*
X38492857Y-151100000D01*
X38564285Y-150957142D01*
X37921428Y-150028571D02*
X37992857Y-150171428D01*
X38135714Y-150242857D01*
X39421428Y-150242857D01*
D11*
X64600000Y-196442380D02*
X64600000Y-195442380D01*
X64219047Y-195442380D01*
X64123809Y-195490000D01*
X64076190Y-195537619D01*
X64028571Y-195632857D01*
X64028571Y-195775714D01*
X64076190Y-195870952D01*
X64123809Y-195918571D01*
X64219047Y-195966190D01*
X64600000Y-195966190D01*
X63171428Y-196442380D02*
X63171428Y-195918571D01*
X63219047Y-195823333D01*
X63314285Y-195775714D01*
X63504761Y-195775714D01*
X63600000Y-195823333D01*
X63171428Y-196394761D02*
X63266666Y-196442380D01*
X63504761Y-196442380D01*
X63600000Y-196394761D01*
X63647619Y-196299523D01*
X63647619Y-196204285D01*
X63600000Y-196109047D01*
X63504761Y-196061428D01*
X63266666Y-196061428D01*
X63171428Y-196013809D01*
X62695238Y-195775714D02*
X62695238Y-196442380D01*
X62695238Y-195870952D02*
X62647619Y-195823333D01*
X62552380Y-195775714D01*
X62409523Y-195775714D01*
X62314285Y-195823333D01*
X62266666Y-195918571D01*
X62266666Y-196442380D01*
X61409523Y-196394761D02*
X61504761Y-196442380D01*
X61695238Y-196442380D01*
X61790476Y-196394761D01*
X61838095Y-196299523D01*
X61838095Y-195918571D01*
X61790476Y-195823333D01*
X61695238Y-195775714D01*
X61504761Y-195775714D01*
X61409523Y-195823333D01*
X61361904Y-195918571D01*
X61361904Y-196013809D01*
X61838095Y-196109047D01*
X60790476Y-196442380D02*
X60885714Y-196394761D01*
X60933333Y-196299523D01*
X60933333Y-195442380D01*
X59219047Y-196442380D02*
X59219047Y-195442380D01*
X59219047Y-196394761D02*
X59314285Y-196442380D01*
X59504761Y-196442380D01*
X59600000Y-196394761D01*
X59647619Y-196347142D01*
X59695238Y-196251904D01*
X59695238Y-195966190D01*
X59647619Y-195870952D01*
X59600000Y-195823333D01*
X59504761Y-195775714D01*
X59314285Y-195775714D01*
X59219047Y-195823333D01*
X58361904Y-196394761D02*
X58457142Y-196442380D01*
X58647619Y-196442380D01*
X58742857Y-196394761D01*
X58790476Y-196299523D01*
X58790476Y-195918571D01*
X58742857Y-195823333D01*
X58647619Y-195775714D01*
X58457142Y-195775714D01*
X58361904Y-195823333D01*
X58314285Y-195918571D01*
X58314285Y-196013809D01*
X58790476Y-196109047D01*
X57933333Y-196394761D02*
X57838095Y-196442380D01*
X57647619Y-196442380D01*
X57552380Y-196394761D01*
X57504761Y-196299523D01*
X57504761Y-196251904D01*
X57552380Y-196156666D01*
X57647619Y-196109047D01*
X57790476Y-196109047D01*
X57885714Y-196061428D01*
X57933333Y-195966190D01*
X57933333Y-195918571D01*
X57885714Y-195823333D01*
X57790476Y-195775714D01*
X57647619Y-195775714D01*
X57552380Y-195823333D01*
X57076190Y-196442380D02*
X57076190Y-195775714D01*
X57076190Y-195442380D02*
X57123809Y-195490000D01*
X57076190Y-195537619D01*
X57028571Y-195490000D01*
X57076190Y-195442380D01*
X57076190Y-195537619D01*
X56171428Y-195775714D02*
X56171428Y-196585238D01*
X56219047Y-196680476D01*
X56266666Y-196728095D01*
X56361904Y-196775714D01*
X56504761Y-196775714D01*
X56600000Y-196728095D01*
X56171428Y-196394761D02*
X56266666Y-196442380D01*
X56457142Y-196442380D01*
X56552380Y-196394761D01*
X56600000Y-196347142D01*
X56647619Y-196251904D01*
X56647619Y-195966190D01*
X56600000Y-195870952D01*
X56552380Y-195823333D01*
X56457142Y-195775714D01*
X56266666Y-195775714D01*
X56171428Y-195823333D01*
X55695238Y-195775714D02*
X55695238Y-196442380D01*
X55695238Y-195870952D02*
X55647619Y-195823333D01*
X55552380Y-195775714D01*
X55409523Y-195775714D01*
X55314285Y-195823333D01*
X55266666Y-195918571D01*
X55266666Y-196442380D01*
X54028571Y-196442380D02*
X54028571Y-195442380D01*
X54028571Y-195823333D02*
X53933333Y-195775714D01*
X53742857Y-195775714D01*
X53647619Y-195823333D01*
X53600000Y-195870952D01*
X53552380Y-195966190D01*
X53552380Y-196251904D01*
X53600000Y-196347142D01*
X53647619Y-196394761D01*
X53742857Y-196442380D01*
X53933333Y-196442380D01*
X54028571Y-196394761D01*
X53219047Y-195775714D02*
X52980952Y-196442380D01*
X52742857Y-195775714D02*
X52980952Y-196442380D01*
X53076190Y-196680476D01*
X53123809Y-196728095D01*
X53219047Y-196775714D01*
X51028571Y-196442380D02*
X51361904Y-195966190D01*
X51600000Y-196442380D02*
X51600000Y-195442380D01*
X51219047Y-195442380D01*
X51123809Y-195490000D01*
X51076190Y-195537619D01*
X51028571Y-195632857D01*
X51028571Y-195775714D01*
X51076190Y-195870952D01*
X51123809Y-195918571D01*
X51219047Y-195966190D01*
X51600000Y-195966190D01*
X50600000Y-196442380D02*
X50600000Y-195775714D01*
X50600000Y-195442380D02*
X50647619Y-195490000D01*
X50600000Y-195537619D01*
X50552380Y-195490000D01*
X50600000Y-195442380D01*
X50600000Y-195537619D01*
X49695238Y-196394761D02*
X49790476Y-196442380D01*
X49980952Y-196442380D01*
X50076190Y-196394761D01*
X50123809Y-196347142D01*
X50171428Y-196251904D01*
X50171428Y-195966190D01*
X50123809Y-195870952D01*
X50076190Y-195823333D01*
X49980952Y-195775714D01*
X49790476Y-195775714D01*
X49695238Y-195823333D01*
X49266666Y-196442380D02*
X49266666Y-195442380D01*
X48838095Y-196442380D02*
X48838095Y-195918571D01*
X48885714Y-195823333D01*
X48980952Y-195775714D01*
X49123809Y-195775714D01*
X49219047Y-195823333D01*
X49266666Y-195870952D01*
X47600000Y-196442380D02*
X47600000Y-195442380D01*
X47600000Y-195918571D02*
X47028571Y-195918571D01*
X47028571Y-196442380D02*
X47028571Y-195442380D01*
X46409523Y-196442380D02*
X46504761Y-196394761D01*
X46552380Y-196347142D01*
X46600000Y-196251904D01*
X46600000Y-195966190D01*
X46552380Y-195870952D01*
X46504761Y-195823333D01*
X46409523Y-195775714D01*
X46266666Y-195775714D01*
X46171428Y-195823333D01*
X46123809Y-195870952D01*
X46076190Y-195966190D01*
X46076190Y-196251904D01*
X46123809Y-196347142D01*
X46171428Y-196394761D01*
X46266666Y-196442380D01*
X46409523Y-196442380D01*
X45504761Y-196442380D02*
X45600000Y-196394761D01*
X45647619Y-196299523D01*
X45647619Y-195442380D01*
X45123809Y-196442380D02*
X45123809Y-195775714D01*
X45123809Y-195870952D02*
X45076190Y-195823333D01*
X44980952Y-195775714D01*
X44838095Y-195775714D01*
X44742857Y-195823333D01*
X44695238Y-195918571D01*
X44695238Y-196442380D01*
X44695238Y-195918571D02*
X44647619Y-195823333D01*
X44552380Y-195775714D01*
X44409523Y-195775714D01*
X44314285Y-195823333D01*
X44266666Y-195918571D01*
X44266666Y-196442380D01*
X43409523Y-196394761D02*
X43504761Y-196442380D01*
X43695238Y-196442380D01*
X43790476Y-196394761D01*
X43838095Y-196299523D01*
X43838095Y-195918571D01*
X43790476Y-195823333D01*
X43695238Y-195775714D01*
X43504761Y-195775714D01*
X43409523Y-195823333D01*
X43361904Y-195918571D01*
X43361904Y-196013809D01*
X43838095Y-196109047D01*
X42980952Y-196394761D02*
X42885714Y-196442380D01*
X42695238Y-196442380D01*
X42600000Y-196394761D01*
X42552380Y-196299523D01*
X42552380Y-196251904D01*
X42600000Y-196156666D01*
X42695238Y-196109047D01*
X42838095Y-196109047D01*
X42933333Y-196061428D01*
X42980952Y-195966190D01*
X42980952Y-195918571D01*
X42933333Y-195823333D01*
X42838095Y-195775714D01*
X42695238Y-195775714D01*
X42600000Y-195823333D01*
X59790476Y-197957142D02*
X59838095Y-198004761D01*
X59980952Y-198052380D01*
X60076190Y-198052380D01*
X60219047Y-198004761D01*
X60314285Y-197909523D01*
X60361904Y-197814285D01*
X60409523Y-197623809D01*
X60409523Y-197480952D01*
X60361904Y-197290476D01*
X60314285Y-197195238D01*
X60219047Y-197100000D01*
X60076190Y-197052380D01*
X59980952Y-197052380D01*
X59838095Y-197100000D01*
X59790476Y-197147619D01*
X58790476Y-197957142D02*
X58838095Y-198004761D01*
X58980952Y-198052380D01*
X59076190Y-198052380D01*
X59219047Y-198004761D01*
X59314285Y-197909523D01*
X59361904Y-197814285D01*
X59409523Y-197623809D01*
X59409523Y-197480952D01*
X59361904Y-197290476D01*
X59314285Y-197195238D01*
X59219047Y-197100000D01*
X59076190Y-197052380D01*
X58980952Y-197052380D01*
X58838095Y-197100000D01*
X58790476Y-197147619D01*
X58171428Y-197052380D02*
X58076190Y-197052380D01*
X57980952Y-197100000D01*
X57933333Y-197147619D01*
X57885714Y-197242857D01*
X57838095Y-197433333D01*
X57838095Y-197671428D01*
X57885714Y-197861904D01*
X57933333Y-197957142D01*
X57980952Y-198004761D01*
X58076190Y-198052380D01*
X58171428Y-198052380D01*
X58266666Y-198004761D01*
X58314285Y-197957142D01*
X58361904Y-197861904D01*
X58409523Y-197671428D01*
X58409523Y-197433333D01*
X58361904Y-197242857D01*
X58314285Y-197147619D01*
X58266666Y-197100000D01*
X58171428Y-197052380D01*
X56123809Y-198052380D02*
X56695238Y-198052380D01*
X56409523Y-198052380D02*
X56409523Y-197052380D01*
X56504761Y-197195238D01*
X56600000Y-197290476D01*
X56695238Y-197338095D01*
X55695238Y-197957142D02*
X55647619Y-198004761D01*
X55695238Y-198052380D01*
X55742857Y-198004761D01*
X55695238Y-197957142D01*
X55695238Y-198052380D01*
X55028571Y-197052380D02*
X54933333Y-197052380D01*
X54838095Y-197100000D01*
X54790476Y-197147619D01*
X54742857Y-197242857D01*
X54695238Y-197433333D01*
X54695238Y-197671428D01*
X54742857Y-197861904D01*
X54790476Y-197957142D01*
X54838095Y-198004761D01*
X54933333Y-198052380D01*
X55028571Y-198052380D01*
X55123809Y-198004761D01*
X55171428Y-197957142D01*
X55219047Y-197861904D01*
X55266666Y-197671428D01*
X55266666Y-197433333D01*
X55219047Y-197242857D01*
X55171428Y-197147619D01*
X55123809Y-197100000D01*
X55028571Y-197052380D01*
X53219047Y-197052380D02*
X53219047Y-197766666D01*
X53266666Y-197909523D01*
X53361904Y-198004761D01*
X53504761Y-198052380D01*
X53600000Y-198052380D01*
X52314285Y-198052380D02*
X52314285Y-197528571D01*
X52361904Y-197433333D01*
X52457142Y-197385714D01*
X52647619Y-197385714D01*
X52742857Y-197433333D01*
X52314285Y-198004761D02*
X52409523Y-198052380D01*
X52647619Y-198052380D01*
X52742857Y-198004761D01*
X52790476Y-197909523D01*
X52790476Y-197814285D01*
X52742857Y-197719047D01*
X52647619Y-197671428D01*
X52409523Y-197671428D01*
X52314285Y-197623809D01*
X51838095Y-197385714D02*
X51838095Y-198052380D01*
X51838095Y-197480952D02*
X51790476Y-197433333D01*
X51695238Y-197385714D01*
X51552380Y-197385714D01*
X51457142Y-197433333D01*
X51409523Y-197528571D01*
X51409523Y-198052380D01*
X50219047Y-197147619D02*
X50171428Y-197100000D01*
X50076190Y-197052380D01*
X49838095Y-197052380D01*
X49742857Y-197100000D01*
X49695238Y-197147619D01*
X49647619Y-197242857D01*
X49647619Y-197338095D01*
X49695238Y-197480952D01*
X50266666Y-198052380D01*
X49647619Y-198052380D01*
X49028571Y-197052380D02*
X48933333Y-197052380D01*
X48838095Y-197100000D01*
X48790476Y-197147619D01*
X48742857Y-197242857D01*
X48695238Y-197433333D01*
X48695238Y-197671428D01*
X48742857Y-197861904D01*
X48790476Y-197957142D01*
X48838095Y-198004761D01*
X48933333Y-198052380D01*
X49028571Y-198052380D01*
X49123809Y-198004761D01*
X49171428Y-197957142D01*
X49219047Y-197861904D01*
X49266666Y-197671428D01*
X49266666Y-197433333D01*
X49219047Y-197242857D01*
X49171428Y-197147619D01*
X49123809Y-197100000D01*
X49028571Y-197052380D01*
X48314285Y-197147619D02*
X48266666Y-197100000D01*
X48171428Y-197052380D01*
X47933333Y-197052380D01*
X47838095Y-197100000D01*
X47790476Y-197147619D01*
X47742857Y-197242857D01*
X47742857Y-197338095D01*
X47790476Y-197480952D01*
X48361904Y-198052380D01*
X47742857Y-198052380D01*
X47361904Y-197147619D02*
X47314285Y-197100000D01*
X47219047Y-197052380D01*
X46980952Y-197052380D01*
X46885714Y-197100000D01*
X46838095Y-197147619D01*
X46790476Y-197242857D01*
X46790476Y-197338095D01*
X46838095Y-197480952D01*
X47409523Y-198052380D01*
X46790476Y-198052380D01*
X58219047Y-198662380D02*
X58219047Y-199376666D01*
X58266666Y-199519523D01*
X58361904Y-199614761D01*
X58504761Y-199662380D01*
X58600000Y-199662380D01*
X57266666Y-199662380D02*
X57742857Y-199662380D01*
X57742857Y-198662380D01*
X56361904Y-199567142D02*
X56409523Y-199614761D01*
X56552380Y-199662380D01*
X56647619Y-199662380D01*
X56790476Y-199614761D01*
X56885714Y-199519523D01*
X56933333Y-199424285D01*
X56980952Y-199233809D01*
X56980952Y-199090952D01*
X56933333Y-198900476D01*
X56885714Y-198805238D01*
X56790476Y-198710000D01*
X56647619Y-198662380D01*
X56552380Y-198662380D01*
X56409523Y-198710000D01*
X56361904Y-198757619D01*
X55647619Y-198662380D02*
X55647619Y-199376666D01*
X55695238Y-199519523D01*
X55790476Y-199614761D01*
X55933333Y-199662380D01*
X56028571Y-199662380D01*
X54695238Y-199662380D02*
X55171428Y-199662380D01*
X55171428Y-198662380D01*
X53790476Y-199567142D02*
X53838095Y-199614761D01*
X53980952Y-199662380D01*
X54076190Y-199662380D01*
X54219047Y-199614761D01*
X54314285Y-199519523D01*
X54361904Y-199424285D01*
X54409523Y-199233809D01*
X54409523Y-199090952D01*
X54361904Y-198900476D01*
X54314285Y-198805238D01*
X54219047Y-198710000D01*
X54076190Y-198662380D01*
X53980952Y-198662380D01*
X53838095Y-198710000D01*
X53790476Y-198757619D01*
X53076190Y-198662380D02*
X53076190Y-199376666D01*
X53123809Y-199519523D01*
X53219047Y-199614761D01*
X53361904Y-199662380D01*
X53457142Y-199662380D01*
X52123809Y-199662380D02*
X52600000Y-199662380D01*
X52600000Y-198662380D01*
X51219047Y-199567142D02*
X51266666Y-199614761D01*
X51409523Y-199662380D01*
X51504761Y-199662380D01*
X51647619Y-199614761D01*
X51742857Y-199519523D01*
X51790476Y-199424285D01*
X51838095Y-199233809D01*
X51838095Y-199090952D01*
X51790476Y-198900476D01*
X51742857Y-198805238D01*
X51647619Y-198710000D01*
X51504761Y-198662380D01*
X51409523Y-198662380D01*
X51266666Y-198710000D01*
X51219047Y-198757619D01*
X50504761Y-198662380D02*
X50504761Y-199376666D01*
X50552380Y-199519523D01*
X50647619Y-199614761D01*
X50790476Y-199662380D01*
X50885714Y-199662380D01*
X49552380Y-199662380D02*
X50028571Y-199662380D01*
X50028571Y-198662380D01*
X48647619Y-199567142D02*
X48695238Y-199614761D01*
X48838095Y-199662380D01*
X48933333Y-199662380D01*
X49076190Y-199614761D01*
X49171428Y-199519523D01*
X49219047Y-199424285D01*
X49266666Y-199233809D01*
X49266666Y-199090952D01*
X49219047Y-198900476D01*
X49171428Y-198805238D01*
X49076190Y-198710000D01*
X48933333Y-198662380D01*
X48838095Y-198662380D01*
X48695238Y-198710000D01*
X48647619Y-198757619D01*
D12*
G04 #@! TO.C,GRAF3*
X31662551Y-196111587D02*
X31434872Y-196172319D01*
X31434872Y-196172319D02*
X31222761Y-196263945D01*
X31222761Y-196263945D02*
X31152602Y-196303708D01*
X31152602Y-196303708D02*
X31044068Y-196380779D01*
X31044068Y-196380779D02*
X30928792Y-196481493D01*
X30928792Y-196481493D02*
X30817359Y-196595134D01*
X30817359Y-196595134D02*
X30720353Y-196710982D01*
X30720353Y-196710982D02*
X30653888Y-196808692D01*
X30653888Y-196808692D02*
X30554077Y-197014999D01*
X30554077Y-197014999D02*
X30485850Y-197235241D01*
X30485850Y-197235241D02*
X30449306Y-197463459D01*
X30449306Y-197463459D02*
X30444543Y-197693698D01*
X30444543Y-197693698D02*
X30471660Y-197920000D01*
X30471660Y-197920000D02*
X30530753Y-198136409D01*
X30530753Y-198136409D02*
X30621923Y-198336967D01*
X30621923Y-198336967D02*
X30628497Y-198348509D01*
X30628497Y-198348509D02*
X30753060Y-198527855D01*
X30753060Y-198527855D02*
X30908404Y-198691903D01*
X30908404Y-198691903D02*
X31087535Y-198835367D01*
X31087535Y-198835367D02*
X31283462Y-198952963D01*
X31283462Y-198952963D02*
X31489193Y-199039403D01*
X31489193Y-199039403D02*
X31576363Y-199065024D01*
X31576363Y-199065024D02*
X31706088Y-199090687D01*
X31706088Y-199090687D02*
X31851603Y-199107309D01*
X31851603Y-199107309D02*
X31997718Y-199113928D01*
X31997718Y-199113928D02*
X32129245Y-199109587D01*
X32129245Y-199109587D02*
X32182701Y-199103333D01*
X32182701Y-199103333D02*
X32422036Y-199046757D01*
X32422036Y-199046757D02*
X32648814Y-198953934D01*
X32648814Y-198953934D02*
X32858665Y-198826800D01*
X32858665Y-198826800D02*
X32930318Y-198772122D01*
X32930318Y-198772122D02*
X33101565Y-198609450D01*
X33101565Y-198609450D02*
X33241960Y-198426151D01*
X33241960Y-198426151D02*
X33350979Y-198226239D01*
X33350979Y-198226239D02*
X33428098Y-198013730D01*
X33428098Y-198013730D02*
X33472791Y-197792639D01*
X33472791Y-197792639D02*
X33481016Y-197634606D01*
X33481016Y-197634606D02*
X33219198Y-197634606D01*
X33219198Y-197634606D02*
X33194064Y-197845751D01*
X33194064Y-197845751D02*
X33132679Y-198050690D01*
X33132679Y-198050690D02*
X33048267Y-198223249D01*
X33048267Y-198223249D02*
X32985076Y-198313441D01*
X32985076Y-198313441D02*
X32898995Y-198413314D01*
X32898995Y-198413314D02*
X32800572Y-198512322D01*
X32800572Y-198512322D02*
X32700350Y-198599920D01*
X32700350Y-198599920D02*
X32608876Y-198665561D01*
X32608876Y-198665561D02*
X32601557Y-198669958D01*
X32601557Y-198669958D02*
X32403936Y-198764254D01*
X32403936Y-198764254D02*
X32195157Y-198821992D01*
X32195157Y-198821992D02*
X31979243Y-198842623D01*
X31979243Y-198842623D02*
X31760214Y-198825598D01*
X31760214Y-198825598D02*
X31643253Y-198800863D01*
X31643253Y-198800863D02*
X31472303Y-198740458D01*
X31472303Y-198740458D02*
X31302582Y-198651041D01*
X31302582Y-198651041D02*
X31145288Y-198539843D01*
X31145288Y-198539843D02*
X31011618Y-198414097D01*
X31011618Y-198414097D02*
X30972085Y-198367478D01*
X30972085Y-198367478D02*
X30854299Y-198189023D01*
X30854299Y-198189023D02*
X30771467Y-197998686D01*
X30771467Y-197998686D02*
X30722905Y-197800620D01*
X30722905Y-197800620D02*
X30707932Y-197598975D01*
X30707932Y-197598975D02*
X30725863Y-197397904D01*
X30725863Y-197397904D02*
X30776017Y-197201558D01*
X30776017Y-197201558D02*
X30857710Y-197014089D01*
X30857710Y-197014089D02*
X30970259Y-196839647D01*
X30970259Y-196839647D02*
X31112983Y-196682385D01*
X31112983Y-196682385D02*
X31269918Y-196556741D01*
X31269918Y-196556741D02*
X31450595Y-196456346D01*
X31450595Y-196456346D02*
X31647052Y-196388856D01*
X31647052Y-196388856D02*
X31853455Y-196354622D01*
X31853455Y-196354622D02*
X32063972Y-196353993D01*
X32063972Y-196353993D02*
X32272769Y-196387319D01*
X32272769Y-196387319D02*
X32474013Y-196454950D01*
X32474013Y-196454950D02*
X32530339Y-196481134D01*
X32530339Y-196481134D02*
X32674147Y-196570458D01*
X32674147Y-196570458D02*
X32813615Y-196690242D01*
X32813615Y-196690242D02*
X32941458Y-196831978D01*
X32941458Y-196831978D02*
X33050390Y-196987160D01*
X33050390Y-196987160D02*
X33133123Y-197147282D01*
X33133123Y-197147282D02*
X33158456Y-197214411D01*
X33158456Y-197214411D02*
X33207517Y-197422433D01*
X33207517Y-197422433D02*
X33219198Y-197634606D01*
X33219198Y-197634606D02*
X33481016Y-197634606D01*
X33481016Y-197634606D02*
X33484536Y-197566982D01*
X33484536Y-197566982D02*
X33462808Y-197340772D01*
X33462808Y-197340772D02*
X33407082Y-197118025D01*
X33407082Y-197118025D02*
X33316833Y-196902756D01*
X33316833Y-196902756D02*
X33199584Y-196710151D01*
X33199584Y-196710151D02*
X33071384Y-196557078D01*
X33071384Y-196557078D02*
X32917123Y-196416554D01*
X32917123Y-196416554D02*
X32745551Y-196294696D01*
X32745551Y-196294696D02*
X32565418Y-196197626D01*
X32565418Y-196197626D02*
X32385476Y-196131460D01*
X32385476Y-196131460D02*
X32363914Y-196125788D01*
X32363914Y-196125788D02*
X32134579Y-196087219D01*
X32134579Y-196087219D02*
X31898289Y-196082853D01*
X31898289Y-196082853D02*
X31662551Y-196111587D01*
X31662551Y-196111587D02*
X31662551Y-196111587D01*
G36*
X33428098Y-198013730D02*
G01*
X33350979Y-198226239D01*
X33241960Y-198426151D01*
X33101565Y-198609450D01*
X32930318Y-198772122D01*
X32858665Y-198826800D01*
X32648814Y-198953934D01*
X32422036Y-199046757D01*
X32182701Y-199103333D01*
X32129245Y-199109587D01*
X31997718Y-199113928D01*
X31851603Y-199107309D01*
X31706088Y-199090687D01*
X31576363Y-199065024D01*
X31489193Y-199039403D01*
X31283462Y-198952963D01*
X31087535Y-198835367D01*
X30908404Y-198691903D01*
X30753060Y-198527855D01*
X30628497Y-198348509D01*
X30621923Y-198336967D01*
X30530753Y-198136409D01*
X30471660Y-197920000D01*
X30444543Y-197693698D01*
X30446503Y-197598975D01*
X30707932Y-197598975D01*
X30722905Y-197800620D01*
X30771467Y-197998686D01*
X30854299Y-198189023D01*
X30972085Y-198367478D01*
X31011618Y-198414097D01*
X31145288Y-198539843D01*
X31302582Y-198651041D01*
X31472303Y-198740458D01*
X31643253Y-198800863D01*
X31760214Y-198825598D01*
X31979243Y-198842623D01*
X32195157Y-198821992D01*
X32403936Y-198764254D01*
X32601557Y-198669958D01*
X32608876Y-198665561D01*
X32700350Y-198599920D01*
X32800572Y-198512322D01*
X32898995Y-198413314D01*
X32985076Y-198313441D01*
X33048267Y-198223249D01*
X33132679Y-198050690D01*
X33194064Y-197845751D01*
X33219198Y-197634606D01*
X33207517Y-197422433D01*
X33158456Y-197214411D01*
X33133123Y-197147282D01*
X33050390Y-196987160D01*
X32941458Y-196831978D01*
X32813615Y-196690242D01*
X32674147Y-196570458D01*
X32530339Y-196481134D01*
X32474013Y-196454950D01*
X32272769Y-196387319D01*
X32063972Y-196353993D01*
X31853455Y-196354622D01*
X31647052Y-196388856D01*
X31450595Y-196456346D01*
X31269918Y-196556741D01*
X31112983Y-196682385D01*
X30970259Y-196839647D01*
X30857710Y-197014089D01*
X30776017Y-197201558D01*
X30725863Y-197397904D01*
X30707932Y-197598975D01*
X30446503Y-197598975D01*
X30449306Y-197463459D01*
X30485850Y-197235241D01*
X30554077Y-197014999D01*
X30653888Y-196808692D01*
X30720353Y-196710982D01*
X30817359Y-196595134D01*
X30928792Y-196481493D01*
X31044068Y-196380779D01*
X31152602Y-196303708D01*
X31222761Y-196263945D01*
X31434872Y-196172319D01*
X31662551Y-196111587D01*
X31898289Y-196082853D01*
X32134579Y-196087219D01*
X32363914Y-196125788D01*
X32385476Y-196131460D01*
X32565418Y-196197626D01*
X32745551Y-196294696D01*
X32917123Y-196416554D01*
X33071384Y-196557078D01*
X33199584Y-196710151D01*
X33316833Y-196902756D01*
X33407082Y-197118025D01*
X33462808Y-197340772D01*
X33484536Y-197566982D01*
X33481016Y-197634606D01*
X33472791Y-197792639D01*
X33428098Y-198013730D01*
G37*
X33428098Y-198013730D02*
X33350979Y-198226239D01*
X33241960Y-198426151D01*
X33101565Y-198609450D01*
X32930318Y-198772122D01*
X32858665Y-198826800D01*
X32648814Y-198953934D01*
X32422036Y-199046757D01*
X32182701Y-199103333D01*
X32129245Y-199109587D01*
X31997718Y-199113928D01*
X31851603Y-199107309D01*
X31706088Y-199090687D01*
X31576363Y-199065024D01*
X31489193Y-199039403D01*
X31283462Y-198952963D01*
X31087535Y-198835367D01*
X30908404Y-198691903D01*
X30753060Y-198527855D01*
X30628497Y-198348509D01*
X30621923Y-198336967D01*
X30530753Y-198136409D01*
X30471660Y-197920000D01*
X30444543Y-197693698D01*
X30446503Y-197598975D01*
X30707932Y-197598975D01*
X30722905Y-197800620D01*
X30771467Y-197998686D01*
X30854299Y-198189023D01*
X30972085Y-198367478D01*
X31011618Y-198414097D01*
X31145288Y-198539843D01*
X31302582Y-198651041D01*
X31472303Y-198740458D01*
X31643253Y-198800863D01*
X31760214Y-198825598D01*
X31979243Y-198842623D01*
X32195157Y-198821992D01*
X32403936Y-198764254D01*
X32601557Y-198669958D01*
X32608876Y-198665561D01*
X32700350Y-198599920D01*
X32800572Y-198512322D01*
X32898995Y-198413314D01*
X32985076Y-198313441D01*
X33048267Y-198223249D01*
X33132679Y-198050690D01*
X33194064Y-197845751D01*
X33219198Y-197634606D01*
X33207517Y-197422433D01*
X33158456Y-197214411D01*
X33133123Y-197147282D01*
X33050390Y-196987160D01*
X32941458Y-196831978D01*
X32813615Y-196690242D01*
X32674147Y-196570458D01*
X32530339Y-196481134D01*
X32474013Y-196454950D01*
X32272769Y-196387319D01*
X32063972Y-196353993D01*
X31853455Y-196354622D01*
X31647052Y-196388856D01*
X31450595Y-196456346D01*
X31269918Y-196556741D01*
X31112983Y-196682385D01*
X30970259Y-196839647D01*
X30857710Y-197014089D01*
X30776017Y-197201558D01*
X30725863Y-197397904D01*
X30707932Y-197598975D01*
X30446503Y-197598975D01*
X30449306Y-197463459D01*
X30485850Y-197235241D01*
X30554077Y-197014999D01*
X30653888Y-196808692D01*
X30720353Y-196710982D01*
X30817359Y-196595134D01*
X30928792Y-196481493D01*
X31044068Y-196380779D01*
X31152602Y-196303708D01*
X31222761Y-196263945D01*
X31434872Y-196172319D01*
X31662551Y-196111587D01*
X31898289Y-196082853D01*
X32134579Y-196087219D01*
X32363914Y-196125788D01*
X32385476Y-196131460D01*
X32565418Y-196197626D01*
X32745551Y-196294696D01*
X32917123Y-196416554D01*
X33071384Y-196557078D01*
X33199584Y-196710151D01*
X33316833Y-196902756D01*
X33407082Y-197118025D01*
X33462808Y-197340772D01*
X33484536Y-197566982D01*
X33481016Y-197634606D01*
X33472791Y-197792639D01*
X33428098Y-198013730D01*
X34945762Y-196103295D02*
X34719275Y-196160725D01*
X34719275Y-196160725D02*
X34506042Y-196250861D01*
X34506042Y-196250861D02*
X34309636Y-196371823D01*
X34309636Y-196371823D02*
X34133628Y-196521729D01*
X34133628Y-196521729D02*
X33981589Y-196698696D01*
X33981589Y-196698696D02*
X33857089Y-196900844D01*
X33857089Y-196900844D02*
X33844249Y-196926541D01*
X33844249Y-196926541D02*
X33793712Y-197037295D01*
X33793712Y-197037295D02*
X33756951Y-197138132D01*
X33756951Y-197138132D02*
X33731999Y-197239067D01*
X33731999Y-197239067D02*
X33716892Y-197350114D01*
X33716892Y-197350114D02*
X33709665Y-197481287D01*
X33709665Y-197481287D02*
X33708257Y-197619538D01*
X33708257Y-197619538D02*
X33709141Y-197739418D01*
X33709141Y-197739418D02*
X33711786Y-197829550D01*
X33711786Y-197829550D02*
X33717274Y-197899255D01*
X33717274Y-197899255D02*
X33726685Y-197957855D01*
X33726685Y-197957855D02*
X33741101Y-198014672D01*
X33741101Y-198014672D02*
X33761488Y-198078692D01*
X33761488Y-198078692D02*
X33852320Y-198289619D01*
X33852320Y-198289619D02*
X33976092Y-198485212D01*
X33976092Y-198485212D02*
X34128345Y-198661404D01*
X34128345Y-198661404D02*
X34304617Y-198814128D01*
X34304617Y-198814128D02*
X34500450Y-198939317D01*
X34500450Y-198939317D02*
X34711382Y-199032904D01*
X34711382Y-199032904D02*
X34853751Y-199074692D01*
X34853751Y-199074692D02*
X34976333Y-199096312D01*
X34976333Y-199096312D02*
X35117661Y-199109844D01*
X35117661Y-199109844D02*
X35261804Y-199114540D01*
X35261804Y-199114540D02*
X35392831Y-199109650D01*
X35392831Y-199109650D02*
X35452036Y-199102835D01*
X35452036Y-199102835D02*
X35665147Y-199051615D01*
X35665147Y-199051615D02*
X35874960Y-198965903D01*
X35874960Y-198965903D02*
X36072932Y-198849928D01*
X36072932Y-198849928D02*
X36250519Y-198707922D01*
X36250519Y-198707922D02*
X36251575Y-198706935D01*
X36251575Y-198706935D02*
X36418861Y-198525473D01*
X36418861Y-198525473D02*
X36552401Y-198326943D01*
X36552401Y-198326943D02*
X36651194Y-198114250D01*
X36651194Y-198114250D02*
X36714239Y-197890302D01*
X36714239Y-197890302D02*
X36740535Y-197658003D01*
X36740535Y-197658003D02*
X36737084Y-197586371D01*
X36737084Y-197586371D02*
X36462601Y-197586371D01*
X36462601Y-197586371D02*
X36460389Y-197719780D01*
X36460389Y-197719780D02*
X36448612Y-197838052D01*
X36448612Y-197838052D02*
X36434995Y-197902846D01*
X36434995Y-197902846D02*
X36360380Y-198100843D01*
X36360380Y-198100843D02*
X36253427Y-198285299D01*
X36253427Y-198285299D02*
X36118836Y-198450554D01*
X36118836Y-198450554D02*
X35961307Y-198590947D01*
X35961307Y-198590947D02*
X35785539Y-198700816D01*
X35785539Y-198700816D02*
X35763640Y-198711586D01*
X35763640Y-198711586D02*
X35676119Y-198749895D01*
X35676119Y-198749895D02*
X35586608Y-198783320D01*
X35586608Y-198783320D02*
X35511196Y-198805990D01*
X35511196Y-198805990D02*
X35495231Y-198809527D01*
X35495231Y-198809527D02*
X35427822Y-198822939D01*
X35427822Y-198822939D02*
X35371304Y-198834585D01*
X35371304Y-198834585D02*
X35348692Y-198839505D01*
X35348692Y-198839505D02*
X35299174Y-198844004D01*
X35299174Y-198844004D02*
X35223233Y-198843264D01*
X35223233Y-198843264D02*
X35133045Y-198838131D01*
X35133045Y-198838131D02*
X35040787Y-198829448D01*
X35040787Y-198829448D02*
X34958637Y-198818062D01*
X34958637Y-198818062D02*
X34915852Y-198809472D01*
X34915852Y-198809472D02*
X34745852Y-198752534D01*
X34745852Y-198752534D02*
X34576986Y-198667240D01*
X34576986Y-198667240D02*
X34419642Y-198560299D01*
X34419642Y-198560299D02*
X34284202Y-198438415D01*
X34284202Y-198438415D02*
X34214407Y-198356457D01*
X34214407Y-198356457D02*
X34112259Y-198206814D01*
X34112259Y-198206814D02*
X34039983Y-198065157D01*
X34039983Y-198065157D02*
X33993839Y-197920154D01*
X33993839Y-197920154D02*
X33970085Y-197760468D01*
X33970085Y-197760468D02*
X33964724Y-197600000D01*
X33964724Y-197600000D02*
X33966764Y-197490885D01*
X33966764Y-197490885D02*
X33972805Y-197407322D01*
X33972805Y-197407322D02*
X33984761Y-197335844D01*
X33984761Y-197335844D02*
X34004547Y-197262980D01*
X34004547Y-197262980D02*
X34018866Y-197219187D01*
X34018866Y-197219187D02*
X34109318Y-197010739D01*
X34109318Y-197010739D02*
X34230477Y-196825634D01*
X34230477Y-196825634D02*
X34380224Y-196666010D01*
X34380224Y-196666010D02*
X34556439Y-196534010D01*
X34556439Y-196534010D02*
X34757005Y-196431773D01*
X34757005Y-196431773D02*
X34823114Y-196406696D01*
X34823114Y-196406696D02*
X34934844Y-196378184D01*
X34934844Y-196378184D02*
X35070736Y-196359903D01*
X35070736Y-196359903D02*
X35217025Y-196352684D01*
X35217025Y-196352684D02*
X35359944Y-196357356D01*
X35359944Y-196357356D02*
X35453669Y-196368657D01*
X35453669Y-196368657D02*
X35641649Y-196419565D01*
X35641649Y-196419565D02*
X35821627Y-196505315D01*
X35821627Y-196505315D02*
X35989038Y-196621826D01*
X35989038Y-196621826D02*
X36139315Y-196765015D01*
X36139315Y-196765015D02*
X36267892Y-196930800D01*
X36267892Y-196930800D02*
X36370203Y-197115098D01*
X36370203Y-197115098D02*
X36415676Y-197228769D01*
X36415676Y-197228769D02*
X36439862Y-197327521D01*
X36439862Y-197327521D02*
X36455631Y-197451170D01*
X36455631Y-197451170D02*
X36462601Y-197586371D01*
X36462601Y-197586371D02*
X36737084Y-197586371D01*
X36737084Y-197586371D02*
X36729080Y-197420259D01*
X36729080Y-197420259D02*
X36718648Y-197351252D01*
X36718648Y-197351252D02*
X36660541Y-197118286D01*
X36660541Y-197118286D02*
X36570059Y-196904919D01*
X36570059Y-196904919D02*
X36445439Y-196707891D01*
X36445439Y-196707891D02*
X36284913Y-196523940D01*
X36284913Y-196523940D02*
X36255132Y-196494885D01*
X36255132Y-196494885D02*
X36074249Y-196343935D01*
X36074249Y-196343935D02*
X35883837Y-196229231D01*
X35883837Y-196229231D02*
X35678478Y-196148158D01*
X35678478Y-196148158D02*
X35452752Y-196098104D01*
X35452752Y-196098104D02*
X35424219Y-196094081D01*
X35424219Y-196094081D02*
X35181934Y-196080453D01*
X35181934Y-196080453D02*
X34945762Y-196103295D01*
X34945762Y-196103295D02*
X34945762Y-196103295D01*
G36*
X36714239Y-197890302D02*
G01*
X36651194Y-198114250D01*
X36552401Y-198326943D01*
X36418861Y-198525473D01*
X36251575Y-198706935D01*
X36250519Y-198707922D01*
X36072932Y-198849928D01*
X35874960Y-198965903D01*
X35665147Y-199051615D01*
X35452036Y-199102835D01*
X35392831Y-199109650D01*
X35261804Y-199114540D01*
X35117661Y-199109844D01*
X34976333Y-199096312D01*
X34853751Y-199074692D01*
X34711382Y-199032904D01*
X34500450Y-198939317D01*
X34304617Y-198814128D01*
X34128345Y-198661404D01*
X33976092Y-198485212D01*
X33852320Y-198289619D01*
X33761488Y-198078692D01*
X33741101Y-198014672D01*
X33726685Y-197957855D01*
X33717274Y-197899255D01*
X33711786Y-197829550D01*
X33709141Y-197739418D01*
X33708257Y-197619538D01*
X33708456Y-197600000D01*
X33964724Y-197600000D01*
X33970085Y-197760468D01*
X33993839Y-197920154D01*
X34039983Y-198065157D01*
X34112259Y-198206814D01*
X34214407Y-198356457D01*
X34284202Y-198438415D01*
X34419642Y-198560299D01*
X34576986Y-198667240D01*
X34745852Y-198752534D01*
X34915852Y-198809472D01*
X34958637Y-198818062D01*
X35040787Y-198829448D01*
X35133045Y-198838131D01*
X35223233Y-198843264D01*
X35299174Y-198844004D01*
X35348692Y-198839505D01*
X35371304Y-198834585D01*
X35427822Y-198822939D01*
X35495231Y-198809527D01*
X35511196Y-198805990D01*
X35586608Y-198783320D01*
X35676119Y-198749895D01*
X35763640Y-198711586D01*
X35785539Y-198700816D01*
X35961307Y-198590947D01*
X36118836Y-198450554D01*
X36253427Y-198285299D01*
X36360380Y-198100843D01*
X36434995Y-197902846D01*
X36448612Y-197838052D01*
X36460389Y-197719780D01*
X36462601Y-197586371D01*
X36455631Y-197451170D01*
X36439862Y-197327521D01*
X36415676Y-197228769D01*
X36370203Y-197115098D01*
X36267892Y-196930800D01*
X36139315Y-196765015D01*
X35989038Y-196621826D01*
X35821627Y-196505315D01*
X35641649Y-196419565D01*
X35453669Y-196368657D01*
X35359944Y-196357356D01*
X35217025Y-196352684D01*
X35070736Y-196359903D01*
X34934844Y-196378184D01*
X34823114Y-196406696D01*
X34757005Y-196431773D01*
X34556439Y-196534010D01*
X34380224Y-196666010D01*
X34230477Y-196825634D01*
X34109318Y-197010739D01*
X34018866Y-197219187D01*
X34004547Y-197262980D01*
X33984761Y-197335844D01*
X33972805Y-197407322D01*
X33966764Y-197490885D01*
X33964724Y-197600000D01*
X33708456Y-197600000D01*
X33709665Y-197481287D01*
X33716892Y-197350114D01*
X33731999Y-197239067D01*
X33756951Y-197138132D01*
X33793712Y-197037295D01*
X33844249Y-196926541D01*
X33857089Y-196900844D01*
X33981589Y-196698696D01*
X34133628Y-196521729D01*
X34309636Y-196371823D01*
X34506042Y-196250861D01*
X34719275Y-196160725D01*
X34945762Y-196103295D01*
X35181934Y-196080453D01*
X35424219Y-196094081D01*
X35452752Y-196098104D01*
X35678478Y-196148158D01*
X35883837Y-196229231D01*
X36074249Y-196343935D01*
X36255132Y-196494885D01*
X36284913Y-196523940D01*
X36445439Y-196707891D01*
X36570059Y-196904919D01*
X36660541Y-197118286D01*
X36718648Y-197351252D01*
X36729080Y-197420259D01*
X36737084Y-197586371D01*
X36740535Y-197658003D01*
X36714239Y-197890302D01*
G37*
X36714239Y-197890302D02*
X36651194Y-198114250D01*
X36552401Y-198326943D01*
X36418861Y-198525473D01*
X36251575Y-198706935D01*
X36250519Y-198707922D01*
X36072932Y-198849928D01*
X35874960Y-198965903D01*
X35665147Y-199051615D01*
X35452036Y-199102835D01*
X35392831Y-199109650D01*
X35261804Y-199114540D01*
X35117661Y-199109844D01*
X34976333Y-199096312D01*
X34853751Y-199074692D01*
X34711382Y-199032904D01*
X34500450Y-198939317D01*
X34304617Y-198814128D01*
X34128345Y-198661404D01*
X33976092Y-198485212D01*
X33852320Y-198289619D01*
X33761488Y-198078692D01*
X33741101Y-198014672D01*
X33726685Y-197957855D01*
X33717274Y-197899255D01*
X33711786Y-197829550D01*
X33709141Y-197739418D01*
X33708257Y-197619538D01*
X33708456Y-197600000D01*
X33964724Y-197600000D01*
X33970085Y-197760468D01*
X33993839Y-197920154D01*
X34039983Y-198065157D01*
X34112259Y-198206814D01*
X34214407Y-198356457D01*
X34284202Y-198438415D01*
X34419642Y-198560299D01*
X34576986Y-198667240D01*
X34745852Y-198752534D01*
X34915852Y-198809472D01*
X34958637Y-198818062D01*
X35040787Y-198829448D01*
X35133045Y-198838131D01*
X35223233Y-198843264D01*
X35299174Y-198844004D01*
X35348692Y-198839505D01*
X35371304Y-198834585D01*
X35427822Y-198822939D01*
X35495231Y-198809527D01*
X35511196Y-198805990D01*
X35586608Y-198783320D01*
X35676119Y-198749895D01*
X35763640Y-198711586D01*
X35785539Y-198700816D01*
X35961307Y-198590947D01*
X36118836Y-198450554D01*
X36253427Y-198285299D01*
X36360380Y-198100843D01*
X36434995Y-197902846D01*
X36448612Y-197838052D01*
X36460389Y-197719780D01*
X36462601Y-197586371D01*
X36455631Y-197451170D01*
X36439862Y-197327521D01*
X36415676Y-197228769D01*
X36370203Y-197115098D01*
X36267892Y-196930800D01*
X36139315Y-196765015D01*
X35989038Y-196621826D01*
X35821627Y-196505315D01*
X35641649Y-196419565D01*
X35453669Y-196368657D01*
X35359944Y-196357356D01*
X35217025Y-196352684D01*
X35070736Y-196359903D01*
X34934844Y-196378184D01*
X34823114Y-196406696D01*
X34757005Y-196431773D01*
X34556439Y-196534010D01*
X34380224Y-196666010D01*
X34230477Y-196825634D01*
X34109318Y-197010739D01*
X34018866Y-197219187D01*
X34004547Y-197262980D01*
X33984761Y-197335844D01*
X33972805Y-197407322D01*
X33966764Y-197490885D01*
X33964724Y-197600000D01*
X33708456Y-197600000D01*
X33709665Y-197481287D01*
X33716892Y-197350114D01*
X33731999Y-197239067D01*
X33756951Y-197138132D01*
X33793712Y-197037295D01*
X33844249Y-196926541D01*
X33857089Y-196900844D01*
X33981589Y-196698696D01*
X34133628Y-196521729D01*
X34309636Y-196371823D01*
X34506042Y-196250861D01*
X34719275Y-196160725D01*
X34945762Y-196103295D01*
X35181934Y-196080453D01*
X35424219Y-196094081D01*
X35452752Y-196098104D01*
X35678478Y-196148158D01*
X35883837Y-196229231D01*
X36074249Y-196343935D01*
X36255132Y-196494885D01*
X36284913Y-196523940D01*
X36445439Y-196707891D01*
X36570059Y-196904919D01*
X36660541Y-197118286D01*
X36718648Y-197351252D01*
X36729080Y-197420259D01*
X36737084Y-197586371D01*
X36740535Y-197658003D01*
X36714239Y-197890302D01*
X35485462Y-197152643D02*
X35407960Y-197183771D01*
X35407960Y-197183771D02*
X35334173Y-197230000D01*
X35334173Y-197230000D02*
X35277964Y-197281844D01*
X35277964Y-197281844D02*
X35261191Y-197306135D01*
X35261191Y-197306135D02*
X35254405Y-197330461D01*
X35254405Y-197330461D02*
X35268257Y-197352581D01*
X35268257Y-197352581D02*
X35309064Y-197380299D01*
X35309064Y-197380299D02*
X35331679Y-197393211D01*
X35331679Y-197393211D02*
X35421809Y-197443585D01*
X35421809Y-197443585D02*
X35488507Y-197385023D01*
X35488507Y-197385023D02*
X35560737Y-197338519D01*
X35560737Y-197338519D02*
X35632889Y-197329439D01*
X35632889Y-197329439D02*
X35708372Y-197354847D01*
X35708372Y-197354847D02*
X35762338Y-197399575D01*
X35762338Y-197399575D02*
X35794410Y-197468778D01*
X35794410Y-197468778D02*
X35805949Y-197566390D01*
X35805949Y-197566390D02*
X35804160Y-197631687D01*
X35804160Y-197631687D02*
X35797588Y-197704710D01*
X35797588Y-197704710D02*
X35785977Y-197752001D01*
X35785977Y-197752001D02*
X35764231Y-197786901D01*
X35764231Y-197786901D02*
X35733179Y-197817499D01*
X35733179Y-197817499D02*
X35657933Y-197864544D01*
X35657933Y-197864544D02*
X35581404Y-197872549D01*
X35581404Y-197872549D02*
X35503904Y-197841518D01*
X35503904Y-197841518D02*
X35467775Y-197813928D01*
X35467775Y-197813928D02*
X35399883Y-197754317D01*
X35399883Y-197754317D02*
X35320557Y-197794786D01*
X35320557Y-197794786D02*
X35273096Y-197822496D01*
X35273096Y-197822496D02*
X35244755Y-197845796D01*
X35244755Y-197845796D02*
X35241231Y-197852736D01*
X35241231Y-197852736D02*
X35254834Y-197874078D01*
X35254834Y-197874078D02*
X35290081Y-197911448D01*
X35290081Y-197911448D02*
X35327998Y-197946592D01*
X35327998Y-197946592D02*
X35441914Y-198023137D01*
X35441914Y-198023137D02*
X35565441Y-198062801D01*
X35565441Y-198062801D02*
X35694244Y-198064942D01*
X35694244Y-198064942D02*
X35823988Y-198028916D01*
X35823988Y-198028916D02*
X35838695Y-198022334D01*
X35838695Y-198022334D02*
X35945027Y-197954034D01*
X35945027Y-197954034D02*
X36020464Y-197862318D01*
X36020464Y-197862318D02*
X36065242Y-197746736D01*
X36065242Y-197746736D02*
X36079597Y-197606835D01*
X36079597Y-197606835D02*
X36078269Y-197564501D01*
X36078269Y-197564501D02*
X36068911Y-197474717D01*
X36068911Y-197474717D02*
X36049251Y-197404936D01*
X36049251Y-197404936D02*
X36013931Y-197336398D01*
X36013931Y-197336398D02*
X36012411Y-197333898D01*
X36012411Y-197333898D02*
X35933280Y-197239869D01*
X35933280Y-197239869D02*
X35830981Y-197174047D01*
X35830981Y-197174047D02*
X35711332Y-197138433D01*
X35711332Y-197138433D02*
X35580151Y-197135030D01*
X35580151Y-197135030D02*
X35485462Y-197152643D01*
X35485462Y-197152643D02*
X35485462Y-197152643D01*
G36*
X35711332Y-197138433D02*
G01*
X35830981Y-197174047D01*
X35933280Y-197239869D01*
X36012411Y-197333898D01*
X36013931Y-197336398D01*
X36049251Y-197404936D01*
X36068911Y-197474717D01*
X36078269Y-197564501D01*
X36079597Y-197606835D01*
X36065242Y-197746736D01*
X36020464Y-197862318D01*
X35945027Y-197954034D01*
X35838695Y-198022334D01*
X35823988Y-198028916D01*
X35694244Y-198064942D01*
X35565441Y-198062801D01*
X35441914Y-198023137D01*
X35327998Y-197946592D01*
X35290081Y-197911448D01*
X35254834Y-197874078D01*
X35241231Y-197852736D01*
X35244755Y-197845796D01*
X35273096Y-197822496D01*
X35320557Y-197794786D01*
X35399883Y-197754317D01*
X35467775Y-197813928D01*
X35503904Y-197841518D01*
X35581404Y-197872549D01*
X35657933Y-197864544D01*
X35733179Y-197817499D01*
X35764231Y-197786901D01*
X35785977Y-197752001D01*
X35797588Y-197704710D01*
X35804160Y-197631687D01*
X35805949Y-197566390D01*
X35794410Y-197468778D01*
X35762338Y-197399575D01*
X35708372Y-197354847D01*
X35632889Y-197329439D01*
X35560737Y-197338519D01*
X35488507Y-197385023D01*
X35421809Y-197443585D01*
X35331679Y-197393211D01*
X35309064Y-197380299D01*
X35268257Y-197352581D01*
X35254405Y-197330461D01*
X35261191Y-197306135D01*
X35277964Y-197281844D01*
X35334173Y-197230000D01*
X35407960Y-197183771D01*
X35485462Y-197152643D01*
X35580151Y-197135030D01*
X35711332Y-197138433D01*
G37*
X35711332Y-197138433D02*
X35830981Y-197174047D01*
X35933280Y-197239869D01*
X36012411Y-197333898D01*
X36013931Y-197336398D01*
X36049251Y-197404936D01*
X36068911Y-197474717D01*
X36078269Y-197564501D01*
X36079597Y-197606835D01*
X36065242Y-197746736D01*
X36020464Y-197862318D01*
X35945027Y-197954034D01*
X35838695Y-198022334D01*
X35823988Y-198028916D01*
X35694244Y-198064942D01*
X35565441Y-198062801D01*
X35441914Y-198023137D01*
X35327998Y-197946592D01*
X35290081Y-197911448D01*
X35254834Y-197874078D01*
X35241231Y-197852736D01*
X35244755Y-197845796D01*
X35273096Y-197822496D01*
X35320557Y-197794786D01*
X35399883Y-197754317D01*
X35467775Y-197813928D01*
X35503904Y-197841518D01*
X35581404Y-197872549D01*
X35657933Y-197864544D01*
X35733179Y-197817499D01*
X35764231Y-197786901D01*
X35785977Y-197752001D01*
X35797588Y-197704710D01*
X35804160Y-197631687D01*
X35805949Y-197566390D01*
X35794410Y-197468778D01*
X35762338Y-197399575D01*
X35708372Y-197354847D01*
X35632889Y-197329439D01*
X35560737Y-197338519D01*
X35488507Y-197385023D01*
X35421809Y-197443585D01*
X35331679Y-197393211D01*
X35309064Y-197380299D01*
X35268257Y-197352581D01*
X35254405Y-197330461D01*
X35261191Y-197306135D01*
X35277964Y-197281844D01*
X35334173Y-197230000D01*
X35407960Y-197183771D01*
X35485462Y-197152643D01*
X35580151Y-197135030D01*
X35711332Y-197138433D01*
X31881189Y-196733741D02*
X31816567Y-196741437D01*
X31816567Y-196741437D02*
X31758500Y-196759197D01*
X31758500Y-196759197D02*
X31699562Y-196785884D01*
X31699562Y-196785884D02*
X31584604Y-196861996D01*
X31584604Y-196861996D02*
X31492347Y-196966970D01*
X31492347Y-196966970D02*
X31422002Y-197102151D01*
X31422002Y-197102151D02*
X31372779Y-197268883D01*
X31372779Y-197268883D02*
X31354570Y-197373464D01*
X31354570Y-197373464D02*
X31338268Y-197527178D01*
X31338268Y-197527178D02*
X31336482Y-197663482D01*
X31336482Y-197663482D02*
X31349484Y-197801356D01*
X31349484Y-197801356D02*
X31361779Y-197877732D01*
X31361779Y-197877732D02*
X31406600Y-198051964D01*
X31406600Y-198051964D02*
X31473289Y-198198191D01*
X31473289Y-198198191D02*
X31560509Y-198314342D01*
X31560509Y-198314342D02*
X31666924Y-198398346D01*
X31666924Y-198398346D02*
X31712792Y-198421706D01*
X31712792Y-198421706D02*
X31805941Y-198450276D01*
X31805941Y-198450276D02*
X31918276Y-198466619D01*
X31918276Y-198466619D02*
X32031329Y-198468967D01*
X32031329Y-198468967D02*
X32109283Y-198459705D01*
X32109283Y-198459705D02*
X32184600Y-198439781D01*
X32184600Y-198439781D02*
X32246195Y-198411095D01*
X32246195Y-198411095D02*
X32309094Y-198365485D01*
X32309094Y-198365485D02*
X32352785Y-198327434D01*
X32352785Y-198327434D02*
X32442941Y-198222255D01*
X32442941Y-198222255D02*
X32510807Y-198089080D01*
X32510807Y-198089080D02*
X32521390Y-198051694D01*
X32521390Y-198051694D02*
X32115077Y-198051694D01*
X32115077Y-198051694D02*
X32098366Y-198098731D01*
X32098366Y-198098731D02*
X32054685Y-198130658D01*
X32054685Y-198130658D02*
X31993708Y-198145931D01*
X31993708Y-198145931D02*
X31925111Y-198143004D01*
X31925111Y-198143004D02*
X31858571Y-198120334D01*
X31858571Y-198120334D02*
X31825245Y-198097962D01*
X31825245Y-198097962D02*
X31783099Y-198048793D01*
X31783099Y-198048793D02*
X31745795Y-197982909D01*
X31745795Y-197982909D02*
X31735151Y-197956308D01*
X31735151Y-197956308D02*
X31715890Y-197877223D01*
X31715890Y-197877223D02*
X31701250Y-197773359D01*
X31701250Y-197773359D02*
X31692197Y-197658843D01*
X31692197Y-197658843D02*
X31689697Y-197547802D01*
X31689697Y-197547802D02*
X31694716Y-197454362D01*
X31694716Y-197454362D02*
X31698892Y-197425889D01*
X31698892Y-197425889D02*
X31715027Y-197339702D01*
X31715027Y-197339702D02*
X31915052Y-197683738D01*
X31915052Y-197683738D02*
X31975656Y-197789104D01*
X31975656Y-197789104D02*
X32028881Y-197883798D01*
X32028881Y-197883798D02*
X32071760Y-197962368D01*
X32071760Y-197962368D02*
X32101331Y-198019360D01*
X32101331Y-198019360D02*
X32114629Y-198049321D01*
X32114629Y-198049321D02*
X32115077Y-198051694D01*
X32115077Y-198051694D02*
X32521390Y-198051694D01*
X32521390Y-198051694D02*
X32556836Y-197926483D01*
X32556836Y-197926483D02*
X32581480Y-197733041D01*
X32581480Y-197733041D02*
X32584805Y-197634984D01*
X32584805Y-197634984D02*
X32238146Y-197634984D01*
X32238146Y-197634984D02*
X32236185Y-197695716D01*
X32236185Y-197695716D02*
X32234167Y-197741666D01*
X32234167Y-197741666D02*
X32231418Y-197774212D01*
X32231418Y-197774212D02*
X32225578Y-197790645D01*
X32225578Y-197790645D02*
X32214288Y-197788254D01*
X32214288Y-197788254D02*
X32195189Y-197764330D01*
X32195189Y-197764330D02*
X32165921Y-197716164D01*
X32165921Y-197716164D02*
X32124124Y-197641045D01*
X32124124Y-197641045D02*
X32067438Y-197536263D01*
X32067438Y-197536263D02*
X32018921Y-197446196D01*
X32018921Y-197446196D02*
X31959859Y-197335619D01*
X31959859Y-197335619D02*
X31917835Y-197253656D01*
X31917835Y-197253656D02*
X31890655Y-197194906D01*
X31890655Y-197194906D02*
X31876125Y-197153967D01*
X31876125Y-197153967D02*
X31872053Y-197125434D01*
X31872053Y-197125434D02*
X31876246Y-197103908D01*
X31876246Y-197103908D02*
X31878145Y-197099389D01*
X31878145Y-197099389D02*
X31914080Y-197063197D01*
X31914080Y-197063197D02*
X31972173Y-197052645D01*
X31972173Y-197052645D02*
X32044564Y-197068352D01*
X32044564Y-197068352D02*
X32078683Y-197083617D01*
X32078683Y-197083617D02*
X32135785Y-197134136D01*
X32135785Y-197134136D02*
X32181276Y-197218397D01*
X32181276Y-197218397D02*
X32214163Y-197332535D01*
X32214163Y-197332535D02*
X32233451Y-197472686D01*
X32233451Y-197472686D02*
X32238146Y-197634984D01*
X32238146Y-197634984D02*
X32584805Y-197634984D01*
X32584805Y-197634984D02*
X32586238Y-197592731D01*
X32586238Y-197592731D02*
X32575312Y-197379678D01*
X32575312Y-197379678D02*
X32540721Y-197197138D01*
X32540721Y-197197138D02*
X32482214Y-197044339D01*
X32482214Y-197044339D02*
X32399538Y-196920506D01*
X32399538Y-196920506D02*
X32351492Y-196871396D01*
X32351492Y-196871396D02*
X32266009Y-196804584D01*
X32266009Y-196804584D02*
X32179519Y-196762242D01*
X32179519Y-196762242D02*
X32079434Y-196739819D01*
X32079434Y-196739819D02*
X31968539Y-196732925D01*
X31968539Y-196732925D02*
X31881189Y-196733741D01*
X31881189Y-196733741D02*
X31881189Y-196733741D01*
G36*
X32442941Y-198222255D02*
G01*
X32352785Y-198327434D01*
X32309094Y-198365485D01*
X32246195Y-198411095D01*
X32184600Y-198439781D01*
X32109283Y-198459705D01*
X32031329Y-198468967D01*
X31918276Y-198466619D01*
X31805941Y-198450276D01*
X31712792Y-198421706D01*
X31666924Y-198398346D01*
X31560509Y-198314342D01*
X31473289Y-198198191D01*
X31406600Y-198051964D01*
X31361779Y-197877732D01*
X31349484Y-197801356D01*
X31336482Y-197663482D01*
X31337998Y-197547802D01*
X31689697Y-197547802D01*
X31692197Y-197658843D01*
X31701250Y-197773359D01*
X31715890Y-197877223D01*
X31735151Y-197956308D01*
X31745795Y-197982909D01*
X31783099Y-198048793D01*
X31825245Y-198097962D01*
X31858571Y-198120334D01*
X31925111Y-198143004D01*
X31993708Y-198145931D01*
X32054685Y-198130658D01*
X32098366Y-198098731D01*
X32115077Y-198051694D01*
X32114629Y-198049321D01*
X32101331Y-198019360D01*
X32071760Y-197962368D01*
X32028881Y-197883798D01*
X31975656Y-197789104D01*
X31915052Y-197683738D01*
X31715027Y-197339702D01*
X31698892Y-197425889D01*
X31694716Y-197454362D01*
X31689697Y-197547802D01*
X31337998Y-197547802D01*
X31338268Y-197527178D01*
X31354570Y-197373464D01*
X31372779Y-197268883D01*
X31415128Y-197125434D01*
X31872053Y-197125434D01*
X31876125Y-197153967D01*
X31890655Y-197194906D01*
X31917835Y-197253656D01*
X31959859Y-197335619D01*
X32018921Y-197446196D01*
X32067438Y-197536263D01*
X32124124Y-197641045D01*
X32165921Y-197716164D01*
X32195189Y-197764330D01*
X32214288Y-197788254D01*
X32225578Y-197790645D01*
X32231418Y-197774212D01*
X32234167Y-197741666D01*
X32236185Y-197695716D01*
X32238146Y-197634984D01*
X32233451Y-197472686D01*
X32214163Y-197332535D01*
X32181276Y-197218397D01*
X32135785Y-197134136D01*
X32078683Y-197083617D01*
X32044564Y-197068352D01*
X31972173Y-197052645D01*
X31914080Y-197063197D01*
X31878145Y-197099389D01*
X31876246Y-197103908D01*
X31872053Y-197125434D01*
X31415128Y-197125434D01*
X31422002Y-197102151D01*
X31492347Y-196966970D01*
X31584604Y-196861996D01*
X31699562Y-196785884D01*
X31758500Y-196759197D01*
X31816567Y-196741437D01*
X31881189Y-196733741D01*
X31968539Y-196732925D01*
X32079434Y-196739819D01*
X32179519Y-196762242D01*
X32266009Y-196804584D01*
X32351492Y-196871396D01*
X32399538Y-196920506D01*
X32482214Y-197044339D01*
X32540721Y-197197138D01*
X32575312Y-197379678D01*
X32586238Y-197592731D01*
X32584805Y-197634984D01*
X32581480Y-197733041D01*
X32556836Y-197926483D01*
X32521390Y-198051694D01*
X32510807Y-198089080D01*
X32442941Y-198222255D01*
G37*
X32442941Y-198222255D02*
X32352785Y-198327434D01*
X32309094Y-198365485D01*
X32246195Y-198411095D01*
X32184600Y-198439781D01*
X32109283Y-198459705D01*
X32031329Y-198468967D01*
X31918276Y-198466619D01*
X31805941Y-198450276D01*
X31712792Y-198421706D01*
X31666924Y-198398346D01*
X31560509Y-198314342D01*
X31473289Y-198198191D01*
X31406600Y-198051964D01*
X31361779Y-197877732D01*
X31349484Y-197801356D01*
X31336482Y-197663482D01*
X31337998Y-197547802D01*
X31689697Y-197547802D01*
X31692197Y-197658843D01*
X31701250Y-197773359D01*
X31715890Y-197877223D01*
X31735151Y-197956308D01*
X31745795Y-197982909D01*
X31783099Y-198048793D01*
X31825245Y-198097962D01*
X31858571Y-198120334D01*
X31925111Y-198143004D01*
X31993708Y-198145931D01*
X32054685Y-198130658D01*
X32098366Y-198098731D01*
X32115077Y-198051694D01*
X32114629Y-198049321D01*
X32101331Y-198019360D01*
X32071760Y-197962368D01*
X32028881Y-197883798D01*
X31975656Y-197789104D01*
X31915052Y-197683738D01*
X31715027Y-197339702D01*
X31698892Y-197425889D01*
X31694716Y-197454362D01*
X31689697Y-197547802D01*
X31337998Y-197547802D01*
X31338268Y-197527178D01*
X31354570Y-197373464D01*
X31372779Y-197268883D01*
X31415128Y-197125434D01*
X31872053Y-197125434D01*
X31876125Y-197153967D01*
X31890655Y-197194906D01*
X31917835Y-197253656D01*
X31959859Y-197335619D01*
X32018921Y-197446196D01*
X32067438Y-197536263D01*
X32124124Y-197641045D01*
X32165921Y-197716164D01*
X32195189Y-197764330D01*
X32214288Y-197788254D01*
X32225578Y-197790645D01*
X32231418Y-197774212D01*
X32234167Y-197741666D01*
X32236185Y-197695716D01*
X32238146Y-197634984D01*
X32233451Y-197472686D01*
X32214163Y-197332535D01*
X32181276Y-197218397D01*
X32135785Y-197134136D01*
X32078683Y-197083617D01*
X32044564Y-197068352D01*
X31972173Y-197052645D01*
X31914080Y-197063197D01*
X31878145Y-197099389D01*
X31876246Y-197103908D01*
X31872053Y-197125434D01*
X31415128Y-197125434D01*
X31422002Y-197102151D01*
X31492347Y-196966970D01*
X31584604Y-196861996D01*
X31699562Y-196785884D01*
X31758500Y-196759197D01*
X31816567Y-196741437D01*
X31881189Y-196733741D01*
X31968539Y-196732925D01*
X32079434Y-196739819D01*
X32179519Y-196762242D01*
X32266009Y-196804584D01*
X32351492Y-196871396D01*
X32399538Y-196920506D01*
X32482214Y-197044339D01*
X32540721Y-197197138D01*
X32575312Y-197379678D01*
X32586238Y-197592731D01*
X32584805Y-197634984D01*
X32581480Y-197733041D01*
X32556836Y-197926483D01*
X32521390Y-198051694D01*
X32510807Y-198089080D01*
X32442941Y-198222255D01*
X34610240Y-197151947D02*
X34508378Y-197191970D01*
X34508378Y-197191970D02*
X34425953Y-197250711D01*
X34425953Y-197250711D02*
X34379557Y-197310874D01*
X34379557Y-197310874D02*
X34375227Y-197334377D01*
X34375227Y-197334377D02*
X34393686Y-197358572D01*
X34393686Y-197358572D02*
X34440859Y-197390489D01*
X34440859Y-197390489D02*
X34452388Y-197397323D01*
X34452388Y-197397323D02*
X34506758Y-197427060D01*
X34506758Y-197427060D02*
X34538765Y-197436991D01*
X34538765Y-197436991D02*
X34558361Y-197429280D01*
X34558361Y-197429280D02*
X34564922Y-197421783D01*
X34564922Y-197421783D02*
X34613678Y-197375036D01*
X34613678Y-197375036D02*
X34673913Y-197339854D01*
X34673913Y-197339854D02*
X34726890Y-197326461D01*
X34726890Y-197326461D02*
X34808245Y-197343534D01*
X34808245Y-197343534D02*
X34870310Y-197392865D01*
X34870310Y-197392865D02*
X34910986Y-197471618D01*
X34910986Y-197471618D02*
X34928177Y-197576958D01*
X34928177Y-197576958D02*
X34928616Y-197599038D01*
X34928616Y-197599038D02*
X34915565Y-197704520D01*
X34915565Y-197704520D02*
X34879697Y-197787197D01*
X34879697Y-197787197D02*
X34825937Y-197843996D01*
X34825937Y-197843996D02*
X34759213Y-197871845D01*
X34759213Y-197871845D02*
X34684451Y-197867673D01*
X34684451Y-197867673D02*
X34606578Y-197828406D01*
X34606578Y-197828406D02*
X34586663Y-197812275D01*
X34586663Y-197812275D02*
X34516888Y-197751013D01*
X34516888Y-197751013D02*
X34439444Y-197785935D01*
X34439444Y-197785935D02*
X34392090Y-197812301D01*
X34392090Y-197812301D02*
X34364706Y-197837249D01*
X34364706Y-197837249D02*
X34362000Y-197844709D01*
X34362000Y-197844709D02*
X34377365Y-197876272D01*
X34377365Y-197876272D02*
X34417095Y-197919399D01*
X34417095Y-197919399D02*
X34471639Y-197966241D01*
X34471639Y-197966241D02*
X34531448Y-198008947D01*
X34531448Y-198008947D02*
X34586973Y-198039670D01*
X34586973Y-198039670D02*
X34609070Y-198047792D01*
X34609070Y-198047792D02*
X34748419Y-198068493D01*
X34748419Y-198068493D02*
X34880352Y-198050937D01*
X34880352Y-198050937D02*
X34963723Y-198018395D01*
X34963723Y-198018395D02*
X35067214Y-197946141D01*
X35067214Y-197946141D02*
X35142881Y-197848191D01*
X35142881Y-197848191D02*
X35188536Y-197728345D01*
X35188536Y-197728345D02*
X35202154Y-197604694D01*
X35202154Y-197604694D02*
X35185124Y-197473486D01*
X35185124Y-197473486D02*
X35136905Y-197354228D01*
X35136905Y-197354228D02*
X35061800Y-197254078D01*
X35061800Y-197254078D02*
X34964117Y-197180196D01*
X34964117Y-197180196D02*
X34939475Y-197167928D01*
X34939475Y-197167928D02*
X34835087Y-197137553D01*
X34835087Y-197137553D02*
X34722242Y-197133017D01*
X34722242Y-197133017D02*
X34610240Y-197151947D01*
X34610240Y-197151947D02*
X34610240Y-197151947D01*
G36*
X34835087Y-197137553D02*
G01*
X34939475Y-197167928D01*
X34964117Y-197180196D01*
X35061800Y-197254078D01*
X35136905Y-197354228D01*
X35185124Y-197473486D01*
X35202154Y-197604694D01*
X35188536Y-197728345D01*
X35142881Y-197848191D01*
X35067214Y-197946141D01*
X34963723Y-198018395D01*
X34880352Y-198050937D01*
X34748419Y-198068493D01*
X34609070Y-198047792D01*
X34586973Y-198039670D01*
X34531448Y-198008947D01*
X34471639Y-197966241D01*
X34417095Y-197919399D01*
X34377365Y-197876272D01*
X34362000Y-197844709D01*
X34364706Y-197837249D01*
X34392090Y-197812301D01*
X34439444Y-197785935D01*
X34516888Y-197751013D01*
X34586663Y-197812275D01*
X34606578Y-197828406D01*
X34684451Y-197867673D01*
X34759213Y-197871845D01*
X34825937Y-197843996D01*
X34879697Y-197787197D01*
X34915565Y-197704520D01*
X34928616Y-197599038D01*
X34928177Y-197576958D01*
X34910986Y-197471618D01*
X34870310Y-197392865D01*
X34808245Y-197343534D01*
X34726890Y-197326461D01*
X34673913Y-197339854D01*
X34613678Y-197375036D01*
X34564922Y-197421783D01*
X34558361Y-197429280D01*
X34538765Y-197436991D01*
X34506758Y-197427060D01*
X34452388Y-197397323D01*
X34440859Y-197390489D01*
X34393686Y-197358572D01*
X34375227Y-197334377D01*
X34379557Y-197310874D01*
X34425953Y-197250711D01*
X34508378Y-197191970D01*
X34610240Y-197151947D01*
X34722242Y-197133017D01*
X34835087Y-197137553D01*
G37*
X34835087Y-197137553D02*
X34939475Y-197167928D01*
X34964117Y-197180196D01*
X35061800Y-197254078D01*
X35136905Y-197354228D01*
X35185124Y-197473486D01*
X35202154Y-197604694D01*
X35188536Y-197728345D01*
X35142881Y-197848191D01*
X35067214Y-197946141D01*
X34963723Y-198018395D01*
X34880352Y-198050937D01*
X34748419Y-198068493D01*
X34609070Y-198047792D01*
X34586973Y-198039670D01*
X34531448Y-198008947D01*
X34471639Y-197966241D01*
X34417095Y-197919399D01*
X34377365Y-197876272D01*
X34362000Y-197844709D01*
X34364706Y-197837249D01*
X34392090Y-197812301D01*
X34439444Y-197785935D01*
X34516888Y-197751013D01*
X34586663Y-197812275D01*
X34606578Y-197828406D01*
X34684451Y-197867673D01*
X34759213Y-197871845D01*
X34825937Y-197843996D01*
X34879697Y-197787197D01*
X34915565Y-197704520D01*
X34928616Y-197599038D01*
X34928177Y-197576958D01*
X34910986Y-197471618D01*
X34870310Y-197392865D01*
X34808245Y-197343534D01*
X34726890Y-197326461D01*
X34673913Y-197339854D01*
X34613678Y-197375036D01*
X34564922Y-197421783D01*
X34558361Y-197429280D01*
X34538765Y-197436991D01*
X34506758Y-197427060D01*
X34452388Y-197397323D01*
X34440859Y-197390489D01*
X34393686Y-197358572D01*
X34375227Y-197334377D01*
X34379557Y-197310874D01*
X34425953Y-197250711D01*
X34508378Y-197191970D01*
X34610240Y-197151947D01*
X34722242Y-197133017D01*
X34835087Y-197137553D01*
G04 #@! TD*
M02*
