M48
; DRILL file {KiCad 6.0.2-378541a8eb~116~ubuntu20.04.1} date Sat Mar 12 17:00:12 2022
; FORMAT={-:-/ absolute / metric / decimal}
; #@! TF.CreationDate,2022-03-12T17:00:12-05:00
; #@! TF.GenerationSoftware,Kicad,Pcbnew,6.0.2-378541a8eb~116~ubuntu20.04.1
; #@! TF.FileFunction,MixedPlating,1,2
FMAT,2
METRIC
; #@! TA.AperFunction,Plated,PTH,ComponentDrill
T1C0.700
; #@! TA.AperFunction,Plated,PTH,ComponentDrill
T2C0.800
; #@! TA.AperFunction,Plated,PTH,ComponentDrill
T3C1.000
; #@! TA.AperFunction,Plated,PTH,ComponentDrill
T4C1.016
; #@! TA.AperFunction,Plated,PTH,ComponentDrill
T5C1.100
; #@! TA.AperFunction,NonPlated,NPTH,ComponentDrill
T6C3.200
%
G90
G05
T1
X171.48Y-52.05
X171.48Y-55.86
X171.48Y-59.67
T2
X130.84Y-82.53
X130.84Y-87.61
X130.84Y-92.69
X130.84Y-97.77
X130.84Y-102.85
X130.84Y-107.93
X130.84Y-119.36
X130.84Y-124.44
X130.84Y-129.52
X130.84Y-134.6
X130.84Y-139.68
X133.38Y-77.45
X135.92Y-77.45
X138.46Y-77.45
X141.0Y-82.53
X141.0Y-87.61
X141.0Y-92.69
X141.0Y-97.77
X141.0Y-102.85
X141.0Y-107.93
X141.0Y-119.36
X141.0Y-124.44
X141.0Y-129.52
X141.0Y-134.6
X141.0Y-139.68
X143.54Y-71.1
X144.81Y-53.32
X144.81Y-55.82
X146.08Y-79.99
X146.08Y-82.53
X146.08Y-85.07
X146.08Y-87.61
X146.08Y-107.93
X146.08Y-110.47
X146.08Y-113.01
X146.08Y-115.55
X146.08Y-118.09
X146.08Y-120.63
X146.08Y-123.17
X146.12Y-76.18
X146.12Y-104.12
X148.62Y-76.18
X148.62Y-104.12
X151.2Y-91.42
X151.2Y-104.12
X153.7Y-53.36
X153.7Y-55.86
X153.7Y-71.1
X153.7Y-79.99
X153.7Y-82.53
X153.7Y-85.07
X153.7Y-87.61
X153.7Y-91.42
X153.7Y-104.12
X153.7Y-107.93
X153.7Y-110.47
X153.7Y-113.01
X153.7Y-115.55
X153.7Y-118.09
X153.7Y-120.63
X153.7Y-123.17
X158.78Y-95.23
X158.78Y-100.31
X158.78Y-105.39
X158.78Y-110.47
X158.78Y-115.55
X158.78Y-120.63
X158.78Y-125.71
X158.78Y-130.79
X158.78Y-135.87
X158.78Y-140.95
X158.907Y-82.53
X158.907Y-87.102
X168.94Y-95.23
X168.94Y-100.31
X168.94Y-105.39
X168.94Y-110.47
X168.94Y-115.55
X168.94Y-120.63
X168.94Y-125.71
X168.94Y-130.79
X168.94Y-135.87
X168.94Y-140.95
X169.067Y-82.53
X169.067Y-87.102
T3
X131.5Y-146.0
X134.04Y-146.0
X136.58Y-146.0
X139.12Y-146.0
X141.66Y-146.0
X144.2Y-146.0
X146.74Y-146.0
X149.28Y-146.0
X151.82Y-146.0
X154.36Y-146.0
X156.9Y-146.0
X159.44Y-146.0
X161.98Y-146.0
X164.52Y-146.0
X167.06Y-146.0
X169.6Y-146.0
T4
X133.38Y-55.86
X133.38Y-58.4
X133.38Y-60.94
X133.38Y-63.48
X133.38Y-66.02
X135.92Y-55.86
X135.92Y-58.4
X135.92Y-60.94
X135.92Y-63.48
X135.92Y-66.02
T5
X143.54Y-60.94
X143.54Y-66.02
X153.7Y-60.94
X153.7Y-66.02
T6
X138.5Y-114.0
X164.5Y-53.0
T0
M30
