G04 #@! TF.GenerationSoftware,KiCad,Pcbnew,6.0.2-378541a8eb~116~ubuntu20.04.1*
G04 #@! TF.CreationDate,2022-03-12T17:00:12-05:00*
G04 #@! TF.ProjectId,attenuverters_b1,61747465-6e75-4766-9572-746572735f62,rev?*
G04 #@! TF.SameCoordinates,Original*
G04 #@! TF.FileFunction,Legend,Top*
G04 #@! TF.FilePolarity,Positive*
%FSLAX46Y46*%
G04 Gerber Fmt 4.6, Leading zero omitted, Abs format (unit mm)*
G04 Created by KiCad (PCBNEW 6.0.2-378541a8eb~116~ubuntu20.04.1) date 2022-03-12 17:00:12*
%MOMM*%
%LPD*%
G01*
G04 APERTURE LIST*
%ADD10C,0.150000*%
%ADD11C,0.120000*%
G04 APERTURE END LIST*
D10*
G04 #@! TO.C,J1*
X128622379Y-146333332D02*
X129336665Y-146333332D01*
X129479522Y-146380951D01*
X129574760Y-146476189D01*
X129622379Y-146619046D01*
X129622379Y-146714284D01*
X129622379Y-145333332D02*
X129622379Y-145904760D01*
X129622379Y-145619046D02*
X128622379Y-145619046D01*
X128765237Y-145714284D01*
X128860475Y-145809522D01*
X128908094Y-145904760D01*
G04 #@! TO.C,TP2*
X169501570Y-57181427D02*
X169501570Y-56609999D01*
X169787284Y-56895713D02*
X169215856Y-56895713D01*
X169787284Y-55859999D02*
X169787284Y-56288570D01*
X169787284Y-56074284D02*
X169037284Y-56074284D01*
X169144427Y-56145713D01*
X169215856Y-56217141D01*
X169251570Y-56288570D01*
X169108713Y-55574284D02*
X169072999Y-55538570D01*
X169037284Y-55467141D01*
X169037284Y-55288570D01*
X169072999Y-55217141D01*
X169108713Y-55181427D01*
X169180141Y-55145713D01*
X169251570Y-55145713D01*
X169358713Y-55181427D01*
X169787284Y-55609999D01*
X169787284Y-55145713D01*
X169037284Y-54931427D02*
X169787284Y-54681427D01*
X169037284Y-54431427D01*
X168021284Y-56806427D02*
X168021284Y-56377856D01*
X168771284Y-56592141D02*
X168021284Y-56592141D01*
X168771284Y-56127856D02*
X168021284Y-56127856D01*
X168021284Y-55842141D01*
X168056999Y-55770713D01*
X168092713Y-55734999D01*
X168164141Y-55699284D01*
X168271284Y-55699284D01*
X168342713Y-55734999D01*
X168378427Y-55770713D01*
X168414141Y-55842141D01*
X168414141Y-56127856D01*
X168092713Y-55413570D02*
X168056999Y-55377856D01*
X168021284Y-55306427D01*
X168021284Y-55127856D01*
X168056999Y-55056427D01*
X168092713Y-55020713D01*
X168164141Y-54984999D01*
X168235570Y-54984999D01*
X168342713Y-55020713D01*
X168771284Y-55449284D01*
X168771284Y-54984999D01*
G04 #@! TO.C,TP1*
X168021284Y-52996427D02*
X168021284Y-52567856D01*
X168771284Y-52782141D02*
X168021284Y-52782141D01*
X168771284Y-52317856D02*
X168021284Y-52317856D01*
X168021284Y-52032141D01*
X168056999Y-51960713D01*
X168092713Y-51924999D01*
X168164141Y-51889284D01*
X168271284Y-51889284D01*
X168342713Y-51924999D01*
X168378427Y-51960713D01*
X168414141Y-52032141D01*
X168414141Y-52317856D01*
X168771284Y-51174999D02*
X168771284Y-51603570D01*
X168771284Y-51389284D02*
X168021284Y-51389284D01*
X168128427Y-51460713D01*
X168199856Y-51532141D01*
X168235570Y-51603570D01*
X169072999Y-52621427D02*
X169037284Y-52692856D01*
X169037284Y-52799999D01*
X169072999Y-52907141D01*
X169144427Y-52978570D01*
X169215856Y-53014284D01*
X169358713Y-53049999D01*
X169465856Y-53049999D01*
X169608713Y-53014284D01*
X169680141Y-52978570D01*
X169751570Y-52907141D01*
X169787284Y-52799999D01*
X169787284Y-52728570D01*
X169751570Y-52621427D01*
X169715856Y-52585713D01*
X169465856Y-52585713D01*
X169465856Y-52728570D01*
X169787284Y-52264284D02*
X169037284Y-52264284D01*
X169787284Y-51835713D01*
X169037284Y-51835713D01*
X169787284Y-51478570D02*
X169037284Y-51478570D01*
X169037284Y-51299999D01*
X169072999Y-51192856D01*
X169144427Y-51121427D01*
X169215856Y-51085713D01*
X169358713Y-51049999D01*
X169465856Y-51049999D01*
X169608713Y-51085713D01*
X169680141Y-51121427D01*
X169751570Y-51192856D01*
X169787284Y-51299999D01*
X169787284Y-51478570D01*
G04 #@! TO.C,TP3*
X168021284Y-60616427D02*
X168021284Y-60187856D01*
X168771284Y-60402141D02*
X168021284Y-60402141D01*
X168771284Y-59937856D02*
X168021284Y-59937856D01*
X168021284Y-59652141D01*
X168056999Y-59580713D01*
X168092713Y-59544999D01*
X168164141Y-59509284D01*
X168271284Y-59509284D01*
X168342713Y-59544999D01*
X168378427Y-59580713D01*
X168414141Y-59652141D01*
X168414141Y-59937856D01*
X168021284Y-59259284D02*
X168021284Y-58794999D01*
X168306999Y-59044999D01*
X168306999Y-58937856D01*
X168342713Y-58866427D01*
X168378427Y-58830713D01*
X168449856Y-58794999D01*
X168628427Y-58794999D01*
X168699856Y-58830713D01*
X168735570Y-58866427D01*
X168771284Y-58937856D01*
X168771284Y-59152141D01*
X168735570Y-59223570D01*
X168699856Y-59259284D01*
X169501570Y-60991427D02*
X169501570Y-60419999D01*
X169787284Y-59669999D02*
X169787284Y-60098570D01*
X169787284Y-59884284D02*
X169037284Y-59884284D01*
X169144427Y-59955713D01*
X169215856Y-60027141D01*
X169251570Y-60098570D01*
X169108713Y-59384284D02*
X169072999Y-59348570D01*
X169037284Y-59277141D01*
X169037284Y-59098570D01*
X169072999Y-59027141D01*
X169108713Y-58991427D01*
X169180141Y-58955713D01*
X169251570Y-58955713D01*
X169358713Y-58991427D01*
X169787284Y-59419999D01*
X169787284Y-58955713D01*
X169037284Y-58741427D02*
X169787284Y-58491427D01*
X169037284Y-58241427D01*
D11*
G04 #@! TO.C,J1*
X132769999Y-147329999D02*
X132769999Y-144669999D01*
X132769999Y-144669999D02*
X170929999Y-144669999D01*
X130169999Y-147329999D02*
X130169999Y-145999999D01*
X131499999Y-147329999D02*
X130169999Y-147329999D01*
X132769999Y-147329999D02*
X170929999Y-147329999D01*
X170929999Y-147329999D02*
X170929999Y-144669999D01*
G04 #@! TD*
M02*
